<svg width="1502" height="1502" viewBox="0 0 1502 1502" fill="none" xmlns="http://www.w3.org/2000/svg">
  <rect x="286.5" y="257" width="928" height="844" fill="white"/>
  <path fill-rule="evenodd" clip-rule="evenodd" d="M1502 751C1502 1165.77 1165.77 1502 751 1502C336.234 1502 0 1165.77 0 751C0 336.234 336.234 0 751 0C1165.77 0 1502 336.234 1502 751ZM538.188 1049.86H392.44C361.814 1049.86 346.686 1049.86 337.462 1043.96C327.499 1037.5 321.411 1026.8 320.673 1014.99C320.119 1004.11 327.684 990.822 342.812 964.255L702.682 329.935C717.995 302.999 725.743 289.531 735.521 284.55C746.037 279.2 758.583 279.2 769.099 284.55C778.877 289.531 786.626 302.999 801.938 329.935L875.92 459.079L876.297 459.738C892.836 488.635 901.223 503.289 904.885 518.669C908.943 535.458 908.943 553.169 904.885 569.958C901.195 585.455 892.893 600.215 876.104 629.549L687.073 963.702L686.584 964.558C669.936 993.693 661.499 1008.46 649.806 1019.6C637.076 1031.78 621.763 1040.63 604.974 1045.62C589.661 1049.86 572.504 1049.86 538.188 1049.86ZM906.25 1049.86H1115.09C1145.9 1049.86 1161.4 1049.86 1170.63 1043.78C1180.59 1037.32 1186.86 1026.43 1187.42 1014.63C1187.95 1004.1 1180.55 991.33 1166.05 966.307C1165.55 965.455 1165.05 964.588 1164.54 963.706L1059.93 784.75L1058.74 782.735C1044.04 757.877 1036.62 745.324 1027.09 740.472C1016.58 735.121 1004.21 735.121 993.699 740.472C984.105 745.453 976.357 758.552 961.044 784.934L856.806 963.891L856.449 964.507C841.19 990.847 833.564 1004.01 834.114 1014.81C834.852 1026.62 840.94 1037.5 850.902 1043.96C859.943 1049.86 875.44 1049.86 906.25 1049.86Z" fill="#E84142"/>
</svg>