<?xml version="1.0" encoding="UTF-8"?>
<svg xmlns="http://www.w3.org/2000/svg" version="1.1" xmlns:xlink="http://www.w3.org/1999/xlink" xmlns:xodm="http://www.corel.com/coreldraw/odm/2003" viewBox="0 0 200 200">
  <!-- Generator: Adobe Illustrator 29.3.1, SVG Export Plug-In . SVG Version: 2.1.0 Build 151)  -->
  <defs>
    <style>
      .st0 {
        fill: #978f8c;
      }

      .st1 {
        fill: #dbbd93;
      }

      .st2 {
        fill: #614037;
      }

      .st3 {
        fill: #988f8d;
      }

      .st4 {
        fill: #fcfdfc;
      }

      .st5 {
        fill: #937955;
      }

      .st6 {
        fill: #4b3c37;
      }

      .st7 {
        fill: #c74f02;
      }

      .st8 {
        fill: #d9b690;
      }

      .st9 {
        fill: #613f36;
      }

      .st10 {
        fill: #c6a774;
      }

      .st11 {
        fill: #f4a025;
      }

      .st12 {
        fill: #9a7f59;
      }

      .st13, .st14 {
        fill-rule: evenodd;
      }

      .st13, .st14, .st15, .st16 {
        display: none;
      }

      .st13, .st15 {
        fill: #633001;
      }

      .st17 {
        fill: #fad8a5;
      }

      .st18 {
        fill: #fdfefd;
      }

      .st14 {
        fill: #d1884f;
      }

      .st19 {
        fill: #fcfcfb;
      }

      .st20 {
        fill: #fbf5ee;
      }

      .st21 {
        fill: #31201b;
      }

      .st22 {
        fill: #aaa3a1;
      }

      .st23 {
        fill: #f08102;
      }

      .st24 {
        fill: #e8c587;
      }

      .st25 {
        fill: #ddd;
      }

      .st26 {
        fill: #fda524;
      }

      .st27 {
        fill: #f2e156;
      }

      .st28 {
        fill: #8e8683;
      }

      .st29 {
        fill: #dedede;
      }

      .st30 {
        fill: #f28b7e;
      }

      .st31 {
        fill: #dcdcdc;
      }

      .st32 {
        fill: #e5ba7e;
      }

      .st33 {
        fill: #ffe958;
      }

      .st34 {
        fill: #dddbdb;
      }

      .st35 {
        fill: #cb6105;
      }

      .st36 {
        fill: #eeeded;
      }

      .st37 {
        fill: #dededd;
      }

      .st38 {
        fill: #df6d03;
      }

      .st16 {
        fill: #fedc90;
      }
    </style>
  </defs>
  <g id="katman_1" image-rendering="optimizeQuality" shape-rendering="geometricPrecision" text-rendering="geometricPrecision">
    <g id="Layer_x5F_1">
      <path class="st33" d="M100,0c55.2,0,100,44.8,100,100s-44.8,100-100,100S0,155.2,0,100,44.8,0,100,0Z"/>
    </g>
    <path class="st13" d="M58.8,55.3c-2-10.6,6.1-20.3,16.7-20.3s17.1,7.7,17.1,17.1v21.1c2.4,0,4.9-.4,7.3-.4s4.5,0,6.9.4v-21.1c0-9.3,7.7-17.1,17.1-17.1s18.7,9.8,17.1,20.3l-4.5,24.8c15.8,6.9,28,19.1,28,34.1v9.3c0,12.6-8.1,23.2-19.9,30.1-11.8,7.3-27.2,11.4-44.7,11.4s-32.9-4.1-44.7-11.4c-11.4-6.9-19.5-17.5-19.5-30.1v-9.3c0-15,11.8-27.2,27.6-34.1l-4.5-24.8ZM130.3,83.3l5.3-29.3c1.2-7.3-4.1-14.2-11.8-14.2s-11.8,5.3-11.8,11.8v26.8c-1.6-.4-3.7-.4-5.3-.4-2.4,0-4.5-.4-6.9-.4s-4.9,0-7.3.4c-1.6,0-3.7.4-5.3.4v-26.4c0-6.5-5.3-11.8-11.8-11.8-7.3,0-13,6.9-11.4,14.2l5.3,29.3c-17.1,6.5-28.4,17.9-28.4,30.9v9.3c0,19.9,26.4,36.2,58.9,36.2s58.9-16.3,58.9-36.2v-9.3c.4-13.4-11-24.8-28.4-31.3Z"/>
    <path class="st16" d="M159.1,123.6c0,19.9-26.4,36.2-58.9,36.2s-58.9-16.3-58.9-36.2v-9.3h118.2v9.3h-.4Z"/>
    <path class="st14" d="M64,54.5c-1.6-7.3,4.1-14.2,11.4-14.2s11.8,5.3,11.8,11.8v26.8c4.1-.4,8.1-.8,12.6-.8s8.1.4,12.2.8v-26.8c0-6.5,5.3-11.8,11.8-11.8s13,6.9,11.8,14.2l-5.3,29.3c17.1,6.5,28.8,17.9,28.8,30.9,0,19.9-26.4,36.2-58.9,36.2s-58.9-16.3-58.9-36.2,11.4-24.4,28.4-30.9l-5.7-29.3Z"/>
    <path class="st15" d="M83.5,111.8c0,5.3-2.8,9.7-6.5,9.7s-6.5-4.5-6.5-9.7,2.8-9.7,6.5-9.7,6.5,4.5,6.5,9.7Z"/>
    <path class="st15" d="M128.6,111.8c0,5.3-2.8,9.7-6.5,9.7s-6.5-4.5-6.5-9.7,2.8-9.7,6.5-9.7,6.5,4.5,6.5,9.7Z"/>
    <g>
      <path class="st21" d="M82.4,174c-1.9-.7-3.6-1.5-5.3-2.7-.5-.4-1.2-.2-1.8-.2-2.7,0-5.3.2-8-.2-4.5-.6-7.4-3.2-9-7.3-1.1-2.9-2-5.9-2.2-9,0-.7-.5-.8-.9-1.1-7.9-5.2-11.9-12.5-11.5-22,.2-4.2,1.5-8.1,3.8-11.6.6-.8,1.1-1.7,2.3-1.5,1.3.2,1.3,1.3,1.4,2.2,1.2,6.4,4.6,11.2,10.2,14.6,1,.6,1,.6,1.1-.6.2-4,1.6-7.6,4.1-10.8.9-1.1.5-3.2-.7-3.8-12.1-6.5-18.1-17.7-16.8-31.4.4-3.9,1-7.8,2.3-11.6.3-.8.4-1.7.2-2.6-2.5-10.3-2.8-20.7.1-31,.5-1.8,1.1-3.5,2.1-5.1,2.4-4.1,4.6-4.9,8.9-3.9,4.1.9,7.6,3.3,11,5.6,1.7,1.2,3.3,2.5,4.8,3.9.4.4.8.5,1.4.2,7.5-3.2,15.3-4.8,23.5-4.4,6.3.3,12.2,1.8,18,4.3.8.3,1.2.3,1.8-.3,3.8-3.3,7.9-6.3,12.6-8.3,1.9-.8,3.9-1.4,6-1.4,1.7,0,3.1.7,4.3,2,2.5,2.8,3.6,6.2,4.4,9.7,2.1,9.5,1.9,19-.4,28.5-.2.8-.2,1.6,0,2.5,1.5,4.6,2.4,9.4,2.5,14.2.1,7.6-1.5,14.6-6.4,20.6-2.9,3.6-6.4,6.4-10.5,8.5-1.1.6-1.7,2.7-.8,3.6,4,4.7,4.7,10.2,4.1,16-.1,1,.1,1.5,1,2,2.8,1.8,4.4,4.6,5.1,7.8,1.3,6-.2,11.5-3.1,16.7-1.8,3.1-4.8,4.6-8.3,4.9-2.6.2-5.2.1-7.8,0-.8,0-1.4.2-2,.6-1.5,1.2-3.3,1.7-5.2,2-.2,0-.3,0-.3.2h-5.3c-.6-.2-1.3-.2-1.9-.3-.9-.4-1.9-.9-2.6-1.6-.4-.5-1-.6-1.6-.6h-11.9c-.6,0-1.1.1-1.5.5-1.2,1.1-2.5,1.9-4.2,2h-.7c-.2-.2-.4,0-.6-.1-.2,0-.4,0-.5.1h-1.3c-.4-.2-.9-.2-1.3,0h-.9c-.2-.1-.3-.1-.4,0-.3,0-.6,0-.9,0Z"/>
      <path class="st36" d="M111.7,174c-.1-.3-.6-.2-.6-.5.6.1,1.3,0,1.8.5h-1.1Z"/>
      <path class="st6" d="M84.7,174c.4-.3.9-.3,1.3,0h-1.3Z"/>
      <path class="st22" d="M87.8,173.8c.2,0,.5-.2.7.2h-.7c0,0-.1,0,0-.1,0,0,0,0,0,0Z"/>
      <path class="st0" d="M83.3,174c.2-.3.3-.3.4,0h-.4Z"/>
      <path class="st28" d="M87.8,173.8c0,0,0,.1,0,.2h-.4c0-.2.3-.2.5-.2Z"/>
      <path class="st26" d="M132.5,43.4c-1.6,1.9-3.4,3.6-4.7,5.7-.8,1.3-.7,1.9.5,2.8,11.6,8.7,18.3,20.3,20.5,34.6.5,3.2.2,6.4.2,9.6,0,.2,0,.4-.3.6-2.1,2.1-4.5,3.5-7.4,3.8-5.9.6-10.8-1.7-15.1-5.5-4-3.5-7.6-7.5-11.8-10.9-2.6-2.1-5.2-4.2-8.5-5-5.6-1.5-10.9-.8-15.8,2.5-2.6,1.8-4.9,3.9-7.2,6-3.3,2.9-6.2,6.5-9.9,9-2.4,1.7-4.9,3.2-7.9,3.6-4.3.6-8.6.5-12.1-2.7-.3-.2-.5-.4-.6-.7-.6-1.9-.5-3.9-.4-5.9.4-7.6,2.3-14.7,5.9-21.5,3.5-6.6,8.1-12.3,14.1-16.8,2.3-1.8,2.3-2.2.6-4.6-1.4-2-3.3-3.5-4.7-5.6.6-.3,1.1,0,1.6.3,2,.9,3.8,2.3,5.4,3.8.9.8,1.8,1.5,2.6,2.2.8.7,1.6.8,2.6.4,2.8-1.2,5.6-2.3,8.5-3,4.9-1.2,9.9-1.8,14.9-1.4,5.7.4,11.1,1.7,16.3,4,.4.2.8.3,1.1.5.9.4,1.6.2,2.4-.5,2.3-2,4.9-3.8,7.4-5.6.6-.4,1.2-.4,1.5.4Z"/>
      <path class="st18" d="M53.1,97.1c.9.6,1.7,1.3,2.7,1.7,4.1,1.9,8.4,1.6,12.5,0,4.4-1.7,7.5-5,10.8-8.1,3.4-3.2,6.7-6.4,10.5-9.2,6.4-4.7,15.6-4.7,22-.1,3.8,2.8,7.1,5.9,10.5,9.2,1.6,1.5,3.2,3,4.8,4.4,3.6,3.2,7.7,5,12.5,5.2,2.6.1,5-.5,7.2-2.1.7-.6,1.4-1.2,2.3-1.5,0,1.1-.3,2.2-.7,3.3-3.7,5.9-8.7,10.4-15.1,13.3-6.6,3-13.4,4.6-20.6,5.4-4.7.5-9.4.8-14.1.6-8.5-.3-17-1.2-25.1-4.1-5.5-1.9-10.5-4.6-14.7-8.6-2.3-2.2-4.4-4.7-5.5-7.8-.2-.5-.2-1-.3-1.5,0-.3.1-.4.4-.3Z"/>
      <path class="st29" d="M53.1,97.1c-.4.5-.1,1,0,1.5.6,2,2,3.5,3.2,5.1,3.8,5,9,8.1,14.8,10.4,5.2,2.1,10.6,3.4,16.2,4.1,2.9.3,5.8.5,8.7.7,2.4.2,4.8.2,7.2.1,7.8-.3,15.4-1,22.9-3.4,4.8-1.5,9.4-3.6,13.5-6.6,2.9-2.1,5.2-4.8,7.2-7.7.4-.5.8-1,1.4-1.4-1.5,6.4-5.3,11.2-10.6,14.9-5.7,3.9-12.1,6.1-18.8,7.4-13.2,2.5-26.3,2.4-39.4-.7-6.3-1.5-12.3-3.9-17.4-8.1-5.1-4.1-8.2-9.5-9.3-16,0-.3,0-.5,0-.8.2.2.4.3.6.5Z"/>
      <path class="st26" d="M91.7,154.3c0,3.9.1,7.7,0,11.6-.5.3-1.1.1-1.6,0-1-.2-2-.5-3-.7-2-.4-4-.2-6,.4-.4.2-.9.4-1.4.3-.1,0-.2-.2-.2-.3.7-.9.5-1.7,0-2.6-2.8-4.5-4.7-9.4-6.7-14.3-1.9-4.6-2.8-9.5-2.8-14.4,0-1.7.5-3.4.7-5,0-.4.2-.7.7-.7.9.3,1.7.6,2.6,1.1-.2,2.5.6,4.8,1.9,6.9,1.4,2.3,3.2,4.3,5,6.3,2.7,3.2,6,5.7,8.9,8.8.8.8,1.6,1.6,2,2.6Z"/>
      <path class="st26" d="M127.8,129.5c.7-.4,1.3-.8,2-.9.7-.2.7.4.8.7.5,2.4.8,4.8.7,7.3-.3,3.8-1,7.5-2.4,11.1-1.9,5.1-4,10.2-6.8,14.8-.5.9-.9,1.9-1.5,2.7-1.4.1-2.7-.3-4-.3-1.7,0-3.4.2-5,.8-.4.1-.8.3-1.2.2-.4-.2-.5-.6-.5-.9-.3-.9,0-1.8-.2-2.8v-.6c.2-.3,0-.6.2-.8,0-1.7,0-3.4,0-5.1,0-.1,0-.2,0-.4,0-.3,0-.5,0-.7.8-2.1,2.3-3.7,3.9-5.1,4.1-3.5,7.8-7.4,10.9-11.8,1.6-2.3,2.5-4.7,2.8-7.5,0-.3,0-.5.2-.6Z"/>
      <path class="st29" d="M84.7,132.8c2.8.3,5.6.6,8.3,1,.8.1.3.5.1.8-1.5,3.3-.9,7.1,1.5,9.6,2.7,2.8,7,3.3,10.5,1.3,3.2-1.9,4.7-5.8,3.6-9.7-.2-.6-.8-1.4-.5-1.8.3-.4,1.3-.2,1.9-.3,2.1-.3,4.2-.5,6.4-.8.5.7-.1,1.3-.4,1.8-.8,1.4-2,2.6-2.8,4-1.6,2.7-3,5.5-3.9,8.5-.1.4-.2.8-.5,1.2-.1.2-.2.6-.1.7-1.9-.3-2.3,0-2.4,2.1,0,3,0,6,0,9,0,.4,0,.7,0,1.1-1.2,1-2.7,1.1-4.1,1.3-2.1.3-4.2,0-6.3-.7-.4-.1-.8-.3-.9-.7,0-3.3,0-6.6-.1-9.9,0-2,0-2-2-2.4-.6-.7-.7-1.6-1-2.4-1.5-4-3.5-7.8-6.1-11.2-.5-.7-1.2-1.4-1-2.4Z"/>
      <path class="st18" d="M84.7,132.8c1,2.4,3,4.3,4.2,6.6,1.6,3,3.1,6.1,4,9.4-.9.6-1.2,1.5-1.2,2.6,0,1,.2,2,0,3-4.9-5.6-10.8-10.1-15.2-16.2-1.6-2.2-2.6-4.6-2.9-7.3,0-.4-.4-1,.3-1.2,3.3,1.2,6.7,2,10.1,2.9.2,0,.4.2.6.2Z"/>
      <path class="st18" d="M108.8,149c0-.2-.5-.2-.2-.7.8-1.3,1-2.8,1.6-4.2,1.4-3.2,3-6.2,5.2-8.9.5-.7,1.1-1.4,1.2-2.3,1.8-.5,3.7-.9,5.5-1.4,1.9-.6,3.8-1.2,5.8-1.8,0,3-1,5.6-2.6,8.1-2.5,3.7-5.5,7-8.7,9.9-2.4,2.2-4.8,4.2-6.5,7-.6-1.4-.2-2.8-.3-4.2,0-.6-.2-1.2-.8-1.4Z"/>
      <path class="st23" d="M120.7,165.1c-.2-.9.4-1.5.8-2.1,3.8-6.4,6.8-13.2,8.6-20.4,1.1-4.3,1.4-8.8.3-13.2,0-.4,0-.9-.6-.9.3-.2.5-.4.8-.5,2.9-1.5,2.4-1.9,3.8,1.3,1.7,3.8,1.5,7.8.8,11.8-1,5.5-3.2,10.5-5.5,15.6-1.6,3.6-3.5,7.1-6,10.2-.6,0-.9-.6-1.4-.8-.6-.3-1.3-.5-1.6-1.1Z"/>
      <path class="st23" d="M71.4,128.5c-.2.1-.4.3-.5.6-.3,2.9-.9,5.7-.5,8.6.5,3.8,1.1,7.5,2.6,11,2.2,5,4.2,10.1,7,14.7.6.9.4,1.6-.5,2.1-1,.9-1.9.4-2.9,0-.8-.9-1.5-2-2.1-3.1-3.3-6.1-6.3-12.3-7.9-19.1-1-4.3-1.6-8.6-.1-12.9.3-.9.7-1.8,1.1-2.6.4-.8.9-1.1,1.7-.6.7.4,1.4.8,2,1.2Z"/>
      <path class="st23" d="M127.4,167.8c3.6-5.3,6.1-11,8.4-16.8.7-1.7,1.2-3.6,1.8-5.3.1-.3,0-.8.5-.9.5-.1.8.2,1.1.6,1.8,2,2.7,4.5,2.8,7.2.3,4.1-1,7.9-2.8,11.5-1.1,2.4-3.3,3.5-5.8,3.8-2,.2-4,0-6.1,0Z"/>
      <path class="st23" d="M73.7,167.8c-2.5,0-5,.3-7.5-.4-1.8-.6-3.3-1.7-4.1-3.4-1.7-3.6-2.9-7.3-2.7-11.4.1-2.5,1-4.7,2.5-6.7.2-.2.4-.5.6-.6.8-.7,1.1-.6,1.4.4,1.7,6.2,4.4,12.1,7.4,17.8.8,1.4,2,2.6,2.4,4.4Z"/>
      <path class="st7" d="M144.6,64.8c-2.5-3.8-5.2-7.5-8.5-10.7-1.4-1.3-2.8-2.6-4.3-3.8-.4-.3-.5-.6-.1-1,2.9-3.5,6.2-6.6,10.1-9,1.4,3.1,2.2,6.3,2.7,9.6.7,4.3.8,8.6.7,12.9,0,.7,0,1.4-.6,1.9Z"/>
      <path class="st7" d="M59.9,40.6c3.7,2.2,7,5,9.6,8.5.5.6.5.9-.2,1.5-4,3.4-7.6,7.2-10.8,11.3-.3,0-.4.4-.7.6-.2.2-.3.4-.5.6-.4.3-.7.2-.8-.3,0-.2,0-.4,0-.5,0-4.4-.3-8.8.6-13.1.6-3,1.4-5.9,2.8-8.5Z"/>
      <path class="st24" d="M132.5,43.4c-.6-.5-1-.5-1.7,0-2.6,2-5.4,3.8-7.7,6-.4.4-.9.3-1.3.1-1.8-.7-3.7-1.5-5.6-2.1-6.3-2.3-12.9-3.1-19.6-2.5-5.1.5-10.1,1.5-14.8,3.8-2.3,1.1-3.8.9-5.7-.8-1.9-1.9-4-3.7-6.5-4.9-.5-.3-1.1-.4-1.6-.6-1.9-1.4-3.7-2.8-5.6-4.2,0-.6.4-.3.7-.3,2.4.7,4.4,2,6.5,3.3,2.7,1.8,5.2,3.8,7.6,6,.9.8,1.8.9,2.8.4,10.7-5.1,21.8-5.9,33.2-3,2.7.7,5.3,1.7,7.8,2.9,1.2.6,2.1.5,3.1-.4,3.3-2.9,6.8-5.7,10.7-7.8,1.3-.7,2.6-1.3,4-1.6.3-.1.5-.2.5.2-2.5,1.6-4.7,3.4-6.8,5.4Z"/>
      <path class="st23" d="M47.7,127.5c.1-.5.2-1,.4-1.5.1-.3,0-.8.5-.8s.6.4.7.8c.8,1.9,1.7,3.8,3,5.5,2.5,3.4,5.8,5.9,9.5,7.8.4.2.9.4.9,1,0,.7-.3,1-.8,1.3-1.5.9-2.7,2.1-3.6,3.6-.2.3-.2.7-.6.7-1.4-.4-2.5-1.5-3.5-2.5-2.7-2.6-4.7-5.7-5.7-9.4-.4-1.9-.9-3.7-.9-5.6,0-.3.1-.6,0-.9Z"/>
      <path class="st38" d="M59.9,40.6c.1.3.2.6,0,.9-1.6,2.7-2.1,5.7-2.7,8.7-.8,4.2-.3,8.5-.5,12.9.7-.1.9-.8,1.4-1,.1.1.1.3,0,.4-1.3,2.4-2.6,4.8-4.1,7.4-.5-1.3-.6-2.3-.7-3.4-.7-7.7-.6-15.4,1.7-22.9.4-1.3,1-2.5,1.5-3.8.4-.9.8-1,1.6-.5.6.4,1.2.7,1.7,1.2Z"/>
      <path class="st38" d="M144.6,64.8c.6-7.6.1-15.1-2.4-22.4-.2-.7-.8-1.3-.5-2.1,0,0,.2-.2.3-.2,2.3-1.5,2.4-1.4,3.5,1.1,1.6,3.8,2.4,7.8,2.7,11.9.3,3.5.5,6.9.2,10.4-.2,2-.4,4-1,6.3-1-1.8-1.9-3.4-2.7-5.1Z"/>
      <path class="st7" d="M95.3,128.9c0,.3,0,.5,0,.8.1.7-.2.9-.9.9-2.6,0-5.2-.6-7.8-1-4.5-.7-8.9-2-13.1-3.8-.8-.3-1.6-.8-2.4-1.2-.3-.2-.7-.3-.7-.8,0-.5-.1-1.2.1-1.5.4-.3.8.3,1.2.5.7.4,1.5.8,2.4.8.7,0,1.3.2,1.9.4,3.1,1.2,6.5,1.7,9.8,2.2,2.7.4,5.5.6,8.2.7,1.1,0,1.3.5,1.2,1.4,0,.2,0,.3,0,.5t0,0Z"/>
      <path class="st23" d="M95,161c3.3,1.5,6.7,1.6,10.2.5.4-.1.8-.2,1.2-.4,0,2,.6,4.1-.2,6.1-.1.4-.1.6-.5.6h-10.2c-.5,0-.7-.2-.6-.7,0-2.1.1-4.1.1-6.2Z"/>
      <path class="st27" d="M99.2,143.2c-1.9-.5-3.6-2.6-3.7-4.7-.1-2.2,1.3-4.3,3.4-5,2.2-.8,4.5-.2,5.8,1.5-.1.9-.3,1.7-.3,2.6,0,2.7-2.5,5.4-5.2,5.6Z"/>
      <path class="st7" d="M120.5,125.5c2.9-.6,5.8-1.4,8.6-2.5.2,0,.5-.2.7-.2.4,0,1-.5,1.2.1.2.6.4,1.4-.5,1.8-4,1.9-8.2,3.4-12.5,4.3-2.3.5-4.7,1-7.1,1.2-1,.1-2,.5-3,.5-.7,0-1.5,0-1.9-.7-.2-.5.5-1.9,1.2-2.3.5-.3,1.1-.4,1.7-.5,2.4-.4,4.9-.5,7.3-.9,1.4-.3,2.8-.5,4.3-.8Z"/>
      <path class="st29" d="M48.8,134.1c1.5,5,4.7,8.8,8.9,11.8-.4,1.3-.8,2.5-1.2,3.8-.2.7-.4.7-.9.3-4.9-3.6-7.8-8.4-8.6-14.5-.3-2-.2-4,.3-6,.6,0,.6.6.6,1,.1.9.4,1.8.3,2.8,0,.4.2.8.6.8Z"/>
      <path class="st18" d="M120.7,165.1c.6.3,1.2.6,1.8.9-.3.7-.9.3-1.3.2-.9-.3-1.4,0-2,.6-.8,1-1.8,1.9-2.8,2.9.5.4,1.3,0,1.8.8-2.2,0-4.1.1-6.1-.1-1.6-.7-2.3-2-2.2-4,.2-.2-.1-.7.4-.6,1.9-.5,3.9-1.2,5.9-1.2,1.5,0,3,.2,4.5.5Z"/>
      <path class="st18" d="M91.1,168.7c-.4.9-.9,1.6-2,1.8-1.1.1-2.3.4-3.3-.2-1.5-1-2.9-2.2-3.8-3.9-.4-.7-.1-1,.7-1.2,2.6-.5,5.1.1,7.6.9,1.3.4,1.4.6,1,2,0,.2,0,.4-.1.6Z"/>
      <path class="st37" d="M91.1,168.7q.1-2-2-2.7c-2.1-.7-4.3-.9-6.5-.6-.6,0-.7.3-.4.8,1,1.8,2.5,3.1,4.2,4.1.8.5,1.8,0,2.7.2-5.4.7-8.5.4-11.3-3.4-.3-.6.2-.8.5-.9.4-.2.8-.4,1.2-.4,3.3-1.3,6.7-1.4,10-.3.7.2,1.4.3,2,.4,0,1,0,1.9-.6,2.8Z"/>
      <path class="st29" d="M112.1,170.4h5.7c-.5-.3-1.1-.2-1.6-.2-.2,0-.4,0-.5-.2s0-.4.2-.5c1.4-1,2.5-2.3,3.6-3.6.3-.4.7-.3,1.1-.2.6.2,1.2.6,1.9.3.5.2.9.6,1.2,1-2,2.5-4.5,3.9-7.8,3.6-1.3-.1-2.6.2-3.8-.3Z"/>
      <path class="st19" d="M99.2,143.2c1.6-.5,3.1-1.4,4-2.9.6-1,1-2,.9-3.2,0-.7-.2-1.6.5-2.1,1.5,1.9,1.6,4.3.3,6.2-1.2,1.8-3.5,2.6-5.8,2Z"/>
      <path class="st9" d="M120.5,125.5c-1.9.9-4,1-6.1,1.3-2.2.3-4.3.4-6.4.8-1.2.2-1.5,1.1-1.8,2-.2.6.3.5.6.6,1,.2,2,.2,3,0,.4,0,.8-.2,1.2,0-1.5.4-2.8,1.2-4.5.7-.9-.3-1.2-.8-1-1.6,0,0,0,0,0-.1.3-2.2.5-2.4,2.8-2.5,3.5,0,6.9-.5,10.4-1.1.6-.1,1.3,0,1.9,0Z"/>
      <path class="st31" d="M100.7,129.8h-.2c-1.8,0-1.7,0-1.7-1.7,0-.7.2-1.1,1-1,.6,0,1.2,0,1.8,0,1,0,1.4.4,1.3,1.5,0,.9-.2,1.5-1.3,1.2-.3,0-.6,0-.9,0Z"/>
      <path class="st20" d="M48.8,134.1c0,.2,0,.5-.4.2-.4-.3-.7-.5-.6-1,.2-1.3,0-2.6-.6-3.8-.1-.5,0-.9.2-1.4.1-.1.3-.1.4,0,.2,2,.6,4,1,5.9Z"/>
      <path class="st11" d="M79.6,165.8c-.5.5-1.6.3-1.7,1.3-.5-.4-.8-.9-1.2-1.5,1,0,1.9.5,2.9,0v.2Z"/>
      <path class="st3" d="M109.9,160.9c0,.3,0,.5-.2.7.1-2.1-.2-4.2.2-6.3,0,0,0,0,0,.1,0,1.8.1,3.7,0,5.5Z"/>
      <path class="st1" d="M109.7,162.2c.5.9,0,1.8.4,2.7-.1.2,0,.5-.2.6-.4-1.1-.3-2.2-.2-3.4Z"/>
      <path class="st17" d="M109.9,165.6c0-.2,0-.5.2-.6.1.3.2.6.3.8-.2.2-.3.4-.4.6,0-.3,0-.6,0-.8Z"/>
      <path class="st10" d="M63.2,38c-.3,0-.6,0-.7.3-.2-.1-.4-.2-.6-.3.2-.5.5-.3.8-.2.2,0,.3.1.5.2Z"/>
      <path class="st5" d="M62.7,37.8c-.3,0-.6-.1-.8.2-.2-.1-.6-.2-.1-.4.3-.1.7,0,1,.2Z"/>
      <path class="st8" d="M47.8,128.1c-.1,0-.3,0-.4,0,0-.3.1-.4.2-.7.2.2.2.5.1.7Z"/>
      <path class="st35" d="M58.1,62.5v-.4c.1-.2.2-.5.5-.2-.1.2-.2.5-.5.6Z"/>
      <path class="st12" d="M139.3,38c0-.2-.3-.2-.5-.2.2-.2.5-.3.8-.1.1.1-.1.3-.3.3Z"/>
      <path class="st21" d="M127.4,85.4c-1.7,0-3.1-.1-4.5-.6-3.9-1.3-5.2-4.6-3.3-8.2,1.7-3.2,5.5-4.6,9-3.4,3.4,1.2,5.4,4.6,4.7,8.2-.4,2.2-1.8,3.5-4.1,3.9-.7.1-1.5.1-1.9.2Z"/>
      <path class="st21" d="M74.1,85.4c-.7,0-1.5,0-2.3-.2-2.9-.7-4.3-3.1-3.7-6.7.6-3.8,4.5-6.4,8.3-5.7,4,.7,6.7,4.3,6,8.2-.2,1.5-1.2,2.4-2.4,3.1-1.5.9-3.2,1.3-6,1.3Z"/>
      <path class="st18" d="M81.6,60.4c3.2-.3,5.7,3.7,4.3,6.9-.3.8-1,1.3-1.8,1.6-2.2.8-4.5.9-6.6-.3-2.2-1.2-2.7-3.7-1.2-5.6,1.3-1.6,3-2.7,5.3-2.6Z"/>
      <path class="st18" d="M120.1,69.4c-.5,0-.9,0-1.4-.2-3.9-.6-4.3-4-2.9-6.6,1.6-2.9,5-2.8,7.6-1.2.3.2.6.5.9.8,1.1,1.1,2,2.3,1.5,4-.5,1.6-1.8,2.5-3.5,2.9-.7.2-1.5.2-2.2.3Z"/>
      <path class="st21" d="M92.2,87.8c0-2.3.8-3.8,3-4.7,3.6-1.5,7.2-1.5,10.8-.1,1.5.6,2.9,1.5,3.3,3.3.3,1.2.1,2.3-.3,3.3-1,2.3-2.7,3.9-5,4.9-.3.1-.6.1-.7.4.3.6,1.2.6,1.5,1.3,2.8,1.8,4.7,1.5,6.8-1.1.7-.8,1.2-1.8,1.7-2.7.5-.9,1.2-1,2.1-.6.8.4,1.2.9.8,1.9-1,2.4-2.4,4.6-4.8,5.9-.8.4-1.1,1-1.3,1.9-.6,3.3-1.9,6.2-4.6,8.3-2.9,2.3-6.7,2.3-9.5-.2-2.7-2.3-3.9-5.3-4.6-8.6-.1-.7-.4-1.1-1-1.5-2.2-1.4-3.7-3.4-4.6-5.8-.4-1-.1-1.7.8-2.1,1-.4,1.6-.2,2.1.8.4.9.9,1.7,1.6,2.5,2,2.6,4,2.9,6.8,1.1.3-.7,1.1-.7,1.5-1.3-1.1-.5-2.1-1-3-1.8-1.1-.9-2-1.9-2.6-3.1-.3-.7-.5-1.4-.5-2.2Z"/>
      <path class="st37" d="M104.6,96.2c-.8-.4-1.5-.8-2.2-1.4,3.9-1.6,6.7-4,6.8-8.6,1.2,2.8.2,6.5-2.3,8.4-.7.6-1.7.8-2.3,1.6Z"/>
      <path class="st25" d="M92.2,87.8c.9,3.6,3.4,5.7,6.8,7-.7.6-1.4,1-2.2,1.4-.8-.6-1.5-1.1-2.3-1.7-1.5-1-2.3-2.6-2.8-4.3-.2-.8.2-1.6.4-2.5Z"/>
      <path class="st32" d="M109.9,160.9c0-1.8,0-3.7,0-5.5.2,1.8.3,3.7,0,5.5Z"/>
      <path class="st4" d="M127.5,77.4c0,1.3-.9,2.4-2.1,2.4-1.4,0-2.4-.9-2.5-2.4,0-1.2,1-2.3,2.3-2.4,1.1,0,2.2,1.2,2.3,2.3Z"/>
      <path class="st4" d="M78.5,77.5c0,1.4-.9,2.3-2.3,2.3-1.4,0-2.2-.8-2.1-2.4,0-1.2.9-2.2,2.1-2.2,1.4,0,2.4.9,2.4,2.4Z"/>
      <path class="st2" d="M100.8,88.3c-1.4-.2-2.8-.2-4.1-.9-.6-.3-1.2-.8-1.2-1.5,0-.7.6-1.3,1.3-1.5,2.6-1,5.1-1,7.7,0,.7.3,1.3.7,1.4,1.5,0,.8-.6,1.2-1.2,1.6-1.2.7-2.6.8-3.9.9Z"/>
      <path class="st30" d="M104.8,105.4c-.1.2-.2.4-.4.5-2.7,3.3-5.4,3.1-8-.4.2-.4.6-.6,1-.7,2.4-.7,4.7-.5,7.1.2.1,0,.2.2.3.3Z"/>
      <path class="st34" d="M104.8,105.4c-2.3-.5-4.7-.9-7-.3-.5.1-.9.3-1.3.5-.8-1-.8-1,.4-1.4,2.5-.8,5-.8,7.6,0,.9.3,1.1.6.4,1.3Z"/>
    </g>
  </g>
</svg>