<svg xmlns="http://www.w3.org/2000/svg" xmlns:xlink="http://www.w3.org/1999/xlink" viewBox="0 0 300 300"><defs><radialGradient id="a" cx="15.9%" cy="10.9%" r="97.2%" fx="15.9%" fy="10.9%"><stop offset="0%" stop-color="#FFF" stop-opacity=".1"/><stop offset="100%" stop-color="#FFF" stop-opacity="0"/></radialGradient><filter id="c" width="125.4%" height="148.4%" x="-13%" y="-18%" filterUnits="objectBoundingBox"><feOffset dy="6" in="SourceAlpha" result="shadowOffsetOuter1"/><feGaussianBlur in="shadowOffsetOuter1" result="shadowBlurOuter1" stdDeviation="6.5"/><feColorMatrix in="shadowBlurOuter1" values="0 0 0 0 0 0 0 0 0 0 0 0 0 0 0 0 0 0 0.248131793 0"/></filter><path id="b" d="M127 92c-55 7-81-42-77-47 3-3 8-3 12-3 19-1 45 21 51 21 10 0 26-17 36-30 4-6 31-14 28 1-10 48-43 57-50 58ZM50 1c55-7 81 42 77 47-3 3-8 3-12 3-19 1-45-21-51-21-10 0-25 17-36 30-4 6-31 14-28-1C10 11 43 2 50 1Z"/></defs><g fill="none" fill-rule="evenodd"><rect width="300" height="300" fill="#FBDD11" rx="150"/><path fill="#E8C900" d="M300 150a150 150 0 0 1-300 0v-1a150 150 0 0 0 300 0v1Z"/><path fill="#FFEF7F" d="M300 152a150 150 0 0 0-300 0v-2a150 150 0 0 1 300 0v2Z"/><rect width="270" height="270" x="15" y="15" fill="#2A2A2E" rx="135"/><rect width="300" height="300" fill="url(#a)" rx="150"/><g transform="translate(62 104)"><use xlink:href="#b" fill="#000" filter="url(#c)"/><use xlink:href="#b" fill="#FBDD11"/></g><path fill="#FFEF7F" d="M189 151c-2-12-28-50-78-44-7 1-39 10-49 59v1a10 10 0 0 1 0-4c10-48 42-58 49-59 54-6 80 39 78 47Zm-77 1v-3c3-3 8-3 12-3 19-1 45 21 50 21 11 0 26-17 37-30 4-6 29-14 28-1-2-10-25-2-28 3-11 14-26 30-37 30-5 0-31-21-50-21-4 0-9 0-12 4Z"/><path fill="#E8C900" d="m189 148-1 3c-3 4-7 4-11 4-19 0-45-21-51-21-10 0-26 16-36 30-4 5-30 14-28 0 1 10 24 3 28-2 10-14 26-31 36-31 6 0 32 22 51 21 4 0 8 0 11-3l1-1Zm-77 2c2 12 28 50 77 44 7-1 40-11 50-59v-1 3c-10 49-43 58-50 59-54 7-79-38-77-46Z"/></g></svg>