<svg xmlns="http://www.w3.org/2000/svg" fill="none" viewBox="0 0 123 93"><path fill="#0F0F19" d="M12.6 45.9A148 148 0 0 0 3.2 72s31.1-3 51.7 20.5c0 0 15.7-7.1 38.5.3 0 0 12.9-16.2 29-16.5 0 0-2.8-13-12.6-23.7 2.1-4.9 3.2-11.2 3.2-11.2s-1.7-4.6-12-14.1c-.3-17-10.2-25.4-10.2-25.4S80.8 6 75 15c0 0-10.3.2-18.7 2.6l-6.2.3S46.2 10.1 32 5.4c0 0-11 3-12.1 27.5 0 0-6-1.4-10.8 13h3.6Z"/><path fill="#5F5F68" d="M64.3 21.3c-28.2 0-40.2 18-40.2 18 1.8-.6 3.6-.7 5.4-.5 0 0-10.5 10.6-15.7 25 0 0 13-1.6 23.8 5.3-2.7-22.5 18-30.5 25.5-25.2-1-3-4.7-7.7-14.2-5.7 8.5-8.8 25.3-5 33.9 5.6a22 22 0 0 0 1.1-5.1s5 2.5 6.3 6.7c.3-2.7 2.5-6 2.5-6s1.9 2.3 3.1 6.5a8.4 8.4 0 0 1 7.9-3.4S92.5 21.3 64.3 21.3Z"/><path fill="#fff" d="M49 38.2c-12.2 3.4-19.8 12.4-22.8 26.4 4 .8 7.9 2.3 11.3 4.5-2.6-22.5 18-30.5 25.6-25.2-1-3-4.7-7.8-14.2-5.7Z"/><path fill="#636363" d="M77 22.8a33 33 0 0 1 19.7 17.8l3 2.3c1.3-.4 2.7-.6 4-.4 0 0-7.8-14.7-26.6-19.7Z"/><path fill="#5F5F68" d="M49.7 26.7a39 39 0 0 0-16.9-14s-7.4 5.3-5.5 17.5c1.3-6.9 5.3-10.3 5.3-10.3s4.7 3.5 6.7 10.6c2 7.2 10.4-3.8 10.4-3.8Z"/><path fill="#fff" d="M97.5 49.7c1.5-3.5 4.4-3.6 4.4-3.6-.3 2.2-1 4.3-2 6.2-.6-1-1.4-1.9-2.4-2.6Zm-29.7 3.7c16.5 3 18.1 22.1 27.6 22.1 5.8 0 7.9-3.4 7.9-3.4a6 6 0 0 1-6.6-5c-.2-2.2.3-5 .3-5s5 .2 7.2 1.9c2-1.2 4.6-1.4 4.6-1.4s-2.7-4.3-9.8-6.4c-1 2-3.2 4-3.2 4s-4.5-7.1-15.3-9.7c.8 1.5 1.3 3 1.4 4.6 0 0-5-4-14-1.7Z"/><path fill="#fff" d="M67.2 62.3c-2-2.2-1.5-4.3-1.5-4.3s1-1 3.8-1c6 0 11.3 10.7 16 15.1-6.8-2.4-19 4.8-21.4-8.5 2.1 3.7 5 3.8 5 3.8-.3-1-.5-2-.3-3.1 1.8 2 5.5 2 5.5 2-3.8-2.7-5.4-7.5-5.4-7.5a6.6 6.6 0 0 0-1.7 3.5Z"/><path fill="#fff" d="M65.6 54.3c-9.3 3-3.9 22 8.7 20.6 12.6-1.5 18 2.3 20.2 8a21.7 21.7 0 0 0-11.7-3.4 7 7 0 0 1 4 5 12.1 12.1 0 0 0-8.4-3.3c-6.7 0-13.6 2.5-19.4 0-6.2-8.4-3.6-16.6-3.6-16.6C52.7 66 52 69 52 69s-1.8-15 13.5-14.8Z"/><path fill="#5F5F68" d="M94.5 83c-13.2-16-34.7 6.8-39.1-18.4 0 0-2.6 8.2 3.6 16.6 5.8 2.5 12.7 0 19.4 0 3.2 0 6.2 1.1 8.5 3.3a7 7 0 0 0-4-5c4 0 8.1 1.2 11.6 3.5Z"/><path fill="#fff" d="M66.4 39.2c2.2 5.1 4.8 8 4.8 8s3.1.5 6-.8c0 0-3-5.3-10.8-7.2Z"/><path fill="#ED1D49" d="M74.4 22.2c7.5 3.2 12.2 7 15 16l4.5 1c1.8 3.2 8.3 3.1 9.8 3.3 0 0-8.6-16.4-29.3-20.3Zm8.5-5.2c2.7-4.9 6.2-5.8 6.2-5.8s4.6 5.6 5 15a33 33 0 0 0-9-4.9c1.7-.2 3.5 0 5.2.6-.2-2.8-1.2-5.5-2.9-7.8 0 0-1.7.4-4.5 2.8Zm21.4 53a18 18 0 0 0 4-5.1c-1.2.2-2.2.5-3.2 1-.5 1.3-.8 2.7-.8 4.1Z"/><path fill="#ED1D49" d="m90.8.1-1.3.6A39.3 39.3 0 0 0 76.9 10L75 11.9l-.8 1s-12.4 0-18 4.6c9-2 19.7 0 19.7 0l.8-1.1.3-.5.4-.4.8-1a41.8 41.8 0 0 1 11.6-9.4 30.5 30.5 0 0 1 7.7 16 33.7 33.7 0 0 1 .6 5.5v1.9l1 .7v.1l.3.2.4.3a22.9 22.9 0 0 1 2.4 2 28.6 28.6 0 0 1 5.1 6.9c.6 1 1 2.2 1.5 3.4a47.7 47.7 0 0 1-3 9l-.2.7-.3.6-.8 1.7 1.6 1c1.7 1 3.2 2.3 4.7 3.7l1 1 1 1.2a23 23 0 0 1 5.3 12.2 42.6 42.6 0 0 0-16.9 12.2 37.4 37.4 0 0 1 9.4-5.8 42.4 42.4 0 0 1 10.1-3l1.6-.3v-2.7a23.4 23.4 0 0 0-1.3-6 27.7 27.7 0 0 0-5-9.2l-1-1.4-1.2-1.3a32.7 32.7 0 0 0-4-3.2 27.7 27.7 0 0 0 1.6-4.2 55 55 0 0 0 1.6-6l.1-.5-.1-.6a28 28 0 0 0-7.8-12.4 30.8 30.8 0 0 0-2.8-2.4l-.1-.8a35.5 35.5 0 0 0-2.6-12.4 42.3 42.3 0 0 0-3.3-6.5A42.7 42.7 0 0 0 90.8.1Z"/><path fill="#fff" d="m103.5 42.2-.2-.5.2.5Zm.1.1v-.1.1Zm0 .1v-.1Zm.1.1v-.1.1ZM94 41.3c.7 1.4 1.3 3 1.8 4.6a8.4 8.4 0 0 1 8-3.4c-4.3-2.8-8.1-2-9.9-1.2Zm-10-2.6a31 31 0 0 0-46.7.3c2.4-1.5 6.7-2.3 11.6-.8 8.5-8.8 25.3-5 33.8 5.6a22 22 0 0 0 1.2-5.1Z"/><path fill="#0F0F19" d="M49.8 87.3a62.1 62.1 0 0 0-18.3-11.5 78.2 78.2 0 0 0-25.9-6.2 63.7 63.7 0 0 1 9.7-21.8l.4-.7.5-.7 2.9-3.6-4.6.3-2.1.2a36 36 0 0 1 5.6-6 70 70 0 0 1 3-2.7l.9-.7v-3a53.2 53.2 0 0 1 2.4-13.6 30.2 30.2 0 0 1 7.6-11.9 59.8 59.8 0 0 1 13.4 7.8 39.4 39.4 0 0 1 3.1 2.7l.5.5.2.2.2.2.8 1C43 5.3 31.1.8 31.1.8l-.8.6A27.3 27.3 0 0 0 24.2 8a35.4 35.4 0 0 0-3.8 8 50 50 0 0 0-2.6 14.8V32a32.8 32.8 0 0 0-2.6 2.2 65.1 65.1 0 0 0-6 6.6 18 18 0 0 0-2.5 4l-1.5 3.1 3.5-.2 1.8-.2a77 77 0 0 0-9.4 23.6l-.5 2.4H3a85.4 85.4 0 0 1 27.7 4.3 69.2 69.2 0 0 1 18.7 9.9c2 1.4 3.7 3 5.4 4.8a43.1 43.1 0 0 0-5-5.2Z"/><path fill="#fff" d="M90.1 33c.2 1.8 0 3.5-.6 5.1-2.3-3.7-8.4-7.8-8.4-7.8s.4 5.8-1.1 9.9l3 2.9c.5-1.4.8-3 1-4.4 2.7 1.5 4.8 3.9 6.2 6.7 2-2.5 2.5-6 2.5-6 1 1.4 1.9 3 2.5 4.7l2.7-1.4c-2.1-6-7.8-9.6-7.8-9.6Z"/></svg>