<svg xmlns="http://www.w3.org/2000/svg" viewBox="0 0 32 32"><g fill="none" fill-rule="evenodd"><circle cx="16" cy="16" r="16" fill="#8dc351"/><path fill="#fff" fill-rule="nonzero" d="M21.2 10.53c-.77-1.97-2.71-2.15-4.98-1.7L15.42 6l-1.72.5.79 2.73-1.37.41-.79-2.76-1.7.5.8 2.8-1.09.34v-.01l-2.36.67.52 1.83s1.26-.39 1.25-.36c.69-.2 1.03.14 1.2.47l.92 3.2.18-.03-.18.05 1.29 4.49c.03.23 0 .61-.48.75.02.01-1.25.36-1.25.36l.25 2.14 2.22-.64 1.23-.34.82 2.84 1.7-.49-.8-2.81a65.74 65.74 0 0 0 1.37-.38l.8 2.8 1.72-.49-.82-2.84c2.83-.99 4.64-2.3 4.12-5.07-.43-2.23-1.73-2.91-3.47-2.83.84-.8 1.2-1.86.64-3.3zm-.64 6.77c.6 2.13-3.1 2.93-4.26 3.27l-1.08-3.77c1.16-.34 4.7-1.71 5.34.5zm-2.32-5.09c.55 1.94-2.55 2.58-3.52 2.86l-.98-3.42c.97-.27 3.92-1.45 4.5.57z"/></g></svg>