<svg xmlns="http://www.w3.org/2000/svg" viewBox="0 0 32 32"><g fill="none" fill-rule="evenodd"><circle cx="16" cy="16" r="16" fill="#F7931A"/><path fill="#FFF" fill-rule="nonzero" d="M23.19 14.02c.31-2.1-1.28-3.22-3.47-3.98l.71-2.83-1.73-.43-.69 2.76-1.38-.33.7-2.78L15.6 6l-.71 2.84-1.1-.26v-.01l-2.39-.6-.46 1.85s1.28.3 1.26.31c.7.18.82.64.8 1l-.8 3.24.18.06-.19-.04-1.13 4.53c-.08.21-.3.53-.79.4.02.03-1.25-.3-1.25-.3l-.86 1.97 2.25.56 1.23.32-.72 2.87 1.73.43.7-2.84 1.39.36-.71 2.83 1.73.43.71-2.87c2.95.56 5.17.34 6.1-2.33.75-2.15-.04-3.38-1.59-4.2 1.13-.25 1.98-1 2.2-2.53zm-3.95 5.54c-.53 2.15-4.15.98-5.32.7l.95-3.81c1.17.3 4.93.87 4.37 3.1zm.53-5.57c-.48 1.95-3.5.96-4.47.72l.86-3.45c.98.24 4.12.7 3.61 2.73z"/></g></svg>