<svg xmlns="http://www.w3.org/2000/svg" viewBox="0 0 194.8 194.8"><path d="M192.8 77.8a97 97 0 0 0-57.6-70.2A97 97 0 0 0 1.9 77.9a98.7 98.7 0 0 0 5.7 57.5 98.8 98.8 0 0 0 35.3 42.9A102.2 102.2 0 0 0 77.8 193a98.7 98.7 0 0 0 57.5-5.7 98.8 98.8 0 0 0 42.9-35.3 102.2 102.2 0 0 0 14.7-34.9 98.7 98.7 0 0 0-.1-39.3zM97.4 182.6a85.2 85.2 0 1 1 0-170.4 85.2 85.2 0 0 1 0 170.4z"/><path d="M98.9 175.3h2.3l1.2-.1h.1l1.1-.1h.3l.9-.1h.3l1-.1h.2l1.2-.1 1.1-.2h.2l.9-.1h.2l1.1-.2 2.3-.5h.2l1-.2h.1l2.3-.6c-9.6.3-17.4-1-22.3-2.1a70 70 0 0 1-30.4-14.1A61.6 61.6 0 0 1 42 108.9a58.2 58.2 0 0 1 13.7-37.2 59.4 59.4 0 0 1 44.2-21h2.3V37.4h-2.6a75 75 0 0 0-29.4 6.7 73.7 73.7 0 0 0-33 31.3 70.3 70.3 0 0 0-8.2 27.2l-.3 4.4v2.6a75 75 0 0 0 6.7 29.4c2.5 5.5 7 13.6 13.7 19.7a77.3 77.3 0 0 0 48 16.6h1.8z"/><path d="M120.7 162.4c-4.6-.1-10.3-.8-14.7-1.6-20.6-3.7-38.3-16.3-44.8-35.3a43.5 43.5 0 0 1 58-54.5l5.6-11.9-5.1-1.9a59 59 0 0 0-35.4.2 55.6 55.6 0 0 0-36.7 39 56.4 56.4 0 0 0 13.2 53.2 64.4 64.4 0 0 0 17.5 13 78.4 78.4 0 0 0 25.4 7.1c6 .8 14 1 18.7 1l8-3.1c1.9-.9 3.8-1.8 5.7-2.9l5.4-3.4.8-.6c-11 2-13.8 1.9-21.6 1.7z"/><path d="M145.3 147.6c-3.1.2-7.5.5-12.5.5-8.9 0-19.8-.8-29.1-3.9-14.4-4.8-28-17.1-28-32.3A27.4 27.4 0 0 1 127 98.5l11.9-5.9a40.2 40.2 0 0 0-51.6-18.2 40.2 40.2 0 0 0-24.8 37.4A40 40 0 0 0 66 128c2.1 4.6 5 8.9 8.7 12.9a61 61 0 0 0 24.9 15.8 100.3 100.3 0 0 0 46.4 1.6 75 75 0 0 0 12-11.9l-12.7 1.2z"/></svg>