<svg xmlns="http://www.w3.org/2000/svg" viewBox="0 0 2000 1848"><path fill="#2a63d5" d="M975 5c44-22 97 30 74 74-13 36-64 45-90 18-28-26-19-77 16-92M507 56c26-11 60 13 57 42 3 32-36 55-63 40-35-14-31-72 6-82m960 83c-42-5-48-70-8-84 31-15 59 14 64 43-7 25-28 48-56 41M613 256c45-28 108 13 101 65-2 52-71 82-110 47-38-28-32-91 9-112m676 29c20-51 100-52 122-3 23 39-5 87-44 100-53 10-103-47-78-97m-370 94c0-44 39-76 81-79 28 5 58 17 69 45 23 38 3 91-37 109-18 10-40 6-59 5-31-15-56-44-54-80m-697 64c40-25 95 20 79 64-8 38-59 54-88 29-31-22-26-77 9-93m1497 0c34-27 91 3 87 47 2 39-47 69-81 49-37-17-41-75-6-96m-604 78a135 135 0 0 1 110 246c-68 42-168 6-194-70-28-69 14-154 84-176m-332 7c63-30 147-5 177 59a135 135 0 1 1-240 124c-35-65-4-153 63-183M450 642c5-41 43-67 82-70 41 5 74 37 79 79-3 42-35 83-79 82-49 4-91-44-82-91m983-61c49-29 118 13 116 70 4 61-73 103-122 68-52-30-48-113 6-138M648 794a135 135 0 0 1 123 233c-62 58-177 35-210-44-38-73 8-170 87-189m630 0c56-16 123 6 153 57 40 59 21 147-39 185-62 44-159 21-194-48-42-71 0-172 80-194M274 861c50-19 106 37 85 86-12 46-76 63-109 29-39-31-24-101 24-115m1361 72c-1-41 29-78 72-80 34 5 68 33 65 70 3 50-56 83-99 60-19-10-29-30-38-50M27 886c30-14 67 13 60 46-1 38-57 53-78 21-18-22-7-56 18-67zm1905-1c21-15 56-4 64 20 14 28-12 65-42 60-43 4-57-61-22-80M812 1067c79-20 165 46 165 128a135 135 0 1 1-165-128m315 0c80-22 168 45 167 129 4 81-77 152-157 136a135 135 0 0 1-10-265m-607 51c55-10 108 52 85 105-16 57-99 72-135 26-43-44-11-125 50-131m923 2c50-21 111 22 107 76 2 60-73 101-122 66-55-31-45-123 15-142m258 259c-19-36 16-85 57-78 20 0 34 16 47 29 2 21 7 47-11 64-25 30-80 22-93-15m-1479-68c37-25 92 13 83 57-4 39-54 61-86 39-35-20-33-77 3-96m745 82c49-22 112 21 107 75 4 61-74 102-122 66-54-31-45-122 15-141m-345 80c42-22 98 16 94 64 2 38-36 71-74 65-32 0-52-29-63-55 1-30 13-63 43-74m699 1c43-27 104 12 100 62 2 53-68 86-108 52-39-27-34-92 8-114m121 301c-19-29 4-65 35-71 25 5 52 24 46 53-3 39-61 51-81 18m-965-26c8-23 26-46 54-40 39 3 51 63 16 81-31 21-67-8-70-41m466 27c7-34 52-51 81-33 19 9 25 30 30 48l-8 29c-12 14-27 28-47 28-37 4-70-38-56-72"/></svg>