<svg xmlns="http://www.w3.org/2000/svg" viewBox="0 0 150 58"><defs/><path fill="#3AAC59" d="M90 19h13v38H90zm-17.8-2.9c-5 0-10.2 1.2-11.4 3.5V3.7H47.3V29a51.6 51.6 0 015.7 3.1s-7.6 12-18 14.5c-6.2 1.4-13.4-.4-14.9-6.5l-.1-.8a43 43 0 018.2-3.8l.2-.1c6-2.2 11.2-3 11.2-3-4.7-.4-8.6 0-12 .6-3 .6-5.5 1.5-7.5 2.4a13.2 13.2 0 0112-9.8h2.1a21.2 21.2 0 011.7 0c2 .2 4.4.7 7.1 1.7v-8.8l-4-1.1c-3.8-1-10.3-2-17.4-.4C10.2 19.8 7 28.2 7 38.5c0 1.3.1 2.5.3 3.7a49 49 0 00-7 5.6l7.5-3.4c3 10 13 13.2 20.6 13.2 8 0 13-2.2 19-6v4.8h13.4V32c1.3-3.4 3.5-4.2 5.9-4.2 3.2 0 5.2 2.2 5.2 5.8v22.7H85V29.9c0-8.4-5.2-13.8-13-13.8M96.3.4c-4 0-6.9 2.8-6.9 6.9 0 4 2.9 6.9 6.9 6.9s6.9-2.9 6.9-7c0-4-2.9-6.8-7-6.8m51.2 34.5v-17H134v2.4c-13-8.3-21.2.3-21.2.3a21.8 21.8 0 00-6.2 16.4c0 12.7 7.6 20.2 17.5 20.2 3.7 0 7-.8 10-4.9.4 1 1.1 3.3 1.7 4h13.9c-2.4-3.8-2.4-17.4-2.3-21.4m-20.2 11.4c-4.3 0-7.4-3.8-7.4-9.2 0-5.3 3-9 7.4-9 3 0 5.4 1.8 6.6 4.7v8.6c-1.2 3-3.6 4.9-6.6 4.9"/></svg>