<svg xmlns="http://www.w3.org/2000/svg" viewBox="0 0 32 32"><g fill="none"><circle cx="16" cy="16" r="16" fill="#008CE7"/><g fill="#FFF"><path d="M19.09 8H11.8l-.6 3.37 6.56.01c3.23 0 4.19 1.17 4.16 3.12-.02 1-.45 2.69-.63 3.23-.5 1.46-1.53 3.12-5.36 3.12H9.56l-.6 3.36h7.25c2.56 0 3.65-.3 4.8-.83 2.56-1.17 4.08-3.7 4.69-6.99.9-4.9-.22-8.39-6.62-8.39z"/><path d="M15.8 15.8c.24-.99.32-1.38.32-1.38H8.67c-1.9 0-2.17 1.24-2.35 1.99-.24.98-.32 1.38-.32 1.38h7.45c1.9 0 2.18-1.24 2.36-2z"/></g></g></svg>