<svg xmlns="http://www.w3.org/2000/svg" xmlns:xlink="http://www.w3.org/1999/xlink" viewBox="0 0 1236 1236"><style>.st22,.st30{clip-path:url(#SVGID_2_)}.st4{fill:#f1d789}.st4,.st51,.st63{clip-path:url(#SVGID_2_)}.st22{fill:#caa13e}.st30{fill:#a88f33}.st51{fill:#8c6228}.st63{fill:#585136}.st64{fill:#252211}.st64,.st83,.st88,.st90,.st92{clip-path:url(#SVGID_2_)}.st83{fill:#6e6342}.st88{fill:#82764f}.st90{fill:#574f35}.st92{fill:#cfb66c}</style><circle cx="618" cy="618" r="618" fill="#988430"/><circle cx="618" cy="618" r="598" fill="#7a6a2a"/><circle cx="618" cy="618" r="586" fill="#ba9f33"/><defs><circle id="SVGID_1_" cx="618" cy="618" r="586"/></defs><clipPath id="SVGID_2_"><use overflow="visible" xlink:href="#SVGID_1_"/></clipPath><path fill="#e2cc85" d="M470 860l-19-37 11-47 81-31-34-71 17-72 32-64 99-15 73-70 157 12 31 168-59 212-34 110-138 5-63-44-75-31z" clip-path="url(#SVGID_2_)"/><path d="M711 859s-19 8-51 6c-10-12-75-18-75-18s-8-2-23 4c-15 5-28 5-41 8s-26-14-36-17c-10-4-23-13-23-13l-28-3-55-23-88-88-24 38-8 46 27 55 72 66 140 35 83-24 104-44 26-28z" class="st4"/><path fill="#f4ecb4" d="M213 548l18-54 21-35 68-6-20 60-57 102 23 90-41 22-13-20-11-46-1-51z" clip-path="url(#SVGID_2_)"/><path fill="#f3e19d" d="M290 855l-13-18s-4-9-2-16c2-8 2-9 1-12s-10-12-9-21c0-9-1-12 6-19 6-6 4-18 4-18l9 6 2-3s3 2 3 6c1-5-2-30 5-36 6-6 18 27 18 27l-7-47-19-49-33-44-2-48v-4s-15 23-19 41c-3 13 4 28 3 46-2 18-3 17 1 24s15 22 11 32c-3 9-16 3-16 3s-3 7-6 10c-1-4-2-7-5-10l-1 4-4-15-9-36-4 19 1 22 9 31 8 19 7 25 7 16 5 12 5 28 23 24 12 6 9-5z" clip-path="url(#SVGID_2_)"/><path fill="#f2e8b0" d="M225 504s-16 28-21 55a366 366 0 0 0 36 241l1-1s-6-10-9-21c-2-10-3-23-6-29-2-5-6-10-8-17-1-7-2-18-7-26-2-3-5-11-5-20l-1-38c-2-19-4-32-2-42s13-39 19-62c4-15 2-27 9-40 8-12 13-23 14-31 2-7-20 31-20 31z" clip-path="url(#SVGID_2_)"/><path fill="#f5eec0" d="M302 493s-8 2-12 7l-11 14c-6 8-6 13-10 22l-16 27-5 37c-3 10 2 23 2 23l6-1s0 7 6 12c5 5 6-16 6-16l22-72 32-22 3-18-23-13z" clip-path="url(#SVGID_2_)"/><path fill="#e6db9d" d="M318 525s-15 1-23 7l-7 6c-6 5-12 10-15 16-3 7-7 16-9 35l-2 21c-1 8-2 15-1 19 1 10 11 15 12 26l20-11 19-76 41-25-23-26-12 8z" clip-path="url(#SVGID_2_)"/><path fill="#e5cb7a" d="M321 1205l-91 2-49-4 4-44 9-23c1-4 3-14-1-26 2-4 9-6 17-75l6-57 5-30c-1-11-2-18-1-26 2-11 12-23 12-32 0-7-4-11-7-16l-5-7s20-14 20-71h1l10 29 7 8 27 50 34 33 50 34 32 34 3 92-41 53-42 76z" clip-path="url(#SVGID_2_)"/><path fill="#d8c173" d="M336 1126s1-12 10-19c2 2 3 5 2 6 2-3 14-22 41-27s33-24 33-24l57-52 65-60 80-28 37-9-1 8c7 0 22-4 38-9 7-3 13-4 16 0 5 4 5 14 6 21 7-2 16-9 23-9 12 1 22 15 34 15 15 0 22-10 32-17l21-14c13-9 144-49 144-49l46 3 7 50-4 129-210 110-332 51-136-34-9-42z" clip-path="url(#SVGID_2_)"/><path d="M196 1205s12-27 17-67c5-32 1-40 2-50 2-16 19-46 21-52 1 12 5 58 17 68-3 4-7 18 9 28-3 6-8 13-5 23 4 11 8 25 6 42-6 1-12 3-17 8s-51 0-51 0z" class="st4"/><path fill="#e0cd81" d="M403 1186l74-21 3 1 1 5c5-3 9-2 12-4 2 3 3 14 10 15s14-3 21-9c8-6 16-13 23-16l6 13c8-7 23-34 44-33 2-5 9-22 29-35 19-13 31-14 46-13 6-8 14-15 22-20 2 1 9 6 18 2s18-20 31-22c12-2 20 4 20 4s38-37 64-49c-1-3-3-15 27-40 2 2 1 6 2 6 0 0 8-3 17-10 12-9 26-18 34-21 16-4 33 5 33 5l4-2 9-2c0 5 3 14 1 22l9 4c-1 4-5 13-11 18 5 2 6 5 13 8l-10 15-14 32c-3 7-8 21-11 24-2 2-11 14-18 20l41-13-64 95-115 34-56 10-295-1-26-13 6-9z" clip-path="url(#SVGID_2_)"/><path fill="#dfc57c" d="M320 523l-10 1c-2 1 9 4 12 5s10 6 12 11c1 4 62 29 62 29l43-3 15-20-28-25 20-58-27 4-62 38-32 12-5 6z" clip-path="url(#SVGID_2_)"/><path fill="#e5cc7c" d="M415 542s2 3 6 3c9 0 17 2 20 7l22 30 37 14 3-45-41-29-47 18v2z" clip-path="url(#SVGID_2_)"/><path fill="#d2c281" d="M407 558s7 1 16-2 23-10 29-8c9 4 7 16 16 26 6 6 17 6 23 13 5 7 26 4 26 4l7 41-30 40-11 49h-41l-39-15-18-45 9-46 13-57z" clip-path="url(#SVGID_2_)"/><path fill="#e2c270" d="M488 560l3 1c-1 1-3 3-2 9s4 13 1 17l5 8c2 5 2 10 13 10l-4 4s8 7 11 13c4 0 15-4 15-4l2 2 5-2s-4-2-1-13c3-9 5-9 6-9l2-15 3-21-4-35-18-11-14-14-14 26-9 9-1 23 1 2z" clip-path="url(#SVGID_2_)"/><path fill="#ccb360" d="M532 531l4 16 1-4 3 20h2l2 18c1-2 7-11 17-16 4-3 8-6 13-6 8 0 14 5 23 5 22 0 42-16 57-21 11-4 20-7 27-13 3-2 9-8 14-17 7-12 14-22 21-24l-10 1 6-5c4-3 8-7 15-7l23 2c7 0 10-2 10-2s7 5 22 5l33 2c8 1 35-2 42-2 8 0 15 4 15 4l-25-72-88-77-52 37-81 81-78 29-16 18v28z" clip-path="url(#SVGID_2_)"/><path fill="#d5b457" d="M707 490l5-5c3-3 9-7 15-7l24 2c6 0 10-2 10-2s6 5 21 5l33 2c8 1 35-2 43-2l14 4-11-32-13-25-37-40-44-26-16-4-40 24-36 94-1 20 24 11c6-10 12-18 18-19h-9z" clip-path="url(#SVGID_2_)"/><path fill="#d2b257" d="M706 497c-3 0-6 0-7-3-3-8-6-9-8-9s-6 5-8 5-4-6-4-6l-3-1s-13 9-22 18-24 27-30 30c-7 3-30 4-38 6s-17 7-18 9 4 2 4 4c1 1-7 0-8 2l3 9 7-1c8-1 14 4 23 4 22 0 42-16 57-21 11-4 20-6 27-12 3-3 9-9 14-18 4-6 7-12 11-16z" clip-path="url(#SVGID_2_)"/><path fill="#d2b159" d="M388 992s-2-7-21-26l-12-14c-8-8-13-10-20-15-13-10-28-10-39-22-12-13-25-36-34-61l-12-32c0-1 3-6 6-5s3 7 4 9l5 6c5 6 12 12 15 22l-3-17 32 22c15 12 21 16 26 23 4 8 15 27 20 33s73 27 73 27l32 24 16 36-12 20-24 5-40-18-12-17z" clip-path="url(#SVGID_2_)"/><path fill="#c2a44d" d="M300 870s9 13 29 26a271 271 0 0 0 114 33c35 1 59-10 89-13 17-2 37-3 57-8 27-6 43-13 65-23 15-8 29-13 41-20 16-10 28-20 42-23-2 4-3 13-17 21h17s-10 5-26 18c-11 8-25 21-39 30l-25 14c-16 8-22 13-33 23h4s-13 2-22 7c-2 0-6-1-12 1l-17 7c-9 2-12 1-12 1l1 3h-15v1l-2 1-6 2-4 1 6 12-24 18 2 3 2 7 2 4-7 1-16 4-6 1c1 2 5 10-3 20-8 9-10 11-13 17l-4-2c-3-2-6-3-8-6l-3 10-7 18c-2-3-7-9-14-8s-13 11-14 14c0-2-1-3-1-1s-4 25-25 43l-1-18c-2 2-5 5-19 11s-12 12-12 12-1-10 7-20l12-16-1-2-3-3c1-1 13-6 12-18 0-11-5-16-8-20-1-1 5-4 4-6-1 0-7-5-8-8l1-4 1-5c0-3-3-10-4-10h6l-5-10-3-12h6c0-2-4-4-2-6 1 0 4 1 6 4-1-3-3-9-8-12 2-1 9-2 15 1s8 8 8 8l9 7c6 5 14 12 27 17h14l6-2 3-1-4-6h4s1-3-5-8c2-1 3-2 3-4-2 0-5-3-5-4 1 0 2-3 4-3-2-2-5-7-7-7l5-2s-9-2-11-4l-10-7c-2-1-6-1-8-3h9c0-1 0-2 4-3l5-1s-4-1-8-5-8-7-10-7c-3-1-7 1-10 1-4 0-6-2-6-2s-13 1-43-17c-25-16-36-29-36-29l-7-4c-10-5-23-15-23-29z" clip-path="url(#SVGID_2_)"/><path d="M668 270s4 1 6 4c5 6 8 16-3 27 4 1 6 2 10 1-4 5-12 14-13 22 0 7 4 9 4 9s-7 7-7 20l10-10c7-6 18-12 25-16v5s13-11 24-6c5 2 3 9 3 9s6-3 11 2 11 17 15 22l9 13c5 7 10 18 14 28 0-5 1-13 16-8s32 16 46 38c14 21 17 45 25 55 7 8 14 23 15 29s-3 27 12 81l11-54 3-33 4-102-106-88-83-61-54 6 3 7z" class="st22"/><path fill="#b59544" d="M866 422s-2-10-27-27-44-17-62-31c-14-11-28-36-38-45-9-8-10-32-10-32l30-26 46-66 39-42 18 26 26 30 14 60 5 89-41 64z" clip-path="url(#SVGID_2_)"/><path fill="#c89d3a" d="M897 528s1-19-5-40-21-57-28-70c-3-15-1-17 2-18 3-2 14-8 20-30s25-22 25-22l11-9 17 43 15 40 5 29 4 26-9 54-40 36-17-39z" clip-path="url(#SVGID_2_)"/><path fill="#ceb052" d="M321 1205s-9-17-9-24c-1-7 2-12 2-12s-3-5-7-6c1-4 2-8 5-11l9-9c1-2 1-3 4-4 3 0 6 0 6-4v-7l3-2 1-3c1 0 6-2 9-1l12 3c7-1 16-6 29-4 20 4 25 18 36 25 8 6 16 3 18 3h2l7-4c4 1 4 4 6 4 6 1 18-3 23-1 3 0 7 3 8 7s0 8-3 11c-6 6-12 11-13 16l4 4-7 5-10 3c-7 1-17 2-22 9s-24 4-24 4l-89-2z" clip-path="url(#SVGID_2_)"/><path fill="#cca847" d="M864 929s16-21 21-31c5-11-17-145-17-145l45-148-1-49s2-44 7-63c6 11 26 24 30 31 2-13 9-42 8-73 3 6 12 63 12 63l9 39 12 41 13 43 7 30 5 7 4 13 3 14 10 31 6 27 5 47 2 11-1 9c0 1 2 12 1 20s-1 14-7 19c-6 6-10 40-10 40l-11-7s2-10-3-20c-5-9-15-11-21-9-6 1-17 3-21 6-3 3-12 13-20 18-10 6-26 6-35 8-8 2-18 8-28 15s-21 11-25 13z" clip-path="url(#SVGID_2_)"/><path fill="#c39d3c" d="M864 1148s9 5 25 9 57 27 57 27l34 22 43 3 37-5s1-16-1-75c-3-59-5-68-5-72 0-5-1-80-3-96s-1-33-1-42-6-49-8-59c-3-10-8-15-9-15l-5 23-1 19-1-2-3 7v-5c-1-1-2-1-1-3v-4s-3 4-5 15l-3 13-5 6c0 3 4 6 4 7l-5 20c-1 6 0 17-2 22-1 6-2 9-5 11l5 1s3 15-5 27l-8 11c-7 7-12 16-12 21l-1-5-15 19c-5 9-13 9-16 11-2 2-2 6-2 9-2 1-5 1-8 9-1 4-4 8-9 11l-13 4 5 1c-2 3-9 7-16 12-8 5-12 11-14 16-2 4-5 7-9 7l6 5c-2 1-6 1-12 6l-13 9z" clip-path="url(#SVGID_2_)"/><path fill="#d2ba6b" d="M715 1203s7-10 22-16c16-6 32-7 39-9 6-2 11-5 19-6-1 6-1 10-3 14 6 1 20-10 28-12 7-3 25-6 26-8l6-8c1-1 4 1 5 1 4 0 26-21 44-20 17 0 37 14 34 27 5-2 10-5 14-4l-1 4s10-2 12 1c3 3 2 6 8 14 5 6 4 8 3 10 2 1 15 5 26 15 12 11-91 4-91 4l-189-1-2-6z" clip-path="url(#SVGID_2_)"/><path fill="#c0993a" d="M1013 784s-4 17-9 28l-12 26 1-10c-7 4-25 14-30 19-4 4-12 11-14 15l10-32c-7 5-41 33-58 51l-55 44-19 9-29 11c2-6 6-11 11-16s21-22 23-30 3-13 0-20l-13 2c-4 1-9 6-9 6s3-18 10-36l-14 2s12-21 34-35c-4 0-12 2-19 6-13 5-26 12-36 17 5-8 45-65 69-119 24-53 33-66 38-95 2-14 2-35 2-53 1-19 4-35 2-47 6 8 29 30 30 78 1 49-22 114-46 150 6 1 21 3 37-24s15-35 21-47l1 8s23-28 34-63c2 15 8 28-2 56-9 25-21 31-21 31s6-1 15-6c1 4 1 8 3 9s6 4 7 7c2-4 7-9 8-13-1 8-2 42 2 60 8-1 16-1 21-15-4 14-4 22-1 33 4-2 8-7 8-7z" clip-path="url(#SVGID_2_)"/><path d="M753 232s-8 4-21 4c-11 0-8-5-26-5-27 0-123 16-140 16-11 0 37 4 37 4l122 2 24-2 9-18-5-1z" class="st30"/><path fill="#e3c571" d="M437 471s-16 12-23 21c-6 9-10 15-17 22h5l-1 2 6 2c-3 1-9 7-4 14 4 6 11 6 11 6s-2 5 5 5c16-1 33-8 41-6 7 2 12 3 18 12 5 10 11 11 11 11s3-9 2-22c5-11 5-22 5-22l-5-39-23-28-29 16-2 6z" clip-path="url(#SVGID_2_)"/><path fill="#d8b65b" d="M465 465s2 5 11 6l-1 4 1 4 2-2v8l2 5v-1c1-1 2 5 7 10l1-2 1 3-1-1s0 16 3 24l1-1v8l-1 8 6-4c3-1 8-4 11-13l4-14 2 6c0 2 5 1 5 1l1-11 6-24 5-16 26-40 47-36 41 9 35-47-60-36-56 6-51 71-41 64-8 11z" clip-path="url(#SVGID_2_)"/><path fill="#d3ae4d" d="M760 362l-14 6c-10 5-17 7-21 15s-4 14-4 14l11-4c4-1 9-1 8 1l-2 3s8 0 8 4-1 8-3 10c-1 2-8 5-8 7-2 5 0 5-1 9 0 3-4 10-14 23-11 13-16 22-16 22l-8-19-13 7-24-86v-6s2-2 3-7l-9-7c-5-5-9-11-17-15-2-2-3-5-9-6l-10-2s3-1 5-4c-4 1-7 2-15 2h-13c-4 1-10 3-12-4-3-2-7-1-11 5s-6 11-13 13c-1 2-1 6-4 10l-10 13c-8 8-6 23-18 34s2-31 2-31l19-45 54-53 84-6 8 44 41 14 26 39z" clip-path="url(#SVGID_2_)"/><path d="M773 372l-35-51-25-19-19-33c-1-1-17-3-28-3l2 4s4 1 6 4c5 6 8 16-3 27 4 1 6 2 10 1-4 5-12 14-13 22 0 7 4 9 4 9s-7 8-7 20l10-9c7-6 18-13 25-17v5s13-11 24-6c5 2 3 9 3 9s6-2 11 2 11 17 15 22l9 13c5 7 10 18 14 28 0-4 1-9 8-9l-11-19z" class="st22"/><path fill="#f4efc8" d="M244 517s-2-7 0-19c3-12 6-17 8-35 1-18 13-40 13-40l32-15 22 6 7 31-29 15s-1 7-9 13c-8 5-20 9-22 15l-4 10s-8-1-13 4c-5 6-5 10-5 15z" clip-path="url(#SVGID_2_)"/><path fill="#ebcc73" d="M309 509s-3 1-5 5c-2-3-7-22-7-39s-1-21 3-27 19-12 17-23c-2-10-11-14-22-11-8 2-14 19-22 27-7 6-14 5-16 9-3 5 0 9-1 12l-7 13c-9 13-25 32-27 48 1-9 0-9 3-20l-2-2 10-33 7-26 14-45 25-46 25-27 25 2 3 38 15 72 31 38-50 33-19 2z" clip-path="url(#SVGID_2_)"/><path fill="#e5c66b" d="M324 522h-6c-1 0-3-1-2-2l3-4c0-1 0-3-2-3l-3 1-4-2h3s-4-2-9-2c3-2 8-6 11-6s5-1 4-2c0-2-3-5-5-6 1-1 1-3-1-8-2-4-1-8-1-9l5-6 4-5 7-3c4-1 7-3 9-1 2 1 1 3 1 3s7-2 13 1 21 5 21 5l6 11-36 30-15 8h-3z" clip-path="url(#SVGID_2_)"/><path fill="#e6bd62" d="M374 472l-14 10c2 0 4 1 3 3l-12 11-10 14c-1 3-13 11-17 12 9 0 25-10 31-10 0 3 2 6 5 7 4 0 14 2 28-7 13-8 9-14 14-18 11-7 16-14 22-18s9-4 9-4 0-3 2-3 2 2 2 2 10-8 24-10l-1-1h1l1-1 3 6c2-1 6-11 6-11l10-29v-26l-8 2-59 25-36 37-4 9z" clip-path="url(#SVGID_2_)"/><path fill="#b6933f" d="M545 342l9-3c-1 3-1 6-7 14l-9 17c-4 8-5 20-9 25l6-2-6 7c-2 4-5 12-12 16-8 5-17 8-27 19s-20 25-26 30c3-5 7-14 8-20 1-7-1-14 1-22s2-14 10-29c8-14 22-64 22-64l30-9 10 21z" clip-path="url(#SVGID_2_)"/><path fill="#c49937" d="M523 324s-9 13-12 25 0 10-2 16v11s4-7 13-13 16-9 20-13c4-5 8-12 17-18l-10-2c3-4 15-11 26-19 11-7 10-11 28-19h-13c2-4 8-6 15-13s-4-17-4-17l-53 32-25 30z" clip-path="url(#SVGID_2_)"/><path fill="#dfc068" d="M380 300l1-9 15-25 16-42v-58l-1-34 2-22 2-7 2-2 13 6 18 25 1 46-17 74-49 54z" clip-path="url(#SVGID_2_)"/><path d="M419 98s-8 0-10 33l-3 67c-1 17-4 26-6 35-1 10-2 23-6 31-2 4-7 15-16 24a99 99 0 0 1-31 17c-4 1-26 3-35 8-4 2-9 4-15 9-12 11-29 31-40 54-18 35-36 134-36 134l4-6s1-9 10-25c8-15 6-33 18-63l18-39c11-20 25-38 39-47 23-16 48-19 48-19l27-18 10-20c9-14 20-30 23-54 3-35-6-58-5-79 0-21 1-36 5-40s1-2 1-2z" class="st30"/><path fill="#c99e3d" d="M419 255s12-29 17-55l4-15c2-24 3-34 0-48-3-10-12-19-17-25-5-8-8-10-7-12s5-4 9-4c4 1 13 1 21 10s14 39 14 39l7 40 16 50-64 20z" clip-path="url(#SVGID_2_)"/><path fill="#b58634" d="M531 225h-7c0 2 0 5-4 8-4-2-43 2-43 2s-19-4-24-28c-4-16 3-38 0-53-3-21-8-25-8-32l-1-13-6-1c-1-2 0-4-2-7 1 0 10 1 19 10 8 8 8 11 9 12 2 2 14 12 19 22s15 44 18 49c0 2 2 4 6 9 5 8 14 19 24 21z" clip-path="url(#SVGID_2_)"/><path d="M466 124l16 30c6 13 9 24 17 33-4-12-11-34-15-42-5-9-15-18-18-21z" class="st30"/><path fill="#e6c367" d="M398 288s-10 3-29 12a308 308 0 0 1-61 25l1 2s0 5 3 7c-2 2-22 16-16 61l10-3c1 0 1 3 3 3s6-2 11-9c0 3-3 30 13 49l11-16v-3s1-13 5-25 12-20 12-20l43-62-6-21z" clip-path="url(#SVGID_2_)"/><path fill="#dcba5a" d="M358 378l-7 3c0-3-1-11 5-20 6-10 22-23 26-33 2-7 1-24 25-45l34-29 38-20 48 19-24 93-18 44-73-14-54 2z" clip-path="url(#SVGID_2_)"/><path fill="#e9ce77" d="M386 353l9-12v-8s10-3 21-14 26-32 39-31c13 2 15 29 15 37 1 7 2 25 5 34 3 10-32 45-32 45l-24 19-33-70z" clip-path="url(#SVGID_2_)"/><path fill="#cdae50" d="M414 447s7-11 2-14c3-7 9-15 9-15s4-10 18-23c13-13 22-21 24-30 2-8 2-17 2-17l5 3c2 1 12 10 11 27-2 18-8 25-8 25l-11 9c-4 3-6 7-14 7l3-1s-8-1-13 3l-18 20-10 6z" clip-path="url(#SVGID_2_)"/><path fill="#d2a83e" d="M746 253s-16-6-37-7h-81c-33 1-62-11-103-13-7-4-24-21-77 16 3 0 39-8 51 7 13 15 9 41 7 48-3 13-13 34-17 48l-7 31c-3 10-9 15-5 26 5-3 8-3 16-23 9-19 7-33 22-49 14-17 37-40 46-45 9-6 80-43 154-8 18-2 31-31 31-31z" clip-path="url(#SVGID_2_)"/><path fill="#c29637" d="M478 239v-2l-3-4s-18-3-27-2c-15 2-29 21-36 31s-15 25-24 33v-2l-1 1v2l1 2c1 0 15-6 34-24 20-18 35-27 43-31l13-4z" clip-path="url(#SVGID_2_)"/><path fill="#ac8132" d="M820 164l-8 8-30 31c-10 11-20 19-32 33-12 13-26 28-29 33-3 4-6 11-6 15l-4-3 3 5 9 10 5 12c1 0 9 2 18-14l23-33 20-30 12-25 16-29 2-13z" clip-path="url(#SVGID_2_)"/><path d="M840 144l-17 16-16 21h4l21-18 8-14v-5z" class="st30"/><path fill="#a67a2e" d="M836 939s0-9 5-13c4-5 16-13 28-40l13-33s-21 18-34 22l6-14-9-3c4-4 6-14 14-21l44-33c15-12 44-41 48-49l2 5-22 31c-6 11-6 17-6 17l14-6s4 15-14 37c8-3 11-1 15-4-7 5-17 11-27 29-9 18-22 38-44 51-21 14-33 24-33 24z" clip-path="url(#SVGID_2_)"/><path d="M782 263s-8 17-9 31l-1 9c0 12 0 25-2 31l-3-5-6 22c-1-3-3-14-3-27v-18c0 4-3 9-4 12l-5-9-4 7-1-9v-14c0-2 4-13 13-23 11-11 22-33 25-40l17-36h10l-15 34-14 26-19 35 9-11 12-15z" class="st51"/><path fill="#cba94c" d="M840 143s-2 7-8 14l-26 25c-6 8-17 29-12 54 2-6 6-16 16-29s20-25 25-36 6-20 6-20l2-2-1-6h-2z" clip-path="url(#SVGID_2_)"/><path d="M1043 806s-4-11-5-21c-2-10 2-12-2-23-2-7-6-6-7-7l-2-17-1-16c-2-2-3-3-5-10l-5-13c-1-2-4-4-4-7 0-4 4-6 4-8-1-2-4 0-4-1-1-1 2-8 1-9s-4 4-5 2l-4-21-4-15a1499 1499 0 0 0-24-75c-1-5-1-14-2-13l-1 6-4-20c-1-3-5-12-6-19l-4-36-3-20c0-1 1-10-1-22l-9-36c-7-17-25-60-28-71 0-3 4-1 4-1a3196 3196 0 0 0 43 117l8 68c1 8 2 16 5 25l12 33c5 12 9 22 10 31 3 11 3 19 4 25l7 27 15 42c8 22 12 40 13 50s5 45 4 55z" class="st30"/><path fill="#be9c44" d="M841 141l-1 2s2 0 1 2v8l-2 9c0 4 1 10-6 23l-4 9c-2 6-3 6-5 9 3-2 16-10 22-9-4 3-11 8-15 14h12c11-2 24-6 34-5 12 1 8-14 8-14l-14-30-26-19-4 1z" clip-path="url(#SVGID_2_)"/><path fill="#a17c34" d="M909 368s-12-12-17-52c-4-40-3-99-3-99l-10-23s-2-15-7-21l-19-20c-4-4-9-11-12-12 1-2 8-16 34-17 25 0 33 15 36 20s15 27 19 70 5 46 4 61a271 271 0 0 1-25 93z" clip-path="url(#SVGID_2_)"/><path d="M872 402s6 0 11-3c4 0 17 2 28-11 0 3 2 11-3 18 3-3 7-4 7-4 0 3 4 15-11 42 4-4 9-4 13-4 0 5 3 23-5 32-4 6-12 4-12 4v-4c-1-3-2-5-1-7-1-1-5-2-10-7-9-8-20-22-21-33s9-14 9-14l-2-3-3-6z" class="st51"/><path fill="#92723a" d="M795 276l-3 2 1-9 5-7-3 6 9-12c4-3 9-4 11-7l2-4s5-3 13-12l3-4 10-5 14-8c7-3 14-3 17-7 3-1 5-8 5-15 4 2 23 13 29 39 5 19-3 47-7 60-3 14-4 24-9 30-6 8-26 20-31 26-4 4-17 16-16 25 0 6 8 10 10 11s2 3 5 2l5-2h4s0 9-22 12l-5 1c3-1 4-1 7-5l-14-2 5-5c2-2 0-2-1-2l-8 6-9 8c-1-4-1-12 4-17-1 0-3 4-6 3l1-11c1-4 8-12 8-12l31-56 7-43-72 14z" clip-path="url(#SVGID_2_)"/><path fill="#b18e3e" d="M793 278s-1 2 2 4l-3 5c-2 2-4 3-4 5l-3 7c0 2-1 11-5 17l-4 9-5 10-2 13 3-4-5 7 11-9c8-6 21-18 37-27l-12 2c2-3 25-29 37-31l1-4-11-1-20 5-3-16-14 8z" clip-path="url(#SVGID_2_)"/><path fill="#543e26" d="M826 368s-3 3-5 10l-5-7c-4-6-10-14-23-10v-9c2 0 9-6 16-14 4-5 9-11 12-19l10-7c6-5 14-11 15-17-3 1-9 4-19 3 4-1 9-3 9-11l2-1-3-1-2-1-3 1c0 1-3 0-4 2l-8 5 1-3-8 2-21 10 1-2h2v-3l7-14c4-4 5-11 5-11l15-8 43-10 28 2-4 19-16 34-14 31-16 18-15 11z" clip-path="url(#SVGID_2_)"/><path fill="#806031" d="M896 285s-17 21-22 24l28-55c-1-1-3-1 2-20-4 9-6 14-9 17-3 2-4 1-6 1v-2l-23-2c-9 0-29 5-40 10-8 3-13 3-16 5-3 3-4 6-6 6-1 1-7 3-8 5l-3 4s-1 1 1 1l8-5 18-9c14-6 18-5 25-6s16-4 23-4l21 1c-1 1-2 2-2 6l-2 6-12 28c-4 10-9 18-12 22-2 5-8 18-13 25l-10 13c-2 2-14 10-13 13 3 0 16-6 27-17 10-11 12-18 20-24 7-7 14-17 17-26 3-8 3-10 7-17z" clip-path="url(#SVGID_2_)"/><path fill="#b6903c" d="M534 440s-3 9-8 14c-5 4-13 8-14 15-2 8 8 11 8 11s-5 9-5 16l1 15c-2 0-2 2-2 2s0 6 5 10 9 7 11 6l2 2 6-18c2-8 4-7 5-18 1-12 12-31 12-31l8-16-12-10-17 2z" clip-path="url(#SVGID_2_)"/><path fill="#685026" d="M556 456l-7 9c-3 4-6 8-10 10-5 1-8 1-8 6s5 7 8 9c2 3 4 7 3 12 2-1 4-2 7-7l20-39h-13z" clip-path="url(#SVGID_2_)"/><path fill="#d4b968" d="M625 380v-7c-2-2-11-3-15-7-5-3-11-6-15-4 0-2 3-6 1-6-2-1-11 3-13 4l-8 5c-1 1-3 4-4 3s-1-3-3-2-10 8-11 12-5 12-15 22-15 17-12 20c3 4 4 1 5 4l-1 10c-1 5-3 10 0 11 7 2 14-2 15-1 3 3-2 13 5 15 8 2 15-2 15-2l26-14 25-14 13-25-7-21-1-3z" clip-path="url(#SVGID_2_)"/><path fill="#cca849" d="M600 441s-4-6 1-12c6-6 13-9 16-12l-2-2s3-5 9-8l-6-3c-5 0-8 3-12 3-5 0-5-2-5-2s7-1 7-4l-2-3s14-6 16-10c3-3 3-7 3-8 2 0 12-5 16-3s1 8 1 8 12-9 18-18c6 1 8-4 12-4 5 1 13 7 14 22 1 8 3 12 1 27-1 8 0 26 2 34 2 7 6 6 6 6l-4 6c-2 2-3 9-2 11l1 6-4 6c-1 3-4 4-6 4h-11c-2-1-3-1-3-8 1-6-24-21-24-21l-42-15z" clip-path="url(#SVGID_2_)"/><path d="M553 505s9 12 46 12c18 0 24-2 28-3s19-7 34-25c13-16 10-23 10-23l-7-1-26 4-76 32-9 3z" class="st63"/><path d="M580 508s-32 7-32-14c0-20 20-41 25-45l18-7h30l5 15-2 32-44 19z" class="st64"/><path fill="#c3b378" d="M610 448s-6-6-20 2-25 23-26 38c-1 13 10 23 28 23 13 1 21-1 25-2l-6-8-1-53z" clip-path="url(#SVGID_2_)"/><path fill="#e6d89c" d="M604 451s-1-1-6 1l-13 11-6 5c-6 7-11 19-8 25s13 13 38 9l-5-51z" clip-path="url(#SVGID_2_)"/><path d="M596 463s-4 7-4 16c0 11 6 27 27 28 16 1 27-23 38-33 9-7 15-7 15-7s-9-10-34-23c-24-13-51-14-65 5 7 0 29-6 29-6l11 4-17 16z" class="st64"/><path fill="#6f674d" d="M627 476c0-1-1-3 2-4 3 0 4 0 5 2s2 4 1 5c-2 1-6 0-8-3zm-4-14h-1c0-2 2-5 5-4 3 0 2 4 2 5s-3 3-5 2-1-3-1-3z" clip-path="url(#SVGID_2_)"/><path fill="#ac924c" d="M352 469s8 6 17 5c9 0 21-9 26-15l9-10 6-6 4-7-9 7-13 7-30 16-10 3z" clip-path="url(#SVGID_2_)"/><path fill="#9f8e57" d="M364 395s5-3 13-5l25-4 13 6 6 21-10 21-13 8-14-23-20-24z" clip-path="url(#SVGID_2_)"/><path fill="#eac970" d="M346 413l-4 4 2-9c1-7 6-23 14-33l7-9-4 1c1-2 7-10 14-14s9-5 15-2c7 4 9 5 14 5s9-5 9-5 1 3-3 10c-4 8-18 23-18 23l-31 21-15 8z" clip-path="url(#SVGID_2_)"/><path fill="#d7bc6b" d="M369 392s22 3 29-3l1 1-1 1h2l3 1 2-1-1 3 2 1-1 4-3-1 1 6c2 4 6 8 12 7 0 0 3 7-10 23l-5 7-2 6s21-8 27-27c6-18 7-37 6-54l-2-11c-3-6-11-5-15-2-5 5-13 17-24 26-12 8-12 10-21 13z" clip-path="url(#SVGID_2_)"/><path d="M342 419s-4 3-6 12c-2 10 2 21 4 25 3 4 8 14 20 14 2 1 5 0 8-1l11-7 8-7-30-25-11-12-4 1z" class="st63"/><path fill="#453a25" d="M370 459s6 0 9-3-20-26-20-26l1 26 10 3z" clip-path="url(#SVGID_2_)"/><path fill="#84754b" d="M344 418l-3 7c0 5 1 20 3 25 1 5 7 13 16 13 5 0 12-3 12-4s-7-2-9-6c-2-2-2-7-2-12-1-3-1-6 1-7 2-3 3-12 3-12l9-18h-12l-15 10-3 4z" clip-path="url(#SVGID_2_)"/><path d="M341 423s10-13 18-16c9-3 13-1 13-1l-5 13-7 8v4s-1 11 6 19c8 8 13 8 17 8 3 0 12-3 17-14 4-11 7-24-1-37-8-14-23-14-26-14-2 0-24 1-32 30z" class="st64"/><path fill="#f7f7e7" d="M595 468c-4-2-1-13 3-16s8-7 17-7c3 0 6 2 5 4-1 3-6 8-11 12-6 5-10 8-15 7z" clip-path="url(#SVGID_2_)"/><path fill="#f8f6de" d="M395 411c2 0 6 2 6 5 1 3-1 9-7 9-4 0-6-5-6-6l1-4s1-4 6-4z" clip-path="url(#SVGID_2_)"/><path fill="#d4c38b" d="M356 413s-7 3-11 10c-3 7-2 13-2 16s3 9 5 11l6 3c1 0 5-5 5-7s0-14 3-20c3-7-7-13-7-13z" clip-path="url(#SVGID_2_)"/><path fill="#e2d59d" d="M357 413c-2 0-4 1-3 3 0 1 5 2 6 5 2 3 2 6 1 7l4-2c2-3 5-6 7-6l4 1c2 0 5-1 5-3 0-3-4-6-7-6 1-2 1-5-1-7s-9 2-11 3l-6 5z" clip-path="url(#SVGID_2_)"/><path fill="#cbac5a" d="M515 623l15-5 4 3s3 7 8 8c-1 3-5 5-5 8s2 4 2 4-13 22 13 44l-18 8 12 4 5 5 4 4c-2-1-8-4-9-1s-25 2-25 2l-40 8s2-4-2-8c-5-5-11 0-18-5-8-6-8-14-11-16 3-2 8-5 21-6 0-1-2-4-1-7 1-4 6-6 5-10 2 0 3 0 9-7 5-7 8-9 12-9s6 0 14-7c5-5 3-9 3-9s4-1 2-8z" clip-path="url(#SVGID_2_)"/><path fill="#d6bc6f" d="M472 625c0-1 1-2 6-1s40-3 49-4a306 306 0 0 1 109 17c0 1-2 2-3 1-1 0-27-8-35-9s-36-7-52-6l-32 1-38 3c-6-1-5-1-4-2z" clip-path="url(#SVGID_2_)"/><path fill="#dfc677" d="M552 703s21 11 28 25c6 10-3 15-3 15s11 0 10 7c-1 4-20 14-33 20s-12 5-19 6c-6 1-23-2-27 3-3 5-2 10-1 11l10 2s-2 5-19 5-21 2-22 4c-1 1 3 0 11 2l18 2s-3 3-12 5c-11 3-27 5-32 8 3 2 6 5 8 5l-11 4 3 2s-8 10-13 13-33 15-43 13c-24-7-27-33-33-35-9-3-13 3-21-1l9-6-24-15-8-14-14-24c-9-18-10-26-19-36 2-2 7-2 7-2l73 24 129 4 34-48 14 1z" clip-path="url(#SVGID_2_)"/><path fill="#c4a859" d="M361 777l2 2c3 1 7 3 9 6 1-1 4-4 8 0s10 2 13 3l4 1 6-3 10-3 9-2c2 2 10 10 42-2 30-12 36-13 41-11 1-1 1-4 9-3 0-4-6-14-6-14l-36-13h-19l-58 11-32 18-2 9z" clip-path="url(#SVGID_2_)"/><path fill="#927d49" d="M341 756s1 6 9 11l10 9 3-4 4-5c4-2 13 2 15 1 2 0 2-4 3-4 5 0 7 3 9 3l6-1c1-1 0-9 6-13 6-5 14-3 16-2 0 2 0 5 4 6h8c4 1 8 0 9 6 2-1 6-1 5-7 2-1 4-2 8-8l4-6c4 0 8 0 13 5l-3 3c1 0 3 2 4 5 2 2 3 4 5 4 4 2 11 0 18 0 8 1 14 4 17 5h3c3 1 5 1 2-2 1 0 3 2 5 0 1-1 2-3 6-4s6 0 8-4c2-5-6-5-6-5l8-8c5-4 10-10 11-17 2-13-10-15-10-15l-61 19-75-3-64 31z" clip-path="url(#SVGID_2_)"/><path d="M287 580l-4 8-1 10c-1 5-14 46-9 60s13 19 18 30l2 7c2 7 0 13 2 20l5 8c6 7 16 13 20 17 6 6 15 19 25 20 6 0 14-2 21-6 6-4 9-9 16-12l13-4c9-2 16-2 21-1 7 2 24 7 34 7l22-3c14-4 31-12 43-15l17-3c10-3 17-6 22-11-3-4-7-9-27-9-22 0-49 13-62 15-12 2-18 4-32-1-15-6-15-9-15-9s-15-11-21-37 0-46 16-64c4-5 3-9 3-9s11-14 8-28c-3-13-24-10-24-10l-113 20z" class="st83"/><path fill="#39331f" d="M304 624l-2 6c1 2 1 6 10 14 6 7 5 14 5 14s3 1 13-3c7-4 10 2 10 2l7-2c4 0 6-2 6-2s8 9 16 13c7 4 11 6 14 4 4-2 4-7 3-9l-3-5-6-10c0-7 6-15 5-17-2-2-6-2-17 2-12 3-61-7-61-7z" clip-path="url(#SVGID_2_)"/><path fill="#292311" d="M330 669s-6-6-4-32l7 1s3 20-3 31z" clip-path="url(#SVGID_2_)"/><path d="M289 560l2-2c-2 3-11 18-3 42 7 23 26 40 49 41s34-11 48-27l17-21c9-9 15-12 15-20 0-18-18-26-44-34-27-8-51-7-63-1s-18 12-21 22z" class="st64"/><path fill="#3f3824" d="M374 677l2-1s1-8 4-8c3 1 5 5 4 6 0 2-1 4-4 4l-6-1z" clip-path="url(#SVGID_2_)"/><path fill="#2d2815" d="M365 643l5 2c2 0 10-1 13 1l4 3s-11 2-16 0c-6-2-6-6-6-6z" clip-path="url(#SVGID_2_)"/><path d="M410 645l-11-6-2 1-1-2-3 2 1 2 5 4 1 3 5-1 5-3z" class="st88"/><path fill="#2d2816" d="M359 665s1-7 8-7c7-1 8 6 8 6l-4 4s-3-4-12-3z" clip-path="url(#SVGID_2_)"/><path d="M403 635s-4 4-12 5c-1 0-2-2 0-6s5-4 7-3c3 1 4 2 5 4z" class="st90"/><path d="M418 640v-1s3-2 4-1v2l-1 2c-1 1-3 2-4 1l-1-2 2-1zm17-11l3-1 2 1 1 1v4l-3 1-3-6z" class="st88"/><path d="M401 643l5 3-3 1-2-4z" class="st83"/><path d="M396 621c-1-1 1-2 3-2l3 1 2-1h2l1 1 1-2 2-1 1 4-4 1 4 4-4 2-11-7zm13-17l-1-1c-1-1-3 0-3 1l4 11c3 4 4 7 6 7h3v-13l-1-18c-1-1-2 0-3 1l-5 12z" class="st63"/><path d="M400 655s-3-2-7-1c-3 2-3 8-3 8s2 1 5-1 5-4 5-6z" class="st90"/><path d="M407 663l-2-3 2-2 3 2c1 1 3 2 3 4s-2 5-4 5c-3 0-2-4-2-6zm19-3h-4l3-1 2-1h5l1 1 1 3c0 1-3 3-5 2-3 0-3-3-3-4zm23-4v1l-7 2h-6c1-1 3-3 5-3l2-2h7c1-1 2 0 2 1l-3 1zm7-31s-1 3-3 3l-2-1 2-3-2-1c0-1 2-3 3-2l4-2 4 2-3 3c-1 1-2 2-3 1zm-23 59l-2 1h3l1 1 4-1 2-2c0-1-1-2-3-2h-4c-2 1-2 1-1 2v1zm-11 10l3-1 3 5-4 1-2-2h1l-1-3zm-8-14l1-1 2-1 2-1 2 1 1 3c0 2-1 3-4 4l-6 1-1-4 3-2z" class="st88"/><path d="M417 681l-1 1-1 2 3-1-1-2z" class="st83"/><path d="M402 676h4c1 1 2 2 1 3s-2 3-4 3c-3 0-5-2-5-3l1-3h3z" class="st63"/><path d="M401 677l-4 3-7 9 2-2s-3 1-5 5c-1 4 7 6 12 7l7 2-5-9c-1-4-2-5-1-7l2-6-1-2z" class="st90"/><path d="M287 685h2c2 0 17-6 34-5 7 0 20 1 36 6 20 5 46 16 62 22l12 6c13 5 13 5 21 6s17-2 27-4l48-6c9-1 16-4 16-4s-14 14-46 19a144 144 0 0 1-63-4l-32-10-36-7c-33-6-68-13-81-19z" class="st64"/><path fill="none" d="M270 558l-83-78" clip-path="url(#SVGID_2_)"/><path d="M270 552l-10-10-11-9-10-10-5-5-6-5-41-39 42 39 5 5 5 5 10 9 11 10 10 10zm-183-2l75 9 93 14M87 550l42 4 21 2 11 2 10 1 42 7 21 3 21 4-21-3-21-3-42-6-10-2-11-1-21-2-42-6zm163 36l-71 19-72 21" class="st92"/><path d="M250 586l-35 10-36 10-36 10-18 5-18 5 18-6 18-6 36-11 36-9 35-8zm-135 73l89-41 31-12" class="st92"/><path d="M115 659l15-7 14-7 30-14 30-14 15-6 8-2 8-3-30 14-30 13-30 13-30 13zm6 28l83-48 47-24" class="st92"/><path d="M121 687l32-20 15-9 17-10 16-9 8-4 8-5c11-5 22-11 34-15l-32 18-17 9-16 9-16 9-16 9-33 18zm129-64l-50 39-49 35" class="st92"/><path d="M250 623c-7 7-16 13-24 19l-25 19-25 19a468 468 0 0 1-1-1l25-19 25-19 25-18zm-43 70l20-18c13-13 30-29 36-32" class="st92"/><path d="M207 693l13-13 8-6 7-7 13-13 7-7 4-2 4-3-3 4-4 3-6 6-15 12-14 13-14 13zm60-40l-40 37m40-37l-10 9-10 10-9 9-11 9 10-9 10-9 10-10 10-9zm1 17l-11 25c-8 17-21 38-26 48" class="st92"/><path d="M268 670l-2 10-4 10-5 9-5 9-10 18-11 17 9-18a392 392 0 0 0 14-28l4-9 5-9 5-9z" class="st92"/><path fill="#dec270" d="M304 752s-10 13-9 30l9-30zm9 13l-6 53c4-20 5-18 6-53zm66 56s-15 43-16 55l15-55z" clip-path="url(#SVGID_2_)"/><path fill="#cbaf59" d="M413 750s24 39 42 73c-5-17-16-48-42-74z" clip-path="url(#SVGID_2_)"/><path fill="#e3c677" d="M478 808s18 32 35 72c-2-17-7-46-35-72z" clip-path="url(#SVGID_2_)"/><path fill="#ecd592" d="M667 866c4-2 12-16 19-19 7-4 12-4 18-11 6-8 8-12 22-18 19-8 6-18 6-18l6-6c5-4 11-8 10-16 0-14-3-33-14-44l44-7c14-4 21-9 21-9s-8-14 5-29c14-14 25-23 33-39-9-1-23-6-60 8l6 3s-23 6-31 13c-14 12-16 22-32 30-15 7-31 5-44 11s-14 11-19 13c1 2 0 4 2 5-2 2-9 13-16 13 1 3 7 5 7 5s-4 3-16 4c6 6 12 13 26 22-1 2-6 6-4 11s8 11 31 16c-12 1-25 3-44 1-18-2-21-4-32-1 1 1 4 1 7 5-3 0-22-3-28 6-7 8-10 23-9 32-4 2-7 5-5 11s10 8 16 12c5 5 6 6 11 5 6-1 14-7 19-7s9 4 9 4 13-7 14-5c2 1 1 9 2 10s16-8 20-11z" clip-path="url(#SVGID_2_)"/><path fill="#fff" d="M958 466c-63-161-217-191-217-191H300l2 164h88v367h-90v164h429c103 0 186-103 186-103 132-189 43-401 43-401zM731 756s-34 48-70 48h-73l-2-364h94s43 9 74 95c0 0 40 123-23 221z"/></svg>