<svg xmlns="http://www.w3.org/2000/svg" xml:space="preserve" viewBox="0 0 127.7 128"><path fill="#0d022b" fill-rule="evenodd" d="M102.3 25.4c-.5-.5-.8-1-.8-1.7s.3-1.2.8-1.7c1-.9 2.6-.9 3.7 0 .5.5.8 1 .8 1.7s-.3 1.2-.8 1.7c-.5.4-1.2.7-1.8.7a2 2 0 0 1-1.9-.7zm-6.4 6.9c-.4-.5-.7-1-.7-1.7s.3-1.2.7-1.7c.9-.9 2.5-.9 3.4 0 .4.5.7 1 .7 1.7s-.3 1.2-.7 1.7c-.5.4-1 .7-1.7.7s-1.2-.3-1.7-.7zm-7 6.6c-.4-.4-.7-1-.7-1.7s.3-1.2.7-1.7c.9-.9 2.5-.9 3.4 0 .4.4.7 1 .7 1.7s-.3 1.2-.7 1.7c-.5.5-1 .7-1.7.7s-1.3-.3-1.7-.7zm-6.7 6.7c-.5-.4-.8-1-.8-1.7s.3-1.2.8-1.7c1-.9 2.6-.9 3.7 0 .5.4.8 1 .8 1.7s-.3 1.3-.8 1.7c-.5.5-1.2.7-1.8.7-.7 0-1.3-.1-1.9-.7zm-6.4 6.7c-.5-.4-.7-1-.7-1.7s.3-1.2.7-1.7c.9-.9 2.5-.9 3.4 0 .5.4.7 1 .7 1.7s-.3 1.3-.7 1.7c-.4.5-1 .7-1.7.7-.6.1-1.3-.1-1.7-.7zm-7.7 5c0-.7.3-1.2.7-1.7.9-.9 2.5-.9 3.4 0 .5.5.7 1 .7 1.7s-.3 1.2-.7 1.7c-.4.4-1 .7-1.7.7s-1.2-.3-1.7-.7c-.5-.4-.7-1-.7-1.7zM55.6 72.1c-.4-.4-.7-1-.7-1.7s.3-1.2.7-1.7c.9-.9 2.5-.9 3.4 0 .5.5.7 1 .7 1.7s-.3 1.2-.7 1.7c-.4.5-1 .7-1.7.7-.6.1-1.2-.1-1.7-.7zm-6.9 6.7c-.5-.4-.8-1-.8-1.7s.3-1.2.8-1.7c1-.9 2.6-.9 3.7 0 .5.5.8 1 .8 1.7s-.3 1.2-.8 1.7-1.2.7-1.8.7c-.8.1-1.4-.2-1.9-.7zm-6.5 6.8a2.4 2.4 0 0 1 0-3.4c.9-.9 2.5-.9 3.4 0 .4.4.7 1 .7 1.7s-.3 1.2-.7 1.7c-.5.5-1 .7-1.7.7s-1.1-.3-1.7-.7zm-6.7 6.7c-.5-.4-.7-1-.7-1.7s.3-1.2.7-1.7c.9-.9 2.5-.9 3.4 0 .4.5.7 1 .7 1.7s-.3 1.3-.7 1.7c-.5.5-1 .7-1.7.7-.6 0-1.3-.2-1.7-.7zM28.6 99c-.5-.4-.8-1-.8-1.7s.3-1.2.8-1.7c1-.9 2.6-.9 3.5 0 .5.5.8 1 .8 1.7s-.3 1.3-.8 1.7c-.5.4-1.2.7-1.8.7-.7 0-1.3-.2-1.7-.7zm-6.6 6.7c-.5-.5-.7-1-.7-1.7s.3-1.2.7-1.7c.9-.9 2.5-.9 3.4 0 .5.5.7 1 .7 1.7s-.3 1.2-.7 1.7c-.4.4-1 .7-1.7.7-.5.1-1.1-.2-1.7-.7zm3.4-80.3c.4-.5.7-1 .7-1.7s-.3-1.2-.7-1.7c-.9-.9-2.5-.9-3.4 0-.5.5-.7 1-.7 1.7s.3 1.2.7 1.7c.4.4 1 .7 1.7.7.7.1 1.3-.1 1.7-.7zm6.7 6.9c.5-.5.8-1 .8-1.7s-.3-1.2-.8-1.7c-1-.9-2.6-.9-3.7 0-.5.5-.8 1-.8 1.7s.3 1.2.8 1.7c.5.4 1.2.7 1.8.7a4 4 0 0 0 1.9-.7zm6.8 6.6c.4-.4.7-1 .7-1.7s-.3-1.2-.7-1.7c-.9-.9-2.5-.9-3.4 0-.4.4-.7 1-.7 1.7s.3 1.2.7 1.7c.5.5 1 .7 1.7.7.6 0 1.2-.3 1.7-.7zm6.7 6.7c.4-.4.7-1 .7-1.7s-.3-1.2-.7-1.7c-.9-.9-2.5-.9-3.4 0a2.4 2.4 0 0 0 0 3.4c.5.5 1 .7 1.7.7.6 0 1.2-.1 1.7-.7zm6.6 6.7c.5-.4.8-1 .8-1.7s-.3-1.2-.8-1.7c-.9-.9-2.6-.9-3.5 0-.5.4-.8 1-.8 1.7s.3 1.3.8 1.7c.5.5 1.2.7 1.8.7.6.1 1.3-.1 1.7-.7zm7.5 5c0-.7-.3-1.2-.7-1.7-.9-.9-2.5-.9-3.4 0-.5.5-.7 1-.7 1.7s.3 1.2.7 1.7c.4.4 1 .7 1.7.7s1.2-.3 1.7-.7c.5-.4.7-1 .7-1.7zm6 8.5c.5-.5.7-1 .7-1.7s-.3-1.2-.7-1.7c-.9-.9-2.5-.9-3.4 0-.5.5-.7 1-.7 1.7s.3 1.2.7 1.7a2.4 2.4 0 0 0 3.4 0zm6.7 6.3c.5-.4.8-1 .8-1.7s-.3-1.2-.8-1.7c-1-.9-2.6-.9-3.5 0-.5.5-.8 1-.8 1.7s.3 1.2.8 1.7 1.2.7 1.8.7c.5.1 1.2-.1 1.7-.7zm6.8 6.7c.4-.4.7-1 .7-1.7s-.3-1.2-.7-1.7c-.9-.9-2.5-.9-3.4 0-.4.5-.7 1-.7 1.7s.3 1.2.7 1.7c.5.5 1 .7 1.7.7.5.1 1.2-.2 1.7-.7zm6.7 6.8a2.4 2.4 0 0 0 0-3.4c-.9-.9-2.5-.9-3.4 0-.4.4-.7 1-.7 1.7s.3 1.2.7 1.7c.5.5 1 .7 1.7.7s1.2-.3 1.7-.7zm6.3 6.7c.5-.4.7-1 .7-1.7s-.3-1.2-.7-1.7c-.9-.9-2.5-.9-3.4 0-.4.5-.7 1-.7 1.7s.3 1.3.7 1.7c.5.5 1 .7 1.7.7.6 0 1.3-.2 1.7-.7zm7.1 6.7c.5-.4.7-1 .7-1.7s-.3-1.2-.7-1.7c-.9-.9-2.5-.9-3.4 0-.5.5-.7 1-.7 1.7s.3 1.3.7 1.7c.4.4 1 .7 1.7.7s1.3-.2 1.7-.7zm6.7 6.7c.5-.5.8-1 .8-1.7s-.3-1.2-.8-1.7c-1-.9-2.6-.9-3.5 0-.5.5-.8 1-.8 1.7s.3 1.2.8 1.7c.5.4 1.2.7 1.8.7.5.1 1.1-.2 1.7-.7zM41.3 27.3a40.9 40.9 0 0 1 45.2 0l14.4-14.4a59.5 59.5 0 0 0-73.9 0l14.3 14.4zM26.9 86.4a39.8 39.8 0 0 1 0-44.8L12.6 27.3a59.6 59.6 0 0 0 .1 73.7l14.2-14.6zm59.5 14.3c-6.8 4.6-14.3 7-22.4 7.1-8.3 0-15.9-2.2-22.7-7l-14.4 14.3A58 58 0 0 0 64 128a59.9 59.9 0 0 0 36.7-12.9l-14.3-14.4zm14.1-59.3a40.2 40.2 0 0 1 0 44.8l14.4 14.3a58.6 58.6 0 0 0 0-73.7l-14.4 14.6zm15 63.8c5.5 0 10.1 4.5 10.1 10.1 0 5.5-4.5 10.1-10.1 10.1-5.5 0-10.1-4.5-10.1-10.1s4.5-10.1 10.1-10.1zm-103 0a10.1 10.1 0 0 1 0 20.2c-5.5 0-10-4.5-10-10.1s4.5-10.1 10-10.1zm103.2-103a10 10 0 0 1 10 10.1 10 10 0 0 1-10 10.1 10 10 0 0 1-10-10.1 10 10 0 0 1 10-10.1zm-103.4 0c5.5 0 10.1 4.5 10.1 10a10.1 10.1 0 0 1-20.2 0 10 10 0 0 1 10.1-10z" clip-rule="evenodd"/></svg>