<svg xmlns="http://www.w3.org/2000/svg" xml:space="preserve" x="0" y="0" viewBox="0 0 32 32"><style>.st0{fill:#fff}</style><circle cx="16.04" cy="16.01" r="15.69" class="st0"/><path d="M16.04 31.87a15.68 15.68 0 0 1-11.21-4.65 15.79 15.79 0 0 1-3.4-17.38A15.79 15.79 0 0 1 9.87 1.4a15.68 15.68 0 0 1 17.38 3.39 15.79 15.79 0 0 1 3.4 17.38 15.79 15.79 0 0 1-8.44 8.44 15.51 15.51 0 0 1-6.17 1.26zm0-31.37C7.48.5.52 7.46.52 16.01s6.96 15.52 15.52 15.52 15.52-6.96 15.52-15.52S24.6.5 16.04.5z"/><circle cx="16.04" cy="16.01" r="13.24"/><path d="M24.12 8.76v2.44c0 1.72-1.4 3.12-3.12 3.12h-7.49l.03.45v9.83H11.1a3.12 3.12 0 0 1-3.12-3.12v-9.75H8a3.04 3.04 0 0 1 3.04-2.96l13.08-.01z" class="st0"/><path d="M21.93 16.38a5.53 5.53 0 0 0-5.53 5.53 5.53 5.53 0 0 0 5.53-5.53z" class="st0"/></svg>