<svg version="1.1" id="logo_0_5" xmlns="http://www.w3.org/2000/svg" x="0px" y="0px"
    viewBox="0 0 36.7 36.7" xml:space="preserve">
  <!-- Círculo de fondo con color rojo original -->
  <circle cx="18.35" cy="18.35" r="18.35" fill="#E62058"/>
  <!-- Grupo que contiene el logo modificado, escalado y centrado -->
  <g transform="translate(9.18,9.18) scale(0.5)">
    <path d="M27.3,13.7H9.2c-5,0-9,3.9-9.2,8.9c0,0.1,0.1,0.2,0.2,0.2h18.1c5,0,9-3.9,9.2-8.9
      C27.5,13.8,27.4,13.7,27.3,13.7" fill="white"/>
    <path d="M36.4,0H9.2c-5,0-9,3.9-9.2,8.9C0,9,0.1,9.2,0.2,9.2h27.3c5,0,9-3.9,9.2-8.9
      C36.7,0.1,36.6,0,36.4,0" fill="white"/>
    <circle cx="4.6" cy="32" r="4.6" fill="white"/>
  </g>
</svg>