<?xml version="1.0" encoding="utf-8"?>
<svg version="1.1" id="LogoGrueso" xmlns="http://www.w3.org/2000/svg" viewBox="0 0 36.7 36.6" xml:space="preserve">
  <!-- Círculo de fondo en color rojo -->
  <circle cx="18.35" cy="18.3" r="18.3" fill="#E62058"/>
  <!-- Grupo con el logo en blanco escalado al 60% y centrado -->
  <g transform="translate(18.35,18.3) scale(0.6) translate(-18.35,-18.3)">
    <style type="text/css">
      .white { fill: #FFFFFF; }
    </style>
    <path class="white" d="M27.3,13.7H9.2c-5,0-9,3.9-9.2,8.9c0,0.1,0.1,0.2,0.2,0.2h18.1c5,0,9-3.9,9.2-8.9
    	C27.5,13.8,27.4,13.7,27.3,13.7z"/>
    <path class="white" d="M36.4,0H9.2c-5,0-9,3.9-9.2,8.9C0,9,0.1,9.2,0.2,9.2h27.3c5,0,9-3.9,9.2-8.9
    	C36.7,0.1,36.6,0,36.4,0z"/>
    <circle class="white" cx="4.6" cy="32" r="4.6"/>
  </g>
</svg>


