<svg xmlns="http://www.w3.org/2000/svg" viewBox="0 0 1022.2 1022.7"><linearGradient id="a" x1="345.3" x2="1017.3" y1="1018.4" y2="307.4" gradientUnits="userSpaceOnUse"><stop offset="0" stop-color="#0e9de5"/><stop offset=".2" stop-color="#10a3dc"/><stop offset=".5" stop-color="#17b4c4"/><stop offset=".9" stop-color="#22d09c"/><stop offset="1" stop-color="#26db8d"/></linearGradient><path fill="#041742" d="M765.8 510.6c-51.1-10.8-223.9-40.5-407.5 53.3A619.5 619.5 0 0 0 99.8 815.5C-53.2 605.6-27 314.3 156 139.6 330.4-27 605-47.5 807.3 94.5l-130 84.5a367.9 367.9 0 0 0-130-38.5 376.4 376.4 0 0 0-228.5 52c-23.4 14.1-135.9 85.3-171 230.5a374.6 374.6 0 0 0 12 212.3 458.8 458.8 0 0 1 96.6-89.2c-3.4-26.7-7.3-88 25.4-151.8 41-79.9 128.1-141.7 230.9-140.8 112.9 1 200.8 77.4 235 160a242 242 0 0 1 18.1 97.1z"/><path fill="url(#a)" d="M299.3 655a521.2 521.2 0 0 1 175.1-90.1A550.6 550.6 0 0 1 632.8 544a626 626 0 0 1 130 13.5c-3.6 19.7-20.3 98-93.5 155.5a258.8 258.8 0 0 1-273.5 27.5 254.2 254.2 0 0 1-96.5-85.5zm203 367.6a511 511 0 0 0 259.5-65.2 506.3 506.3 0 0 0 136-112.5c27.5-32.1 121.8-149.9 124.4-327A519 519 0 0 0 927 213l-84.2 129.4a372.3 372.3 0 0 1-68.5 430.5 372.2 372.2 0 0 1-431 68.5l-132 86a524.7 524.7 0 0 0 291 95.2z"/></svg>