<svg xmlns="http://www.w3.org/2000/svg" viewBox="0 0 148 148"><defs/><defs><linearGradient id="a" x1="129.1" x2="19.1" y1="130.4" y2="21.9" gradientTransform="matrix(1 0 0 -1 0 150)" gradientUnits="userSpaceOnUse"><stop offset=".1" stop-color="#00edd3"/><stop offset=".4" stop-color="#1b456e"/></linearGradient><linearGradient id="b" x1="129.1" x2="52.1" y1="131.8" y2="53.9" gradientTransform="matrix(1 0 0 -1 0 150)" gradientUnits="userSpaceOnUse"><stop offset=".4" stop-color="#00edd3"/><stop offset=".9" stop-color="#1b456e"/></linearGradient></defs><path fill="url(#a)" d="M0 74a74 74 0 00148 .2v-.6a72.7 72.7 0 00-2-16.9 8 8 0 00-15.5 3.7 58.2 58.2 0 11-43-43 8 8 0 009.5-5.8A7.8 7.8 0 0091.2 2 74 74 0 002 56.7 75.7 75.7 0 000 74z"/><path fill="url(#b)" d="M111.6 19.5l-.3.3a11.9 11.9 0 00-3.2 7v2.3a21.3 21.3 0 01-23.4 19 20.6 20.6 0 01-2.8-.4 12 12 0 01-1.6-.4 25.4 25.4 0 00-7-.8A27.9 27.9 0 0055 54l-.8.8A27.7 27.7 0 1093.4 94a28.2 28.2 0 003-3.8 27.8 27.8 0 004.3-22.3 14.3 14.3 0 01-.4-1.5V66a21.4 21.4 0 0116-25.7 16 16 0 013-.4h.4a10 10 0 011.4-.1h.1a12 12 0 007.3-3.5c.5-.5 1-1 1.3-1.5a11.8 11.8 0 00-2.9-16.6 12 12 0 00-15.3 1.3z"/></svg>