<svg xmlns="http://www.w3.org/2000/svg" viewBox="0 0 2000 1996"><path d="M1000.5 1996l-11.4-5.7A2000.5 2000.5 0 0 1 66.9 782a1971 1971 0 0 1-49.6-248.1A2252.4 2252.4 0 0 1 0 280c0-14.3-2-12.4 11.5-19A1992.1 1992.1 0 0 1 755.1 14.6a2145.4 2145.4 0 0 1 293-14.3 1899 1899 0 0 1 164.2 10.5q411 44.4 771.4 246.2c3.8 2 6.6 3.9 10.5 5.8s5.7 4.7 5.7 9.5v14.3c-1 49.7-2.9 98.3-6.7 148a1946.4 1946.4 0 0 1-28.6 210A1944.6 1944.6 0 0 1 1829 1077q-147.5 330.7-402.8 588.8a1987.9 1987.9 0 0 1-409.5 319.8c-5.8 3.8-10.5 6.6-16.3 10.5z"/><path fill="#f7a800" d="M91.7 328.7a1782 1782 0 0 1 384.7-166 1826.6 1826.6 0 0 1 560.4-76.4c88.8 2 236.7 16.2 261.6 25.8 1 1.9-1 2.8-2.9 2.8-8.6 3.9-18.1 6.7-26.7 10.5A504.2 504.2 0 0 0 967 497.6a612.2 612.2 0 0 0-8.6 83c-1 42-4.8 84-17.2 125a426.7 426.7 0 0 1-313 297.8A425.3 425.3 0 0 1 147 768.7a136 136 0 0 1-10.5-31.5 1782 1782 0 0 1-32.5-187 1707.2 1707.2 0 0 1-13.3-209 54.4 54.4 0 0 0 1-12.5z"/><path fill="#67b2e8" d="M1499.8 1472c1.9-18 3.8-34.3 4.8-51.5a500.5 500.5 0 0 0-60.2-267.2 499.9 499.9 0 0 0-180.4-190c-6.7-4.7-14.3-8.5-21-13.3-106-66.8-170.9-161.3-193.8-284.4a422.1 422.1 0 0 1 317-487.7 421.3 421.3 0 0 1 228 7.7c62 19 121.3 44.8 180.5 72.5 41 19 80.2 40 119.3 62 4.8 2.9 8.6 4.8 14.3 8.6 0 3.8 1 6.7 1 10.5 0 50.6-2.8 102.1-6.6 152.7a1905.2 1905.2 0 0 1-33.4 221.4 1786.1 1786.1 0 0 1-250.2 600.3 1847 1847 0 0 1-107.8 148.9c-3.9 2.9-5.8 6.7-11.5 9.5"/><path fill="#00c4b3" d="M1000.5 1898.7c-14.3-5.8-58.2-32.5-105-64a1821 1821 0 0 1-288.3-239.5 1771.8 1771.8 0 0 1-232.9-294A1722.5 1722.5 0 0 1 216.8 991a59.3 59.3 0 0 1-2.9-9.5c4.8 2.8 6.7 3.8 9.6 5.7a487.8 487.8 0 0 0 106.9 64c48.7 21 99.3 35.2 152.7 40a508.4 508.4 0 0 0 304.6-64.9A450 450 0 0 1 947 973a424.5 424.5 0 0 1 460.1 299.6c31.5 106 22 209-26.7 309.3-6.7 13.3-12.4 25.7-19.1 38.1a66 66 0 0 1-15.3 21 1844.2 1844.2 0 0 1-332.2 250c-4.8 2.9-9.5 5.8-13.4 7.7z"/></svg>