<svg xmlns="http://www.w3.org/2000/svg" viewBox="0 0 2000 1735"><path fill="#2e9ad0" d="M1995 1695l-1-1-344-312 164-506v-15l-168-522-1-4v-1l-5-5c-1-2-3-4-6-5L1193 2l-3-2H632c-3 0-4 0-11 5a1690 1690 0 0 1-65 47L402 163 178 325v1l-9 8v6L0 859v15l169 521c0 4 1 7 4 10l5 4 440 319c2 3 5 5 8 5l7 2h554l2-2 3-1 429-311 339 308 8 5h18c3-2 7-4 9-8 3-4 5-10 5-15 0-6-2-12-5-16m-380-851l23-371 119 371h-142m142 47l-119 371-23-371h142M434 1311l142 330-337-245 195-85m517-932l224-307 154 355-378-48m429 45L1238 94l337 245-195 85m22 43l194-85-25 394v5l-169-314M243 781v-4l-25-395 115 51 79 34-169 314m890-733L908 357 681 48h452m418 843l-180 335-99-212-56-123h335m-335-47l155-335 180 335h-335M952 428l382 47-157 341-225-388m46 800l179-309 157 341-382 47 46-79M677 844l231-399 114 200 115 199H677m460 47l-229 399-116-200-115-199h460M820 501L639 816 482 475l381-47-43 73m42 807l-380-48 118-258 39-83 223 389M264 844l181-334 99 216 55 118H264m335 47l-154 335-181-335h335m972 63v1l25 398-115-51-78-34 168-314M239 339L576 95 434 424l-195-85m173 929l-193 85 24-398v-1l169 314m496 110l225 309H681l227-309m667 18l-337 245 142-330 195 85M485 427L639 72l224 307-378 48M57 844l119-371 23 371H57m142 47l-23 371L57 891h142m664 465l-224 307-154-355 378 48m466-48l-154 355-224-307 378-48"/></svg>