<?xml version="1.0" encoding="utf-8"?>
<!-- Generator: Adobe Illustrator 27.9.3, SVG Export Plug-In . SVG Version: 9.03 Build 53313)  -->
<svg version="1.1" id="katman_1" xmlns="http://www.w3.org/2000/svg" xmlns:xlink="http://www.w3.org/1999/xlink" x="0px" y="0px"
	 viewBox="0 0 216.4 216.6" style="enable-background:new 0 0 216.4 216.6;" xml:space="preserve">
<style type="text/css">
	.st0{fill:#00AEEF;}
	.st1{fill:#E31B23;}
	.st2{fill:#008FC5;}
	.st3{fill:#FDBB30;}
	.st4{fill:#54B948;}
	.st5{fill:#8DC63F;}
	.st6{fill:#F04D3C;}
	.st7{fill:#FFD200;}
</style>
<g>
	<path class="st0" d="M121.1,0.8c-4.2-0.5-8.5-0.8-12.9-0.8C68.9,0,34.5,21,15.5,52.3l35.1,43.2l86.8-35.8L121.1,0.8z"/>
	<polygon class="st1" points="137.4,59.8 50.6,95.6 103.4,160.6 154.8,122.9 	"/>
	<path class="st2" d="M15.5,52.4C5.6,68.7,0,87.9,0,108.3c0,2.7,0.1,5.4,0.3,8.1l50.3-20.8L15.5,52.4z"/>
	<path class="st3" d="M212.8,80.3c-11.3-42.2-47.4-74.2-91.7-79.4l33.7,122L212.8,80.3z"/>
	<path class="st4" d="M50.6,95.6L0.3,116.4c2.6,35.1,21.9,65.5,49.9,83.3l53.2-39.1L50.6,95.6z"/>
	<path class="st5" d="M50.2,199.7c16.8,10.7,36.7,16.9,58,16.9c12.5,0,24.5-2.1,35.7-6l-40.5-49.9L50.2,199.7z"/>
	<path class="st6" d="M154.7,122.9l-51.3,37.7l40.5,49.9c11.1-3.9,21.3-9.5,30.4-16.5L154.7,122.9z"/>
	<path class="st7" d="M154.7,122.9l19.6,71.1c25.7-19.9,42.1-50.9,42.1-85.7c0-9.7-1.3-19.1-3.7-28L154.7,122.9z"/>
</g>
</svg>
