<svg xmlns="http://www.w3.org/2000/svg" xml:space="preserve" viewBox="0 0 641.7 649"><style>.st1{fill:#fff}.st2{fill:none}.st4{fill:#ff9300}.st5{fill:#ff8300}</style><path fill="#f00500" d="M469.9 57.1a413.2 413.2 0 0 0-45.6 54.1l-4.3-1.4A312.1 312.1 0 0 0 343.6 95c-7.8-.6-36.9-.6-46.4 0a269.9 269.9 0 0 0-75.7 14.9l-2.8 1a407 407 0 0 0-47.1-53.7 327.4 327.4 0 0 1 294.3-2.1l4 2zm154.8 379.3a312.3 312.3 0 0 1-99.8 141.1 323.2 323.2 0 0 1-126.3 62.3 331 331 0 0 1-155.2 0A322.5 322.5 0 0 1 73.3 534.6a308.6 308.6 0 0 1-17.2-376.5c9.6 41.3 21.4 77.6 25.8 90.7l-1.1 2.2a362.6 362.6 0 0 0-38.9 141.1l-.1 1.9a87 87 0 0 0 2 30.5c7.5 28.5 30.6 59.9 66.8 90.7 59.3 50.4 139.7 86.8 200.6 91 63.5 4.3 157.2-32.8 219.6-87 9.8-8.7 19-17.9 27.6-27.7a151.7 151.7 0 0 0 15.1-20c.3-.2.6-.5.4-.7-.1-.1.1-.4.4-.5.3-.1.5-.3.4-.5s0-.4.4-.5c.3-.1.4-.4.3-.6-.1-.2 0-.4.2-.4s.4-.3.4-.5.2-.5.4-.5.4-.2.4-.4a262 262 0 0 0 9.6-17.1 138 138 0 0 0 11-35.9c.8-5.5 1.3-15.6.9-18l-.2-2.2-.5-8a293.3 293.3 0 0 0-41-139.9l-.4-.8c3.1-9.3 15.8-48.2 25.9-92.7l.2.2 1.5 2a314.8 314.8 0 0 1 45.5 92.4 312 312 0 0 1-4.6 189.5z"/><path d="M494.9 316.9c-.3 1.6-5 6.4-9.7 9.9-13.8 10.1-38.5 19.5-63.6 24-14.3 2.6-28.6 3-32.9.9-2.8-1.4-3.2-2.5-2.2-6.1 2.1-7.5 8.9-15.7 19.5-23.4 5.4-3.9 27.3-17.2 37.5-22.8a132.5 132.5 0 0 1 39.6-16c2.9-.4 6.4-.5 7.5 0 1.8.7 3.8 6 4.6 12.4.4 3.4.2 18.4-.3 21.1zM259.3 350c-.6 1.2-3.6 2.5-7 3s-13.8.2-19.7-.5a207 207 0 0 1-60.1-17.3c-9.2-4.5-15.8-9-20.7-13.9l-2.8-2.9-.3-3.8c-.5-6.6-.4-17 .4-20.7.5-3.1 1.6-6.1 3.1-8.8.8-1 .8-1 4.4-1 4.4 0 8.1.7 14.1 2.6 12.3 3.8 30.6 13 52.9 26.4 18.4 11 25.3 16.4 30.6 23.8 3.6 4.6 6 11.1 5.1 13.1zm141.6 139.2-2.7 10.8-2.7 10.5c-1.1.1-2.1.2-3.2.1h-3.2l-4.4 10.4-4.9 11.8-.6 1.4-2.1-3.4-2.1-3.4v-27.7l-.8.2a272.5 272.5 0 0 1-91.4.3c-.1.1 0 6.5.2 14.4l.3 14.2-1.7 2.6-1.8 2.7a67.6 67.6 0 0 1-9.2-21.1l-.7-2.9-3.1.2-3.1.3-.8-3.7-1.1-6.8-.3-3.2-2.6-2.3-3.3-2.8c-.5-.4-.7-1.1-.7-1.7v-1.2l12.5.1 12.5.1.4 1.3.4 1.3 4.3.2 16.8.5 12.5.3 3.2-5 3.3-5h4.2l-.1-10.4-.1-10.4-5.5-2.4c-17.7-7.8-28.1-16.7-32-27.5-.8-2.2-.8-3-1-13-.1-9.9-.1-10.8.6-13 1.4-5 5.3-8.9 10.3-10.2 1.7-.5 6.2-.5 29.8-.5l27.8.1 3.1 1.5c3.7 1.8 5.4 3.1 7.5 5.9 2.4 3.2 3.1 5.7 3.1 11.8a88 88 0 0 1-1.5 19.2c-1.3 4.1-3.3 8-5.8 11.5a53.3 53.3 0 0 1-22.4 15.7l-2.4.9.1 10.5.1 10.5 2.2.2 2.2.2 3 4.5 2.9 4.5h13.4c7.4 0 13.9.1 14.5.2 1 .2 1.2.1 2.2-1.6l1.2-1.8h11.5c8.6-.4 11.2-.2 11.2.1z"/><path d="M348.1 517.9c-1.9 1.1-3.2 1.6-3.5 1.4l-3.2-2.4-2.7-2.2-2.8 3c-6.1 6.6-6.3 6.9-8.1 7-2.8.3-3.4-.2-6.8-5.3l-3.2-4.8-2.8-.3-2.8-.3-1.3 2.7-1.3 2.7-2.3-.7c-1.8-.6-3.6-1.3-5.3-2.1l-3-1.5v-5.7l26.6.1 26.6.1.1 2.7c.1 3.2.2 3.1-4.2 5.6z"/><path d="m598.1 395.9-.2-2.2c-24-2.6-92.5-4.2-156.1 48.3 0 0-20.5-94-116.5-94s-131.6 94-131.6 94c-53.8-57.9-125.8-53.7-151.8-49.9l-.1 1.9a87 87 0 0 0 2 30.5c7.5 28.5 30.6 59.9 66.8 90.7 59.3 50.4 139.7 86.8 200.6 91 63.5 4.3 157.2-32.8 219.6-87 9.8-8.7 19-17.9 27.6-27.7a151.7 151.7 0 0 0 15.1-20c.3-.2.6-.5.4-.7-.1-.1.1-.4.4-.5.3-.1.5-.3.4-.5s0-.4.4-.5c.3-.1.4-.4.3-.6-.1-.2 0-.4.2-.4s.4-.3.4-.5.2-.5.4-.5.4-.2.4-.4a262 262 0 0 0 9.6-17.1 138 138 0 0 0 11-35.9c.6-5.5 1.1-15.6.7-18zm-250 122c-1.9 1.1-3.2 1.6-3.5 1.4l-3.2-2.4-2.7-2.2-2.8 3c-6.1 6.6-6.3 6.9-8.1 7-2.8.3-3.4-.2-6.8-5.3l-3.2-4.8-2.8-.3-2.8-.3-1.3 2.7-1.3 2.7-2.3-.7c-1.8-.6-3.6-1.3-5.3-2.1l-3-1.5v-5.7l26.6.1 26.6.1.1 2.7c.1 3.2.2 3.1-4.2 5.6zm50-18-2.7 10.5c-1.1.1-2.1.2-3.2.1H389l-4.3 10.5-4.9 11.8-.6 1.4-2.1-3.4-2.1-3.4v-27.7l-.8.2a272.5 272.5 0 0 1-91.4.3c-.1.1 0 6.5.2 14.4l.3 14.2-1.7 2.6-1.8 2.7a67.6 67.6 0 0 1-9.2-21.1l-.7-2.9-3.1.2-3.1.3-.8-3.7-1.1-6.8-.3-3.2-2.6-2.3-3.3-2.8c-.5-.4-.7-1.1-.7-1.7v-1.2l12.5.1 12.5.1.4 1.3.4 1.3 4.3.2 16.8.5 12.5.3 3.2-5 3.3-5h4.2l-.1-10.4-.1-10.4-5.5-2.4c-17.7-7.8-28.1-16.7-32-27.5-.8-2.2-.8-3-1-13-.1-9.9-.1-10.8.6-13 1.4-5 5.3-8.9 10.3-10.2 1.7-.5 6.2-.5 29.8-.5l27.8.1 3.1 1.5c3.7 1.8 5.4 3.1 7.5 5.9 2.4 3.2 3.1 5.7 3.1 11.8a88 88 0 0 1-1.5 19.2c-1.3 4.1-3.3 8-5.8 11.5a53.3 53.3 0 0 1-22.4 15.7l-2.4.9.1 10.5.1 10.5 2.2.2 2.2.2 3 4.5 2.9 4.5h13.4c7.4 0 13.9.1 14.5.2 1 .2 1.2.1 2.2-1.6l1.2-1.8h11.5c8.9 0 11.5.1 11.5.4-.3-.1-1.6 4.8-3.1 10.4z" class="st1"/><path d="M41.7 392.1c-6.3.9-10 1.9-10 1.9m575.1 1s-3.2-.7-8.9-1.3" class="st2"/><path fill="#ffa409" d="M597.3 385.7a293.3 293.3 0 0 0-41-139.9l-.4-.8c3.1-9.3 15.8-48.2 25.9-92.7 13.7-60.4 22.4-131-4.2-152.2 0 0-46-3.4-107.6 57a413.2 413.2 0 0 0-45.6 54.1l-4.3-1.4A312.1 312.1 0 0 0 343.7 95c-7.8-.6-36.9-.6-46.4 0a269.9 269.9 0 0 0-75.7 14.9l-2.8 1a407 407 0 0 0-47.1-53.7C107.6-3.5 59.9 0 59.9 0c-28.2 21.9-18.6 95.7-4 158.1 9.6 41.3 21.4 77.6 25.8 90.7l-1.1 2.2a362.6 362.6 0 0 0-38.9 141.1c26.1-3.8 98-8.1 151.9 49.9 0 0 35.6-94 131.6-94s116.5 94 116.5 94a213.1 213.1 0 0 1 156.1-48.3l-.5-8zM100.6 211.1S63.2 117.6 72.8 64.2c1.6-9 4.6-16.9 9.3-22.9 0 0 42.4 4.2 110.8 80.2 0 0-13 6.3-30.4 19.7l-.2.1a240.4 240.4 0 0 0-61.7 69.8zM259.3 350c-.6 1.2-3.6 2.5-7 3s-13.8.2-19.7-.5a207 207 0 0 1-60.1-17.3c-9.2-4.5-15.8-9-20.7-13.9l-2.8-2.9-.3-3.8c-.5-6.6-.4-17 .4-20.7.5-3.1 1.6-6.1 3.1-8.8.8-1 .8-1 4.4-1 4.4 0 8.1.7 14.1 2.6 12.3 3.8 30.6 13 52.9 26.4 18.4 11 25.3 16.4 30.6 23.8 3.6 4.6 6 11.1 5.1 13.1zm235.6-33.1c-.3 1.6-5 6.4-9.7 9.9-13.8 10.1-38.5 19.5-63.6 24-14.3 2.6-28.6 3-32.9.9-2.8-1.4-3.2-2.5-2.2-6.1 2.1-7.5 8.9-15.7 19.5-23.4 5.4-3.9 27.3-17.2 37.5-22.8a132.5 132.5 0 0 1 39.6-16c2.9-.4 6.4-.5 7.5 0 1.8.7 3.8 6 4.6 12.4.4 3.4.2 18.4-.3 21.1zm-16.6-175.7-.2-.1c-16.8-13.4-29.4-19.7-29.4-19.7 66.1-76 107-80.2 107-80.2a54.2 54.2 0 0 1 9 22.9c9.3 53.4-26.8 147-26.8 147a238.2 238.2 0 0 0-59.6-69.9z"/><path d="m424.3 111.2-.5.7m132 133-.7 2.1" class="st2"/><path d="M564.8 64.1c-7.8-1-44.7-1.2-86.5 77.1l-.2-.1c-16.8-13.4-29.4-19.7-29.4-19.7 66.1-76 107-80.2 107-80.2a53 53 0 0 1 9.1 22.9z" class="st4"/><path d="M538 211.1a237.3 237.3 0 0 0-59.7-69.9c41.8-78.3 78.6-78.1 86.5-77.1 9.3 53.5-26.8 147-26.8 147zm28.3-146.7-1.5-.3 1.5.3z" class="st5"/><path d="m221.8 115.1-3.1-4.2m-137 137.9 1.8 5.2" class="st2"/><path d="M192.9 121.4s-13 6.3-30.4 19.7l-.2.1C119 62.8 80.9 63.1 72.7 64.1c1.6-9 4.6-16.9 9.3-22.9.1 0 42.5 4.2 110.9 80.2z" class="st4"/><path d="M162.4 141.2a239.7 239.7 0 0 0-61.8 69.9s-37.4-93.5-27.8-147c8.1-1 46.3-1.2 89.6 77.1zM72.8 64.1l-1.6.3 1.6-.3z" class="st5"/><path d="M436.8 263s-32 2-28-23 29-28 36-27 35 11 30 32-12 17-16 18-22 0-22 0zm-236 0s-32 2-28-23 29-28 36-27 35 11 30 32-12 17-16 18-22 0-22 0z" class="st1"/></svg>