<svg xmlns="http://www.w3.org/2000/svg" viewBox="0 0 1000 1000"><defs/><path fill="#00ffad" d="M706 373c-3 4-8 6-13 6H229c-17 0-25-20-14-32l77-79c3-4 8-6 13-6h466c17 0 25 20 13 32l-78 79zm0 353c-3 3-8 5-13 5H229c-17 0-25-19-14-31l77-77c3-4 8-6 13-6h466c17 0 25 20 13 32l-78 77zm-13-286c5 0 10 2 13 5l78 77c12 12 4 31-13 31H305c-5 0-10-2-13-5l-77-77c-11-12-3-31 14-31h464z"/><path d="M500 0a500 500 0 110 1000A500 500 0 01500 0z"/><linearGradient id="a" x1="242.5" x2="755.7" y1="232.7" y2="745.8" gradientTransform="matrix(1 0 0 -1 0 1000)" gradientUnits="userSpaceOnUse"><stop offset="0" stop-color="#cb4ee8"/><stop offset="1" stop-color="#10f4b1"/></linearGradient><path fill="url(#a)" fill-rule="evenodd" d="M231 452h463c6 0 11 3 15 7l73 73c14 14 4 37-15 37H304c-5 0-11-2-15-6l-73-74c-14-13-4-37 15-37zm-15-97l73-74c4-4 10-6 15-6h463c19 0 29 23 15 36l-73 74c-4 4-9 6-15 6H231c-19 0-29-23-15-36zm566 312l-73 74c-4 4-10 6-15 6H231c-19 0-29-23-15-37l73-73c4-5 10-7 15-7h463c19 0 29 23 15 37z" clip-rule="evenodd"/></svg>