<svg xmlns="http://www.w3.org/2000/svg" fill-rule="evenodd" clip-rule="evenodd" image-rendering="optimizeQuality" shape-rendering="geometricPrecision" text-rendering="geometricPrecision" viewBox="0 0 3167 3028"><defs/><defs><style>.fil0{fill:#008dd0}</style></defs><g><g><path d="M2876 1147a1557 1557 0 00-668-352h-2c-686-187-931 255-375 533 631 316 719 833 363 1156-91 82-386 236-657 273-431 60-909-31-1297-155 225 174 467 290 710 356 606 167 1338 44 1822-377 489-425 535-1027 104-1434zm-668-352l6 2-6-2z" class="fil0"/><path d="M888 150h1a2063 2063 0 012038 277c-725-231-1288-211-1657-62l-6 2c-455 186-613 568-415 913 107 186 295 325 487 421 505 253 350 640-197 570-56-8-116-20-180-37C-115 1940-273 1028 394 448c138-120 306-221 494-298z" class="fil0"/></g></g></svg>