<?xml version="1.0" encoding="UTF-8"?>
<!DOCTYPE svg PUBLIC "-//W3C//DTD SVG 1.1//EN" "http://www.w3.org/Graphics/SVG/1.1/DTD/svg11.dtd">
<svg xmlns="http://www.w3.org/2000/svg" version="1.1" width="250px" height="248px" style="shape-rendering:geometricPrecision; text-rendering:geometricPrecision; image-rendering:optimizeQuality; fill-rule:evenodd; clip-rule:evenodd" xmlns:xlink="http://www.w3.org/1999/xlink">
<g><path style="opacity:1" fill="#828282" d="M 38.5,-0.5 C 41.5,-0.5 44.5,-0.5 47.5,-0.5C 48.0818,1.66867 48.0818,4.00201 47.5,6.5C 46.5,6.5 45.5,6.5 44.5,6.5C 44.7373,5.20895 44.404,4.20895 43.5,3.5C 42.0855,3.90596 40.9188,3.2393 40,1.5C 39.5,2.66667 38.6667,3.5 37.5,4C 40.1856,6.54634 41.1856,9.713 40.5,13.5C 39.0256,12.5637 38.0256,11.2303 37.5,9.5C 36.8368,7.19644 36.1702,4.86311 35.5,2.5C 36.2739,1.28882 37.1072,1.28882 38,2.5C 38.4828,1.55198 38.6495,0.551975 38.5,-0.5 Z"/></g>
<g><path style="opacity:1" fill="#1c1c1b" d="M 64.5,-0.5 C 83.1667,-0.5 101.833,-0.5 120.5,-0.5C 114.101,7.03775 110.434,15.7044 109.5,25.5C 93.6204,25.5528 84.9537,33.3861 83.5,49C 83.9153,64.5818 91.9153,72.0818 107.5,71.5C 99.3455,74.0252 92.5121,72.0252 87,65.5C 86.4926,66.9961 86.9926,68.1627 88.5,69C 85.3146,67.7656 83.3146,68.9323 82.5,72.5C 82.7093,73.086 83.0426,73.586 83.5,74C 82.2068,74.49 80.8734,74.6567 79.5,74.5C 80.5747,73.2866 81.2414,71.7866 81.5,70C 79.9538,56.8512 78.6204,43.6845 77.5,30.5C 73.1578,30.7395 68.8244,31.0728 64.5,31.5C 66.4935,46.1024 67.8269,60.769 68.5,75.5C 65.3716,76.6319 62.0382,77.4652 58.5,78C 56.6997,79.8119 55.0331,81.6452 53.5,83.5C 52.5,84.1667 51.5,84.8333 50.5,85.5C 48.1667,85.5 45.8333,85.5 43.5,85.5C 41.369,84.6862 39.0356,84.1862 36.5,84C 38.5848,82.4736 38.5848,80.6402 36.5,78.5C 34.5914,77.6518 32.5914,77.3184 30.5,77.5C 34.4308,77.0692 38.0974,75.7359 41.5,73.5C 41.7135,75.1439 41.3802,76.6439 40.5,78C 42.1341,78.4935 43.8008,78.6602 45.5,78.5C 44.9022,73.187 44.5688,67.8537 44.5,62.5C 49.8333,62.1667 55.1667,61.8333 60.5,61.5C 60.4476,57.8019 60.1143,54.1352 59.5,50.5C 54.8189,50.6686 50.1522,51.0019 45.5,51.5C 44.5,51.5 43.5,51.5 42.5,51.5C 42.298,49.0504 42.6314,46.717 43.5,44.5C 49.8844,44.2435 56.2177,43.5768 62.5,42.5C 62.5,39.1667 62.5,35.8333 62.5,32.5C 60.5,32.5 58.5,32.5 56.5,32.5C 55.448,32.6495 54.448,32.4828 53.5,32C 54.7305,30.5952 56.0639,29.4286 57.5,28.5C 59.7966,26.7059 61.9633,24.7059 64,22.5C 66.1667,17.5 68.3333,12.5 70.5,7.5C 68.8603,4.53189 66.8603,1.86522 64.5,-0.5 Z"/></g>
<g><path style="opacity:1" fill="#b9b9b8" d="M 47.5,-0.5 C 51.8333,-0.5 56.1667,-0.5 60.5,-0.5C 60.6641,2.1873 60.4974,4.85397 60,7.5C 59.6174,8.05596 59.1174,8.38929 58.5,8.5C 57.7354,8.07658 56.9021,7.74325 56,7.5C 54.6057,8.61326 53.439,9.9466 52.5,11.5C 51.8076,10.9747 51.3076,10.3081 51,9.5C 48.4718,12.5852 46.6385,12.9185 45.5,10.5C 44.2638,11.2458 42.9305,11.5792 41.5,11.5C 41.8583,8.7334 42.525,6.06674 43.5,3.5C 44.404,4.20895 44.7373,5.20895 44.5,6.5C 45.5,6.5 46.5,6.5 47.5,6.5C 48.0818,4.00201 48.0818,1.66867 47.5,-0.5 Z"/></g>
<g><path style="opacity:1" fill="#949494" d="M 131.5,2.5 C 132.552,2.35055 133.552,2.51722 134.5,3C 132.416,4.77085 130.082,6.10418 127.5,7C 137.597,6.96976 137.764,8.80309 128,12.5C 126.273,15.6179 125.439,18.9513 125.5,22.5C 125.167,23.1667 124.833,23.8333 124.5,24.5C 120.993,26.1936 117.327,27.0269 113.5,27C 115.036,25.4006 115.536,23.5672 115,21.5C 113.119,24.3509 112.285,24.0175 112.5,20.5C 113.033,16.8854 114.367,16.2188 116.5,18.5C 117.41,16.3451 118.577,14.3451 120,12.5C 120.984,14.7947 121.817,14.4614 122.5,11.5C 120.682,7.71421 119.182,8.04754 118,12.5C 116.925,5.40329 119.759,2.73662 126.5,4.5C 128.557,4.5643 130.223,3.89763 131.5,2.5 Z"/></g>
<g><path style="opacity:1" fill="#e6e6e6" d="M 164.5,-0.5 C 169.833,-0.5 175.167,-0.5 180.5,-0.5C 186.013,5.22708 184.847,9.56042 177,12.5C 175.878,15.8716 177.045,17.8716 180.5,18.5C 180.5,22.1667 180.5,25.8333 180.5,29.5C 179.766,30.7079 179.433,32.0413 179.5,33.5C 178.778,33.0825 178.278,32.4158 178,31.5C 177.667,31.8333 177.333,32.1667 177,32.5C 175.457,29.1782 174.291,25.6782 173.5,22C 175.667,19.2859 175.334,16.7859 172.5,14.5C 172.039,12.4496 171.372,10.4496 170.5,8.5C 170.957,7.70245 171.624,7.36912 172.5,7.5C 174.026,6.89527 175.026,5.72861 175.5,4C 171.744,2.4469 168.078,0.946902 164.5,-0.5 Z"/></g>
<g><path style="opacity:1" fill="#262626" d="M 43.5,3.5 C 42.525,6.06674 41.8583,8.7334 41.5,11.5C 41.6716,12.4916 41.3382,13.1583 40.5,13.5C 41.1856,9.713 40.1856,6.54634 37.5,4C 38.6667,3.5 39.5,2.66667 40,1.5C 40.9188,3.2393 42.0855,3.90596 43.5,3.5 Z"/></g>
<g><path style="opacity:1" fill="#848484" d="M 61.5,2.5 C 67.8982,7.39922 67.7316,12.0659 61,16.5C 57.7309,14.2383 54.2309,13.905 50.5,15.5C 50.8212,13.9519 51.8212,13.2852 53.5,13.5C 57.2407,14.4015 59.2407,13.0681 59.5,9.5C 60.8734,9.65668 62.2068,9.49001 63.5,9C 61.9837,7.10301 61.317,4.93635 61.5,2.5 Z"/></g>
<g><path style="opacity:1" fill="#828282" d="M 172.5,7.5 C 171.624,7.36912 170.957,7.70245 170.5,8.5C 171.372,10.4496 172.039,12.4496 172.5,14.5C 171.703,15.4782 171.036,15.1449 170.5,13.5C 166.117,12.4877 161.784,11.3211 157.5,10C 162.213,8.55603 166.713,6.7227 171,4.5C 173.578,4.68237 174.078,5.68237 172.5,7.5 Z"/></g>
<g><path style="opacity:1" fill="#a8a8a8" d="M 35.5,-0.5 C 36.5,-0.5 37.5,-0.5 38.5,-0.5C 38.6495,0.551975 38.4828,1.55198 38,2.5C 37.1072,1.28882 36.2739,1.28882 35.5,2.5C 36.1702,4.86311 36.8368,7.19644 37.5,9.5C 36.0285,13.9192 35.3618,18.5859 35.5,23.5C 35.1667,23.5 34.8333,23.5 34.5,23.5C 31.9655,19.2277 30.6321,19.561 30.5,24.5C 29.209,24.2627 28.209,24.596 27.5,25.5C 26.2749,24.8478 25.6083,23.6811 25.5,22C 25.9459,18.8249 26.4459,15.6582 27,12.5C 27.6995,10.968 28.8662,9.96798 30.5,9.5C 31.697,5.31715 33.3636,1.98382 35.5,-0.5 Z"/></g>
<g><path style="opacity:1" fill="#e0e0e0" d="M 154.5,17.5 C 152.833,17.5 151.167,17.5 149.5,17.5C 149.53,16.5028 149.03,15.8361 148,15.5C 145.061,16.6227 142.561,18.2893 140.5,20.5C 139.065,22.665 139.731,24.165 142.5,25C 146.26,25.9065 149.926,26.0732 153.5,25.5C 155.411,24.925 157.078,23.925 158.5,22.5C 159.5,22.5 160.5,22.5 161.5,22.5C 162.404,23.209 162.737,24.209 162.5,25.5C 162.454,28.4317 162.954,31.0984 164,33.5C 161.393,34.1233 158.893,34.79 156.5,35.5C 155.5,35.8333 154.833,36.5 154.5,37.5C 154.228,35.7712 154.228,34.1045 154.5,32.5C 152.719,35.0912 150.719,37.4245 148.5,39.5C 146.883,40.038 145.216,40.3713 143.5,40.5C 143.785,38.712 143.452,37.0453 142.5,35.5C 139.956,33.3709 137.122,31.7042 134,30.5C 131.109,34.0029 129.276,38.0029 128.5,42.5C 127.167,42.5 125.833,42.5 124.5,42.5C 122.07,39.6367 122.07,36.8033 124.5,34C 124.333,33.5 124.167,33 124,32.5C 120.89,33.6734 120.723,33.1734 123.5,31C 113.647,33.2717 113.314,32.4384 122.5,28.5C 123.837,27.6851 124.837,26.5185 125.5,25C 125.272,24.6012 124.938,24.4346 124.5,24.5C 124.833,23.8333 125.167,23.1667 125.5,22.5C 126.949,19.6617 128.615,16.8284 130.5,14C 136.496,11.0856 142.663,8.58558 149,6.5C 149.167,6.83333 149.333,7.16667 149.5,7.5C 148.5,8.16667 147.5,8.83333 146.5,9.5C 150.577,10.3174 154.577,11.3174 158.5,12.5C 158.5,13.8333 158.5,15.1667 158.5,16.5C 156.901,16.2322 155.568,16.5655 154.5,17.5 Z"/></g>
<g><path style="opacity:1" fill="#222322" d="M 60.5,-0.5 C 60.8333,-0.5 61.1667,-0.5 61.5,-0.5C 61.5,0.5 61.5,1.5 61.5,2.5C 61.317,4.93635 61.9837,7.10301 63.5,9C 62.2068,9.49001 60.8734,9.65668 59.5,9.5C 59.2407,13.0681 57.2407,14.4015 53.5,13.5C 54.2625,12.7321 55.2625,12.2321 56.5,12C 56.1667,11.6667 55.8333,11.3333 55.5,11C 56.9423,10.6232 57.9423,9.78991 58.5,8.5C 59.1174,8.38929 59.6174,8.05596 60,7.5C 60.4974,4.85397 60.6641,2.1873 60.5,-0.5 Z"/></g>
<g><path style="opacity:1" fill="#484847" d="M 58.5,8.5 C 57.9423,9.78991 56.9423,10.6232 55.5,11C 55.8333,11.3333 56.1667,11.6667 56.5,12C 55.2625,12.2321 54.2625,12.7321 53.5,13.5C 51.8212,13.2852 50.8212,13.9519 50.5,15.5C 49.0048,15.9887 47.6715,16.6554 46.5,17.5C 45.8333,17.1667 45.1667,16.8333 44.5,16.5C 43.1667,15.5 41.8333,14.5 40.5,13.5C 41.3382,13.1583 41.6716,12.4916 41.5,11.5C 42.9305,11.5792 44.2638,11.2458 45.5,10.5C 46.6385,12.9185 48.4718,12.5852 51,9.5C 51.3076,10.3081 51.8076,10.9747 52.5,11.5C 53.439,9.9466 54.6057,8.61326 56,7.5C 56.9021,7.74325 57.7354,8.07658 58.5,8.5 Z"/></g>
<g><path style="opacity:1" fill="#d5d5d5" d="M 61.5,-0.5 C 62.5,-0.5 63.5,-0.5 64.5,-0.5C 66.8603,1.86522 68.8603,4.53189 70.5,7.5C 68.3333,12.5 66.1667,17.5 64,22.5C 61.9633,24.7059 59.7966,26.7059 57.5,28.5C 56.7326,27.828 56.0659,26.9947 55.5,26C 52.69,25.6385 50.0233,24.8051 47.5,23.5C 46.5344,21.604 46.2011,19.604 46.5,17.5C 47.6715,16.6554 49.0048,15.9887 50.5,15.5C 54.2309,13.905 57.7309,14.2383 61,16.5C 67.7316,12.0659 67.8982,7.39922 61.5,2.5C 61.5,1.5 61.5,0.5 61.5,-0.5 Z"/></g>
<g><path style="opacity:1" fill="#b7b7b6" d="M 143.5,-0.5 C 150.5,-0.5 157.5,-0.5 164.5,-0.5C 168.078,0.946902 171.744,2.4469 175.5,4C 175.026,5.72861 174.026,6.89527 172.5,7.5C 174.078,5.68237 173.578,4.68237 171,4.5C 166.713,6.7227 162.213,8.55603 157.5,10C 161.784,11.3211 166.117,12.4877 170.5,13.5C 171.036,15.1449 171.703,15.4782 172.5,14.5C 175.334,16.7859 175.667,19.2859 173.5,22C 174.291,25.6782 175.457,29.1782 177,32.5C 177.333,32.1667 177.667,31.8333 178,31.5C 178.278,32.4158 178.778,33.0825 179.5,33.5C 177.648,40.5868 175.482,47.5868 173,54.5C 172.502,57.4816 172.335,60.4816 172.5,63.5C 171.5,63.5 170.5,63.5 169.5,63.5C 170.734,57.1876 170.734,50.8543 169.5,44.5C 169.369,43.7611 169.536,43.0944 170,42.5C 170.376,45.0101 171.21,47.3435 172.5,49.5C 172.833,47.8333 173.167,46.1667 173.5,44.5C 172.829,40.1591 172.163,35.8258 171.5,31.5C 172.117,31.6107 172.617,31.944 173,32.5C 173.74,31.2506 173.573,30.2506 172.5,29.5C 172.586,28.5041 172.252,27.6708 171.5,27C 172.956,26.5774 173.456,25.7441 173,24.5C 171.814,22.3234 169.981,21.3234 167.5,21.5C 166.003,20.6942 164.336,20.0276 162.5,19.5C 161.614,20.325 161.281,21.325 161.5,22.5C 160.5,22.5 159.5,22.5 158.5,22.5C 158.5,21.5 158.5,20.5 158.5,19.5C 156.801,19.4729 155.467,18.8062 154.5,17.5C 155.568,16.5655 156.901,16.2322 158.5,16.5C 158.5,15.1667 158.5,13.8333 158.5,12.5C 154.577,11.3174 150.577,10.3174 146.5,9.5C 147.5,8.83333 148.5,8.16667 149.5,7.5C 149.333,7.16667 149.167,6.83333 149,6.5C 142.663,8.58558 136.496,11.0856 130.5,14C 128.615,16.8284 126.949,19.6617 125.5,22.5C 125.439,18.9513 126.273,15.6179 128,12.5C 137.764,8.80309 137.597,6.96976 127.5,7C 130.082,6.10418 132.416,4.77085 134.5,3C 133.552,2.51722 132.552,2.35055 131.5,2.5C 133.605,1.18105 135.605,1.51439 137.5,3.5C 139.634,1.402 141.968,0.568667 144.5,1C 143.944,0.617425 143.611,0.117425 143.5,-0.5 Z"/></g>
<g><path style="opacity:1" fill="#999998" d="M 149.5,17.5 C 148.76,19.4053 148.76,21.072 149.5,22.5C 146.998,23.3139 144.498,23.6472 142,23.5C 141.768,22.2625 141.268,21.2625 140.5,20.5C 142.561,18.2893 145.061,16.6227 148,15.5C 149.03,15.8361 149.53,16.5028 149.5,17.5 Z"/></g>
<g><path style="opacity:1" fill="#131313" d="M -0.5,-0.5 C 9.83333,-0.5 20.1667,-0.5 30.5,-0.5C 25.3514,12.9968 21.6848,26.9968 19.5,41.5C 19.1226,44.5076 17.7893,47.0076 15.5,49C 12.3829,50.9733 9.21628,52.8067 6,54.5C 4.94096,59.9616 3.77429,65.295 2.5,70.5C 2.63101,69.7611 2.46434,69.0944 2,68.5C 1.90054,70.6526 1.0672,72.3192 -0.5,73.5C -0.5,48.8333 -0.5,24.1667 -0.5,-0.5 Z"/></g>
<g><path style="opacity:1" fill="#1f1f1f" d="M 149.5,17.5 C 151.167,17.5 152.833,17.5 154.5,17.5C 155.467,18.8062 156.801,19.4729 158.5,19.5C 158.5,20.5 158.5,21.5 158.5,22.5C 157.078,23.925 155.411,24.925 153.5,25.5C 152.564,24.0256 151.23,23.0256 149.5,22.5C 148.76,21.072 148.76,19.4053 149.5,17.5 Z"/></g>
<g><path style="opacity:1" fill="#dadada" d="M 37.5,9.5 C 38.0256,11.2303 39.0256,12.5637 40.5,13.5C 41.8333,14.5 43.1667,15.5 44.5,16.5C 44.5,19.8333 44.5,23.1667 44.5,26.5C 42.857,26.4802 41.5237,27.1468 40.5,28.5C 38.0544,27.4756 36.3877,25.8089 35.5,23.5C 35.3618,18.5859 36.0285,13.9192 37.5,9.5 Z"/></g>
<g><path style="opacity:1" fill="#191919" d="M 167.5,21.5 C 168.398,22.1577 169.398,22.8243 170.5,23.5C 168.922,24.2978 167.256,24.7978 165.5,25C 166.833,25.6667 166.833,26.3333 165.5,27C 168.06,27.3838 170.394,28.2171 172.5,29.5C 173.573,30.2506 173.74,31.2506 173,32.5C 172.617,31.944 172.117,31.6107 171.5,31.5C 168.876,30.5058 166.21,29.5058 163.5,28.5C 163.737,27.209 163.404,26.209 162.5,25.5C 162.737,24.209 162.404,23.209 161.5,22.5C 161.281,21.325 161.614,20.325 162.5,19.5C 164.336,20.0276 166.003,20.6942 167.5,21.5 Z"/></g>
<g><path style="opacity:1" fill="#464646" d="M 140.5,20.5 C 141.268,21.2625 141.768,22.2625 142,23.5C 144.498,23.6472 146.998,23.3139 149.5,22.5C 151.23,23.0256 152.564,24.0256 153.5,25.5C 149.926,26.0732 146.26,25.9065 142.5,25C 139.731,24.165 139.065,22.665 140.5,20.5 Z"/></g>
<g><path style="opacity:1" fill="#cfcfce" d="M 120.5,-0.5 C 128.167,-0.5 135.833,-0.5 143.5,-0.5C 143.611,0.117425 143.944,0.617425 144.5,1C 141.968,0.568667 139.634,1.402 137.5,3.5C 135.605,1.51439 133.605,1.18105 131.5,2.5C 130.223,3.89763 128.557,4.5643 126.5,4.5C 119.759,2.73662 116.925,5.40329 118,12.5C 119.182,8.04754 120.682,7.71421 122.5,11.5C 121.817,14.4614 120.984,14.7947 120,12.5C 118.577,14.3451 117.41,16.3451 116.5,18.5C 114.367,16.2188 113.033,16.8854 112.5,20.5C 112.285,24.0175 113.119,24.3509 115,21.5C 115.536,23.5672 115.036,25.4006 113.5,27C 117.327,27.0269 120.993,26.1936 124.5,24.5C 124.938,24.4346 125.272,24.6012 125.5,25C 124.837,26.5185 123.837,27.6851 122.5,28.5C 122.265,27.9033 121.765,27.5699 121,27.5C 118.865,28.1271 116.698,28.6271 114.5,29C 112.61,30.0781 111.61,31.7448 111.5,34C 111.464,38.872 111.964,43.7053 113,48.5C 113.928,51.0352 115.762,52.0352 118.5,51.5C 121.962,52.2766 124.628,54.2766 126.5,57.5C 127.899,62.981 129.899,68.3144 132.5,73.5C 131.923,75.5499 130.59,76.5499 128.5,76.5C 127.542,76.0472 126.708,75.3805 126,74.5C 125.517,75.448 125.351,76.448 125.5,77.5C 124.041,77.5674 122.708,77.2341 121.5,76.5C 123.94,73.5114 122.94,71.8447 118.5,71.5C 118.5,73.1667 118.5,74.8333 118.5,76.5C 117.833,76.5 117.167,76.5 116.5,76.5C 116.672,75.5084 116.338,74.8417 115.5,74.5C 113.949,72.0872 113.283,69.4206 113.5,66.5C 113.383,64.5165 114.05,62.8498 115.5,61.5C 114.995,60.0815 113.995,59.4148 112.5,59.5C 113.798,57.0912 113.131,55.4245 110.5,54.5C 110.296,51.4824 109.963,48.4824 109.5,45.5C 109.5,44.5 109.5,43.5 109.5,42.5C 109.795,40.2646 109.461,38.2646 108.5,36.5C 109.244,32.8815 109.577,29.2148 109.5,25.5C 110.434,15.7044 114.101,7.03775 120.5,-0.5 Z"/></g>
<g><path style="opacity:1" fill="#404040" d="M 167.5,21.5 C 169.981,21.3234 171.814,22.3234 173,24.5C 173.456,25.7441 172.956,26.5774 171.5,27C 172.252,27.6708 172.586,28.5041 172.5,29.5C 170.394,28.2171 168.06,27.3838 165.5,27C 166.833,26.3333 166.833,25.6667 165.5,25C 167.256,24.7978 168.922,24.2978 170.5,23.5C 169.398,22.8243 168.398,22.1577 167.5,21.5 Z"/></g>
<g><path style="opacity:1" fill="#e8dda3" d="M 214.5,18.5 C 213.842,17.6016 213.176,16.6016 212.5,15.5C 208.421,16.3247 204.088,17.158 199.5,18C 198.896,21.5012 198.563,25.0012 198.5,28.5C 198.167,29.1667 197.833,29.8333 197.5,30.5C 196.571,29.3112 196.238,27.9778 196.5,26.5C 195.178,26.33 194.011,26.6634 193,27.5C 191.819,29.6753 190.652,31.842 189.5,34C 190.093,37.1514 190.593,40.318 191,43.5C 191.991,42.0611 193.324,41.0611 195,40.5C 195.167,41.1667 195.333,41.8333 195.5,42.5C 193.376,44.6053 191.71,46.9386 190.5,49.5C 189.187,43.0408 188.521,36.3741 188.5,29.5C 185.833,29.5 183.167,29.5 180.5,29.5C 180.5,25.8333 180.5,22.1667 180.5,18.5C 191.778,16.8374 203.111,15.504 214.5,14.5C 214.5,15.8333 214.5,17.1667 214.5,18.5 Z"/></g>
<g><path style="opacity:1" fill="#333333" d="M 44.5,26.5 C 46.9514,27.8943 49.6181,28.7276 52.5,29C 51.7334,30.4705 51.0668,31.9705 50.5,33.5C 50.1667,33.5 49.8333,33.5 49.5,33.5C 42.5515,34.5739 40.8849,32.2405 44.5,26.5 Z"/></g>
<g><path style="opacity:1" fill="#111111" d="M 180.5,-0.5 C 203.5,-0.5 226.5,-0.5 249.5,-0.5C 249.5,22.1667 249.5,44.8333 249.5,67.5C 240.271,67.8774 231.438,68.5441 223,69.5C 221.653,67.8068 221.153,66.1402 221.5,64.5C 220.83,66.2914 220.163,67.9581 219.5,69.5C 219.5,68.1667 219.5,66.8333 219.5,65.5C 205.452,66.3394 191.452,67.6727 177.5,69.5C 177.5,72.1667 177.5,74.8333 177.5,77.5C 177.5,78.8333 177.5,80.1667 177.5,81.5C 179.415,81.7845 181.081,81.4511 182.5,80.5C 186.179,80.2756 189.846,79.9422 193.5,79.5C 193.578,86.515 193.911,93.515 194.5,100.5C 194.785,102.288 194.452,103.955 193.5,105.5C 188.423,102.295 183.09,99.6284 177.5,97.5C 175.602,88.6425 174.602,79.6425 174.5,70.5C 170.466,70.5045 166.466,70.8379 162.5,71.5C 162.833,70.5 163.5,69.8333 164.5,69.5C 165.833,68.8333 166.833,67.8333 167.5,66.5C 168.906,66.0269 169.573,65.0269 169.5,63.5C 170.5,63.5 171.5,63.5 172.5,63.5C 172.335,60.4816 172.502,57.4816 173,54.5C 175.482,47.5868 177.648,40.5868 179.5,33.5C 179.433,32.0413 179.766,30.7079 180.5,29.5C 183.167,29.5 185.833,29.5 188.5,29.5C 188.521,36.3741 189.187,43.0408 190.5,49.5C 190.5,53.1667 190.5,56.8333 190.5,60.5C 194.857,60.4135 199.19,60.0802 203.5,59.5C 202.977,49.622 201.977,39.7886 200.5,30C 200.755,28.6739 201.422,27.6739 202.5,27C 206.491,26.3583 210.491,25.8583 214.5,25.5C 214.5,23.1667 214.5,20.8333 214.5,18.5C 214.5,17.1667 214.5,15.8333 214.5,14.5C 203.111,15.504 191.778,16.8374 180.5,18.5C 177.045,17.8716 175.878,15.8716 177,12.5C 184.847,9.56042 186.013,5.22708 180.5,-0.5 Z"/></g>
<g><path style="opacity:1" fill="#969694" d="M 44.5,16.5 C 45.1667,16.8333 45.8333,17.1667 46.5,17.5C 46.2011,19.604 46.5344,21.604 47.5,23.5C 50.0233,24.8051 52.69,25.6385 55.5,26C 56.0659,26.9947 56.7326,27.828 57.5,28.5C 56.0639,29.4286 54.7305,30.5952 53.5,32C 54.448,32.4828 55.448,32.6495 56.5,32.5C 54.7354,33.4614 52.7354,33.7947 50.5,33.5C 51.0668,31.9705 51.7334,30.4705 52.5,29C 49.6181,28.7276 46.9514,27.8943 44.5,26.5C 44.5,23.1667 44.5,19.8333 44.5,16.5 Z"/></g>
<g><path style="opacity:1" fill="#6f6f6f" d="M 162.5,25.5 C 163.404,26.209 163.737,27.209 163.5,28.5C 166.21,29.5058 168.876,30.5058 171.5,31.5C 172.163,35.8258 172.829,40.1591 173.5,44.5C 173.167,46.1667 172.833,47.8333 172.5,49.5C 171.21,47.3435 170.376,45.0101 170,42.5C 169.536,43.0944 169.369,43.7611 169.5,44.5C 168.07,44.5792 166.736,44.2458 165.5,43.5C 165.24,42.0951 164.907,40.7618 164.5,39.5C 164.67,38.1779 164.337,37.0113 163.5,36C 161.19,35.5034 158.857,35.3367 156.5,35.5C 158.893,34.79 161.393,34.1233 164,33.5C 162.954,31.0984 162.454,28.4317 162.5,25.5 Z"/></g>
<g><path style="opacity:1" fill="#5d5d5d" d="M 34.5,23.5 C 34.1961,24.1499 33.8627,24.8165 33.5,25.5C 34.567,27.5586 35.9004,29.392 37.5,31C 36.5,31.3333 35.5,31.6667 34.5,32C 34.8333,32.3333 35.1667,32.6667 35.5,33C 33.2852,34.0438 30.9519,34.7105 28.5,35C 28.8333,35.3333 29.1667,35.6667 29.5,36C 28.0563,36.7805 26.723,36.6139 25.5,35.5C 25.7218,32.2871 27.3885,30.4538 30.5,30C 29.4734,29.4867 28.4734,28.9867 27.5,28.5C 26.6236,28.6309 25.9569,28.2975 25.5,27.5C 26.376,26.7492 27.376,26.2492 28.5,26C 28.2716,25.6012 27.9382,25.4346 27.5,25.5C 28.209,24.596 29.209,24.2627 30.5,24.5C 30.6321,19.561 31.9655,19.2277 34.5,23.5 Z"/></g>
<g><path style="opacity:1" fill="#9a9a99" d="M 43.5,34.5 C 42.9883,38.0349 42.9883,41.3682 43.5,44.5C 42.6314,46.717 42.298,49.0504 42.5,51.5C 43.5,51.5 44.5,51.5 45.5,51.5C 45.1583,52.3382 44.4916,52.6716 43.5,52.5C 43.1667,52.5 42.8333,52.5 42.5,52.5C 41.5269,50.0521 41.1936,47.3854 41.5,44.5C 40.3114,43.2049 39.4781,41.2049 39,38.5C 37.433,43.8909 36.2664,43.7243 35.5,38C 36.2335,36.2341 36.5668,34.4008 36.5,32.5C 38.9653,32.767 41.2986,33.4336 43.5,34.5 Z"/></g>
<g><path style="opacity:1" fill="#cccccc" d="M 30.5,-0.5 C 32.1667,-0.5 33.8333,-0.5 35.5,-0.5C 33.3636,1.98382 31.697,5.31715 30.5,9.5C 28.8662,9.96798 27.6995,10.968 27,12.5C 26.4459,15.6582 25.9459,18.8249 25.5,22C 25.6083,23.6811 26.2749,24.8478 27.5,25.5C 27.9382,25.4346 28.2716,25.6012 28.5,26C 27.376,26.2492 26.376,26.7492 25.5,27.5C 25.9569,28.2975 26.6236,28.6309 27.5,28.5C 23.4813,35.5756 21.4813,43.2422 21.5,51.5C 20.5,51.5 19.5,51.5 18.5,51.5C 20.1876,48.1397 20.5209,44.8064 19.5,41.5C 21.6848,26.9968 25.3514,12.9968 30.5,-0.5 Z"/></g>
<g><path style="opacity:1" fill="#7a7974" d="M 103.5,37.5 C 104.919,36.5489 106.585,36.2155 108.5,36.5C 109.461,38.2646 109.795,40.2646 109.5,42.5C 108.549,41.0813 108.216,39.4147 108.5,37.5C 106.833,37.5 105.167,37.5 103.5,37.5 Z"/></g>
<g><path style="opacity:1" fill="#6c6c6c" d="M 154.5,37.5 C 154.167,38.1667 153.833,38.8333 153.5,39.5C 152.883,39.3893 152.383,39.056 152,38.5C 149.667,41.1667 147.333,43.8333 145,46.5C 145.798,44.1395 146.965,41.8061 148.5,39.5C 150.719,37.4245 152.719,35.0912 154.5,32.5C 154.228,34.1045 154.228,35.7712 154.5,37.5 Z"/></g>
<g><path style="opacity:1" fill="#151515" d="M 156.5,35.5 C 158.857,35.3367 161.19,35.5034 163.5,36C 164.337,37.0113 164.67,38.1779 164.5,39.5C 163.978,41.2191 162.978,42.5525 161.5,43.5C 160.056,40.1102 157.39,38.7768 153.5,39.5C 153.833,38.8333 154.167,38.1667 154.5,37.5C 154.833,36.5 155.5,35.8333 156.5,35.5 Z"/></g>
<g><path style="opacity:1" fill="#eae2af" d="M 56.5,32.5 C 58.5,32.5 60.5,32.5 62.5,32.5C 62.5,35.8333 62.5,39.1667 62.5,42.5C 56.2177,43.5768 49.8844,44.2435 43.5,44.5C 43.8666,39.9308 45.8666,36.5975 49.5,34.5C 49.5,34.1667 49.5,33.8333 49.5,33.5C 49.8333,33.5 50.1667,33.5 50.5,33.5C 52.7354,33.7947 54.7354,33.4614 56.5,32.5 Z"/></g>
<g><path style="opacity:1" fill="#eae8df" d="M 43.5,34.5 C 45.5,34.5 47.5,34.5 49.5,34.5C 45.8666,36.5975 43.8666,39.9308 43.5,44.5C 42.9883,41.3682 42.9883,38.0349 43.5,34.5 Z"/></g>
<g><path style="opacity:1" fill="#e7d48e" d="M 214.5,18.5 C 214.5,20.8333 214.5,23.1667 214.5,25.5C 210.491,25.8583 206.491,26.3583 202.5,27C 201.422,27.6739 200.755,28.6739 200.5,30C 201.977,39.7886 202.977,49.622 203.5,59.5C 199.19,60.0802 194.857,60.4135 190.5,60.5C 190.5,56.8333 190.5,53.1667 190.5,49.5C 191.71,46.9386 193.376,44.6053 195.5,42.5C 195.333,41.8333 195.167,41.1667 195,40.5C 193.324,41.0611 191.991,42.0611 191,43.5C 190.593,40.318 190.093,37.1514 189.5,34C 190.652,31.842 191.819,29.6753 193,27.5C 194.011,26.6634 195.178,26.33 196.5,26.5C 196.238,27.9778 196.571,29.3112 197.5,30.5C 197.833,29.8333 198.167,29.1667 198.5,28.5C 198.563,25.0012 198.896,21.5012 199.5,18C 204.088,17.158 208.421,16.3247 212.5,15.5C 213.176,16.6016 213.842,17.6016 214.5,18.5 Z"/></g>
<g><path style="opacity:1" fill="#d0d0d0" d="M 148.5,39.5 C 146.965,41.8061 145.798,44.1395 145,46.5C 147.333,43.8333 149.667,41.1667 152,38.5C 152.383,39.056 152.883,39.3893 153.5,39.5C 157.39,38.7768 160.056,40.1102 161.5,43.5C 161.611,44.1174 161.944,44.6174 162.5,45C 159.12,45.3386 155.787,45.8386 152.5,46.5C 150.901,46.2322 149.568,46.5655 148.5,47.5C 146.856,47.8102 145.856,48.8102 145.5,50.5C 143.896,51.287 143.229,52.6203 143.5,54.5C 138.169,54.8792 133.169,53.8792 128.5,51.5C 127.962,48.0955 126.629,45.0955 124.5,42.5C 125.833,42.5 127.167,42.5 128.5,42.5C 129.276,38.0029 131.109,34.0029 134,30.5C 137.122,31.7042 139.956,33.3709 142.5,35.5C 143.452,37.0453 143.785,38.712 143.5,40.5C 145.216,40.3713 146.883,40.038 148.5,39.5 Z"/></g>
<g><path style="opacity:1" fill="#454545" d="M 164.5,39.5 C 164.907,40.7618 165.24,42.0951 165.5,43.5C 166.736,44.2458 168.07,44.5792 169.5,44.5C 170.734,50.8543 170.734,57.1876 169.5,63.5C 169.573,65.0269 168.906,66.0269 167.5,66.5C 167.67,65.1779 167.337,64.0113 166.5,63C 163.898,61.8604 161.231,61.0271 158.5,60.5C 160.604,57.997 160.937,55.3303 159.5,52.5C 157.282,51.9841 155.282,50.9841 153.5,49.5C 156.897,48.5061 160.23,48.8395 163.5,50.5C 164.696,50.1543 164.696,49.6543 163.5,49C 159.759,47.9859 156.093,47.1526 152.5,46.5C 155.787,45.8386 159.12,45.3386 162.5,45C 161.944,44.6174 161.611,44.1174 161.5,43.5C 162.978,42.5525 163.978,41.2191 164.5,39.5 Z"/></g>
<g><path style="opacity:1" fill="#979797" d="M 122.5,28.5 C 113.314,32.4384 113.647,33.2717 123.5,31C 120.723,33.1734 120.89,33.6734 124,32.5C 124.167,33 124.333,33.5 124.5,34C 122.07,36.8033 122.07,39.6367 124.5,42.5C 126.629,45.0955 127.962,48.0955 128.5,51.5C 125.576,48.868 122.243,47.2013 118.5,46.5C 119.833,46.5 121.167,46.5 122.5,46.5C 121.833,42.5 121.167,38.5 120.5,34.5C 114.516,33.7524 113.183,36.0858 116.5,41.5C 115.559,41.4895 114.892,41.9895 114.5,43C 114.743,43.9021 115.077,44.7354 115.5,45.5C 115.586,46.4959 115.252,47.3292 114.5,48C 116.093,48.9487 117.426,50.1154 118.5,51.5C 115.762,52.0352 113.928,51.0352 113,48.5C 111.964,43.7053 111.464,38.872 111.5,34C 111.61,31.7448 112.61,30.0781 114.5,29C 116.698,28.6271 118.865,28.1271 121,27.5C 121.765,27.5699 122.265,27.9033 122.5,28.5 Z"/></g>
<g><path style="opacity:1" fill="#dbdbdb" d="M 118.5,46.5 C 117.391,46.4431 116.391,46.1098 115.5,45.5C 115.077,44.7354 114.743,43.9021 114.5,43C 114.892,41.9895 115.559,41.4895 116.5,41.5C 113.183,36.0858 114.516,33.7524 120.5,34.5C 121.167,38.5 121.833,42.5 122.5,46.5C 121.167,46.5 119.833,46.5 118.5,46.5 Z"/></g>
<g><path style="opacity:1" fill="#717171" d="M 34.5,23.5 C 34.8333,23.5 35.1667,23.5 35.5,23.5C 36.3877,25.8089 38.0544,27.4756 40.5,28.5C 41.5237,27.1468 42.857,26.4802 44.5,26.5C 40.8849,32.2405 42.5515,34.5739 49.5,33.5C 49.5,33.8333 49.5,34.1667 49.5,34.5C 47.5,34.5 45.5,34.5 43.5,34.5C 41.2986,33.4336 38.9653,32.767 36.5,32.5C 36.5668,34.4008 36.2335,36.2341 35.5,38C 36.2664,43.7243 37.433,43.8909 39,38.5C 39.4781,41.2049 40.3114,43.2049 41.5,44.5C 39.0873,44.659 36.5873,44.659 34,44.5C 32.2602,45.7158 31.2602,47.3825 31,49.5C 30.6139,38.9589 29.6139,38.9589 28,49.5C 27.0754,50.0465 26.2421,50.7132 25.5,51.5C 25.8333,51.8333 26.1667,52.1667 26.5,52.5C 27.8498,51.0499 29.5165,50.3832 31.5,50.5C 31.5,51.5 31.5,52.5 31.5,53.5C 29.901,53.2322 28.5676,53.5655 27.5,54.5C 23.8453,55.075 20.8453,54.075 18.5,51.5C 19.5,51.5 20.5,51.5 21.5,51.5C 21.4813,43.2422 23.4813,35.5756 27.5,28.5C 28.4734,28.9867 29.4734,29.4867 30.5,30C 27.3885,30.4538 25.7218,32.2871 25.5,35.5C 26.723,36.6139 28.0563,36.7805 29.5,36C 29.1667,35.6667 28.8333,35.3333 28.5,35C 30.9519,34.7105 33.2852,34.0438 35.5,33C 35.1667,32.6667 34.8333,32.3333 34.5,32C 35.5,31.6667 36.5,31.3333 37.5,31C 35.9004,29.392 34.567,27.5586 33.5,25.5C 33.8627,24.8165 34.1961,24.1499 34.5,23.5 Z"/></g>
<g><path style="opacity:1" fill="#3f3f3f" d="M 148.5,47.5 C 149.791,47.2627 150.791,47.596 151.5,48.5C 149.5,49.5 147.5,50.5 145.5,51.5C 145.5,51.1667 145.5,50.8333 145.5,50.5C 145.856,48.8102 146.856,47.8102 148.5,47.5 Z"/></g>
<g><path style="opacity:1" fill="#1c1c1b" d="M 103.5,37.5 C 105.167,37.5 106.833,37.5 108.5,37.5C 108.216,39.4147 108.549,41.0813 109.5,42.5C 109.5,43.5 109.5,44.5 109.5,45.5C 107.833,45.5 106.167,45.5 104.5,45.5C 104.5,48.5 104.5,51.5 104.5,54.5C 106.5,54.5 108.5,54.5 110.5,54.5C 113.131,55.4245 113.798,57.0912 112.5,59.5C 99.4031,62.2387 93.9031,56.9053 96,43.5C 97.4802,40.1828 99.9802,38.1828 103.5,37.5 Z"/></g>
<g><path style="opacity:1" fill="#959595" d="M 148.5,47.5 C 149.568,46.5655 150.901,46.2322 152.5,46.5C 156.093,47.1526 159.759,47.9859 163.5,49C 164.696,49.6543 164.696,50.1543 163.5,50.5C 160.23,48.8395 156.897,48.5061 153.5,49.5C 155.282,50.9841 157.282,51.9841 159.5,52.5C 155.441,52.5659 151.441,52.7326 147.5,53C 149.455,52.0467 151.122,50.7134 152.5,49C 152.272,48.6012 151.938,48.4346 151.5,48.5C 150.791,47.596 149.791,47.2627 148.5,47.5 Z"/></g>
<g><path style="opacity:1" fill="#4b4b4b" d="M 41.5,44.5 C 41.1936,47.3854 41.5269,50.0521 42.5,52.5C 40.6086,55.1717 37.9419,56.1717 34.5,55.5C 32.1944,55.0074 29.861,54.6741 27.5,54.5C 28.5676,53.5655 29.901,53.2322 31.5,53.5C 31.5,52.5 31.5,51.5 31.5,50.5C 29.5165,50.3832 27.8498,51.0499 26.5,52.5C 26.1667,52.1667 25.8333,51.8333 25.5,51.5C 26.2421,50.7132 27.0754,50.0465 28,49.5C 29.6139,38.9589 30.6139,38.9589 31,49.5C 31.2602,47.3825 32.2602,45.7158 34,44.5C 36.5873,44.659 39.0873,44.659 41.5,44.5 Z"/></g>
<g><path style="opacity:1" fill="#e8e8e8" d="M 19.5,41.5 C 20.5209,44.8064 20.1876,48.1397 18.5,51.5C 20.8453,54.075 23.8453,55.075 27.5,54.5C 29.861,54.6741 32.1944,55.0074 34.5,55.5C 34.9175,56.2216 35.5842,56.7216 36.5,57C 33.3769,60.1108 29.7102,62.4442 25.5,64C 27.1341,64.4935 28.8008,64.6602 30.5,64.5C 30.4809,66.0603 30.1476,67.5603 29.5,69C 27.4411,70.498 26.1078,72.498 25.5,75C 26.756,75.4169 27.4226,76.2502 27.5,77.5C 19.8613,78.5246 12.1947,78.6912 4.5,78C 3.09001,77.6322 2.09001,76.7989 1.5,75.5C 2.30937,73.9291 2.64271,72.2624 2.5,70.5C 3.77429,65.295 4.94096,59.9616 6,54.5C 9.21628,52.8067 12.3829,50.9733 15.5,49C 17.7893,47.0076 19.1226,44.5076 19.5,41.5 Z"/></g>
<g><path style="opacity:1" fill="#e5ddae" d="M 109.5,45.5 C 109.963,48.4824 110.296,51.4824 110.5,54.5C 108.5,54.5 106.5,54.5 104.5,54.5C 104.5,51.5 104.5,48.5 104.5,45.5C 106.167,45.5 107.833,45.5 109.5,45.5 Z"/></g>
<g><path style="opacity:1" fill="#d9dad9" d="M 151.5,48.5 C 151.938,48.4346 152.272,48.6012 152.5,49C 151.122,50.7134 149.455,52.0467 147.5,53C 151.441,52.7326 155.441,52.5659 159.5,52.5C 159.631,53.3764 159.298,54.0431 158.5,54.5C 154.814,55.9714 151.148,57.3047 147.5,58.5C 145.833,58.1667 144.167,57.8333 142.5,57.5C 144.415,55.9288 145.415,53.9288 145.5,51.5C 147.5,50.5 149.5,49.5 151.5,48.5 Z"/></g>
<g><path style="opacity:1" fill="#e9e0ac" d="M 41.5,73.5 C 41.3407,66.4107 42.0073,59.4107 43.5,52.5C 44.4916,52.6716 45.1583,52.3382 45.5,51.5C 50.1522,51.0019 54.8189,50.6686 59.5,50.5C 60.1143,54.1352 60.4476,57.8019 60.5,61.5C 55.1667,61.8333 49.8333,62.1667 44.5,62.5C 44.5688,67.8537 44.9022,73.187 45.5,78.5C 43.8008,78.6602 42.1341,78.4935 40.5,78C 41.3802,76.6439 41.7135,75.1439 41.5,73.5 Z"/></g>
<g><path style="opacity:1" fill="#a3a3a3" d="M 145.5,50.5 C 145.5,50.8333 145.5,51.1667 145.5,51.5C 145.415,53.9288 144.415,55.9288 142.5,57.5C 144.167,57.8333 145.833,58.1667 147.5,58.5C 151.148,57.3047 154.814,55.9714 158.5,54.5C 159.298,54.0431 159.631,53.3764 159.5,52.5C 160.937,55.3303 160.604,57.997 158.5,60.5C 152.158,60.6662 145.825,60.4995 139.5,60C 138.179,56.3327 135.513,54.6661 131.5,55C 130.29,53.9609 129.29,52.7942 128.5,51.5C 133.169,53.8792 138.169,54.8792 143.5,54.5C 143.229,52.6203 143.896,51.287 145.5,50.5 Z"/></g>
<g><path style="opacity:1" fill="#e8dda6" d="M 109.5,25.5 C 109.577,29.2148 109.244,32.8815 108.5,36.5C 106.585,36.2155 104.919,36.5489 103.5,37.5C 99.9802,38.1828 97.4802,40.1828 96,43.5C 93.9031,56.9053 99.4031,62.2387 112.5,59.5C 113.995,59.4148 114.995,60.0815 115.5,61.5C 114.05,62.8498 113.383,64.5165 113.5,66.5C 110.885,67.4499 108.885,69.1165 107.5,71.5C 91.9153,72.0818 83.9153,64.5818 83.5,49C 84.9537,33.3861 93.6204,25.5528 109.5,25.5 Z"/></g>
<g><path style="opacity:1" fill="#cacac9" d="M 42.5,52.5 C 42.8333,52.5 43.1667,52.5 43.5,52.5C 42.0073,59.4107 41.3407,66.4107 41.5,73.5C 38.0974,75.7359 34.4308,77.0692 30.5,77.5C 29.5,77.5 28.5,77.5 27.5,77.5C 27.4226,76.2502 26.756,75.4169 25.5,75C 26.1078,72.498 27.4411,70.498 29.5,69C 30.1476,67.5603 30.4809,66.0603 30.5,64.5C 28.8008,64.6602 27.1341,64.4935 25.5,64C 29.7102,62.4442 33.3769,60.1108 36.5,57C 35.5842,56.7216 34.9175,56.2216 34.5,55.5C 37.9419,56.1717 40.6086,55.1717 42.5,52.5 Z"/></g>
<g><path style="opacity:1" fill="#ebe1ab" d="M 79.5,74.5 C 75.8212,74.7244 72.1545,75.0578 68.5,75.5C 67.8269,60.769 66.4935,46.1024 64.5,31.5C 68.8244,31.0728 73.1578,30.7395 77.5,30.5C 78.6204,43.6845 79.9538,56.8512 81.5,70C 81.2414,71.7866 80.5747,73.2866 79.5,74.5 Z"/></g>
<g><path style="opacity:1" fill="#232323" d="M 158.5,60.5 C 161.231,61.0271 163.898,61.8604 166.5,63C 167.337,64.0113 167.67,65.1779 167.5,66.5C 166.833,67.8333 165.833,68.8333 164.5,69.5C 164.44,68.9569 164.107,68.6236 163.5,68.5C 158.967,70.2002 155.967,73.3669 154.5,78C 152.953,78.3334 151.62,77.8334 150.5,76.5C 149.831,78.6309 149.165,80.6309 148.5,82.5C 147.841,79.5448 147.508,76.5448 147.5,73.5C 145.167,73.5 142.833,73.5 140.5,73.5C 141.263,72.7321 142.263,72.2321 143.5,72C 140.114,70.9723 137.448,68.9723 135.5,66C 136.899,65.4054 138.232,65.5721 139.5,66.5C 140.364,64.8035 141.697,63.6368 143.5,63C 148.681,62.3998 153.681,61.5665 158.5,60.5 Z"/></g>
<g><path style="opacity:1" fill="#474848" d="M 115.5,45.5 C 116.391,46.1098 117.391,46.4431 118.5,46.5C 122.243,47.2013 125.576,48.868 128.5,51.5C 129.29,52.7942 130.29,53.9609 131.5,55C 135.513,54.6661 138.179,56.3327 139.5,60C 145.825,60.4995 152.158,60.6662 158.5,60.5C 153.681,61.5665 148.681,62.3998 143.5,63C 141.697,63.6368 140.364,64.8035 139.5,66.5C 138.232,65.5721 136.899,65.4054 135.5,66C 137.448,68.9723 140.114,70.9723 143.5,72C 142.263,72.2321 141.263,72.7321 140.5,73.5C 135.073,71.8993 131.906,68.2326 131,62.5C 129.951,60.3825 128.451,58.7158 126.5,57.5C 124.628,54.2766 121.962,52.2766 118.5,51.5C 117.426,50.1154 116.093,48.9487 114.5,48C 115.252,47.3292 115.586,46.4959 115.5,45.5 Z"/></g>
<g><path style="opacity:1" fill="#888682" d="M 126.5,57.5 C 128.451,58.7158 129.951,60.3825 131,62.5C 131.906,68.2326 135.073,71.8993 140.5,73.5C 138.735,74.4614 136.735,74.7947 134.5,74.5C 134.5,76.8333 134.5,79.1667 134.5,81.5C 131.891,80.5569 129.891,78.8903 128.5,76.5C 130.59,76.5499 131.923,75.5499 132.5,73.5C 129.899,68.3144 127.899,62.981 126.5,57.5 Z"/></g>
<g><path style="opacity:1" fill="#040404" d="M 2.5,70.5 C 2.64271,72.2624 2.30937,73.9291 1.5,75.5C 2.09001,76.7989 3.09001,77.6322 4.5,78C 12.1947,78.6912 19.8613,78.5246 27.5,77.5C 28.5,77.5 29.5,77.5 30.5,77.5C 32.5914,77.3184 34.5914,77.6518 36.5,78.5C 38.5848,80.6402 38.5848,82.4736 36.5,84C 39.0356,84.1862 41.369,84.6862 43.5,85.5C 40.4816,85.3354 37.4816,85.502 34.5,86C 33.8922,87.231 33.5589,88.5643 33.5,90C 35.0935,103.477 36.4269,116.977 37.5,130.5C 39.8333,130.5 42.1667,130.5 44.5,130.5C 49.971,130.303 53.971,132.636 56.5,137.5C 50.4791,138.003 44.4791,138.669 38.5,139.5C 39.3192,147.482 39.9858,155.482 40.5,163.5C 40.1193,164.931 39.1193,165.764 37.5,166C 28.0127,168.309 18.6794,167.975 9.5,165C 7.66667,163.833 6.16667,162.333 5,160.5C 3.01376,154.683 2.01376,148.683 2,142.5C 1.43381,140.277 0.600473,138.277 -0.5,136.5C -0.5,115.5 -0.5,94.5 -0.5,73.5C 1.0672,72.3192 1.90054,70.6526 2,68.5C 2.46434,69.0944 2.63101,69.7611 2.5,70.5 Z"/></g>
<g><path style="opacity:1" fill="#504d3b" d="M 115.5,74.5 C 116.338,74.8417 116.672,75.5084 116.5,76.5C 114.167,76.5 111.833,76.5 109.5,76.5C 111.5,75.8333 113.5,75.1667 115.5,74.5 Z"/></g>
<g><path style="opacity:1" fill="#898887" d="M 121.5,76.5 C 121.167,76.5 120.833,76.5 120.5,76.5C 119.833,76.5 119.167,76.5 118.5,76.5C 118.5,74.8333 118.5,73.1667 118.5,71.5C 122.94,71.8447 123.94,73.5114 121.5,76.5 Z"/></g>
<g><path style="opacity:1" fill="#e5d086" d="M 219.5,69.5 C 219.5,71.8333 219.5,74.1667 219.5,76.5C 214.713,76.3484 210.046,77.015 205.5,78.5C 206.439,82.7649 206.772,87.0983 206.5,91.5C 206.45,97.3895 207.116,103.056 208.5,108.5C 207.198,110.028 205.531,111.028 203.5,111.5C 200.833,111.5 198.167,111.5 195.5,111.5C 195.815,107.629 195.482,103.962 194.5,100.5C 193.911,93.515 193.578,86.515 193.5,79.5C 189.846,79.9422 186.179,80.2756 182.5,80.5C 181.167,80.5 179.833,80.5 178.5,80.5C 178.737,79.209 178.404,78.209 177.5,77.5C 177.5,74.8333 177.5,72.1667 177.5,69.5C 191.452,67.6727 205.452,66.3394 219.5,65.5C 219.5,66.8333 219.5,68.1667 219.5,69.5 Z"/></g>
<g><path style="opacity:1" fill="#373633" d="M 164.5,69.5 C 163.5,69.8333 162.833,70.5 162.5,71.5C 161.511,76.9753 161.178,82.642 161.5,88.5C 157.143,88.5865 152.81,88.9198 148.5,89.5C 148.5,87.1667 148.5,84.8333 148.5,82.5C 149.165,80.6309 149.831,78.6309 150.5,76.5C 151.62,77.8334 152.953,78.3334 154.5,78C 155.967,73.3669 158.967,70.2002 163.5,68.5C 164.107,68.6236 164.44,68.9569 164.5,69.5 Z"/></g>
<g><path style="opacity:1" fill="#776f53" d="M 177.5,77.5 C 178.404,78.209 178.737,79.209 178.5,80.5C 179.833,80.5 181.167,80.5 182.5,80.5C 181.081,81.4511 179.415,81.7845 177.5,81.5C 177.5,80.1667 177.5,78.8333 177.5,77.5 Z"/></g>
<g><path style="opacity:1" fill="#dfc880" d="M 177.5,97.5 C 177.19,100.713 177.523,103.713 178.5,106.5C 178.5,109.167 178.5,111.833 178.5,114.5C 174.168,115.097 169.835,115.263 165.5,115C 164.565,112.619 164.232,110.119 164.5,107.5C 164.279,104.933 163.612,102.599 162.5,100.5C 161.391,99.71 160.058,99.21 158.5,99C 159.696,98.3457 159.696,97.8457 158.5,97.5C 155.554,100.429 154.387,100.095 155,96.5C 151.92,97.7139 148.92,97.3806 146,95.5C 143.367,97.4562 140.7,99.4562 138,101.5C 137.617,100.944 137.117,100.611 136.5,100.5C 136.125,94.128 135.459,87.7947 134.5,81.5C 134.5,79.1667 134.5,76.8333 134.5,74.5C 136.735,74.7947 138.735,74.4614 140.5,73.5C 142.833,73.5 145.167,73.5 147.5,73.5C 147.508,76.5448 147.841,79.5448 148.5,82.5C 148.5,84.8333 148.5,87.1667 148.5,89.5C 152.81,88.9198 157.143,88.5865 161.5,88.5C 161.178,82.642 161.511,76.9753 162.5,71.5C 166.466,70.8379 170.466,70.5045 174.5,70.5C 174.602,79.6425 175.602,88.6425 177.5,97.5 Z"/></g>
<g><path style="opacity:1" fill="#dac680" d="M 109.5,76.5 C 111.833,76.5 114.167,76.5 116.5,76.5C 117.167,76.5 117.833,76.5 118.5,76.5C 119.167,76.5 119.833,76.5 120.5,76.5C 124.235,78.3759 127.902,80.5425 131.5,83C 130.283,84.6477 129.45,86.481 129,88.5C 128.184,89.8228 127.017,90.4894 125.5,90.5C 118.883,88.4259 112.216,88.0925 105.5,89.5C 105.083,88.8761 104.416,88.5427 103.5,88.5C 101.526,89.7041 99.5259,90.5375 97.5,91C 99.0843,88.1751 98.4176,86.0084 95.5,84.5C 96.1925,83.4822 96.8592,82.4822 97.5,81.5C 100.756,78.2097 104.756,76.543 109.5,76.5 Z"/></g>
<g><path style="opacity:1" fill="#0f0f0e" d="M 107.5,71.5 C 108.885,69.1165 110.885,67.4499 113.5,66.5C 113.283,69.4206 113.949,72.0872 115.5,74.5C 113.5,75.1667 111.5,75.8333 109.5,76.5C 104.756,76.543 100.756,78.2097 97.5,81.5C 95.2843,82.2026 93.451,83.5359 92,85.5C 87.5182,92.289 86.3515,99.6223 88.5,107.5C 88.5654,107.938 88.3988,108.272 88,108.5C 86.9966,106.065 86.4966,106.398 86.5,109.5C 87.4308,114.029 88.9308,118.362 91,122.5C 94.7795,126.437 97.9461,130.77 100.5,135.5C 100.5,135.833 100.5,136.167 100.5,136.5C 96.9911,138.665 94.6578,141.665 93.5,145.5C 93.4641,141.021 92.6307,136.688 91,132.5C 90.0053,133.066 89.172,133.733 88.5,134.5C 84.6255,134.356 80.7921,134.69 77,135.5C 75.6244,135.684 74.7911,136.351 74.5,137.5C 73.5655,138.568 73.2322,139.901 73.5,141.5C 73.1667,141.5 72.8333,141.5 72.5,141.5C 72.5,139.5 72.5,137.5 72.5,135.5C 67.1798,136.239 61.8464,136.906 56.5,137.5C 53.971,132.636 49.971,130.303 44.5,130.5C 46.2646,129.539 48.2646,129.205 50.5,129.5C 50.5874,124.463 50.254,119.463 49.5,114.5C 53.438,116.469 57.438,118.469 61.5,120.5C 62.2508,119.624 62.7508,118.624 63,117.5C 64.6665,118.34 64.8331,117.84 63.5,116C 65.0468,115.667 66.3801,116.167 67.5,117.5C 68.2868,116.758 68.9535,115.925 69.5,115C 67.5313,113.5 66.198,111.667 65.5,109.5C 65.5,106.5 65.5,103.5 65.5,100.5C 59.5293,101.241 53.5293,101.575 47.5,101.5C 47.5,99.5 47.5,97.5 47.5,95.5C 54.3541,95.2646 61.0207,94.5979 67.5,93.5C 67.5,89.8333 67.5,86.1667 67.5,82.5C 62.8592,83.1266 58.1925,83.4599 53.5,83.5C 55.0331,81.6452 56.6997,79.8119 58.5,78C 62.0382,77.4652 65.3716,76.6319 68.5,75.5C 72.1545,75.0578 75.8212,74.7244 79.5,74.5C 80.8734,74.6567 82.2068,74.49 83.5,74C 83.0426,73.586 82.7093,73.086 82.5,72.5C 83.3146,68.9323 85.3146,67.7656 88.5,69C 86.9926,68.1627 86.4926,66.9961 87,65.5C 92.5121,72.0252 99.3455,74.0252 107.5,71.5 Z"/></g>
<g><path style="opacity:1" fill="#b4ad7f" d="M 83.5,90.5 C 82.79,88.1073 82.1233,85.6073 81.5,83C 77.8484,82.5014 74.1817,82.3347 70.5,82.5C 70.5,84.8333 70.5,87.1667 70.5,89.5C 69.5269,87.0521 69.1936,84.3854 69.5,81.5C 73.8757,81.3627 78.2091,81.196 82.5,81C 83.4505,84.0567 83.7839,87.2234 83.5,90.5 Z"/></g>
<g><path style="opacity:1" fill="#dfc982" d="M 67.5,93.5 C 64.1226,93.0405 60.7893,92.3739 57.5,91.5C 57.3328,88.0429 56.3328,87.7096 54.5,90.5C 55.09,91.7989 56.09,92.6322 57.5,93C 53.9399,94.2367 50.2733,94.7367 46.5,94.5C 46.7683,97.1194 46.435,99.6194 45.5,102C 44.5838,102.374 43.7504,102.874 43,103.5C 41.8963,98.6914 40.0629,98.3581 37.5,102.5C 37.1667,101.833 36.8333,101.167 36.5,100.5C 37.1667,99.1667 37.8333,97.8333 38.5,96.5C 37.8311,93.9722 36.9978,93.9722 36,96.5C 35.502,93.5184 35.3354,90.5184 35.5,87.5C 41.3531,87.8811 46.3531,87.2144 50.5,85.5C 51.5,84.8333 52.5,84.1667 53.5,83.5C 58.1925,83.4599 62.8592,83.1266 67.5,82.5C 67.5,86.1667 67.5,89.8333 67.5,93.5 Z"/></g>
<g><path style="opacity:1" fill="#0f0f0e" d="M 125.5,90.5 C 126.167,91.5 126.833,92.5 127.5,93.5C 125.052,94.4731 122.385,94.8064 119.5,94.5C 120.209,93.596 121.209,93.2627 122.5,93.5C 122.5,92.5 122.5,91.5 122.5,90.5C 117.766,90.6751 113.099,91.3418 108.5,92.5C 109.09,93.7989 110.09,94.6322 111.5,95C 110.584,95.2784 109.918,95.7784 109.5,96.5C 106.9,95.5324 104.566,94.1991 102.5,92.5C 103.167,91.1667 104.167,90.1667 105.5,89.5C 112.216,88.0925 118.883,88.4259 125.5,90.5 Z"/></g>
<g><path style="opacity:1" fill="#3f3e3a" d="M 119.5,94.5 C 116.373,95.5808 113.04,96.2474 109.5,96.5C 109.918,95.7784 110.584,95.2784 111.5,95C 110.09,94.6322 109.09,93.7989 108.5,92.5C 113.099,91.3418 117.766,90.6751 122.5,90.5C 122.5,91.5 122.5,92.5 122.5,93.5C 121.209,93.2627 120.209,93.596 119.5,94.5 Z"/></g>
<g><path style="opacity:1" fill="#393936" d="M 102.5,92.5 C 104.566,94.1991 106.9,95.5324 109.5,96.5C 109.5,97.8333 109.5,99.1667 109.5,100.5C 106.356,99.4267 103.356,98.0934 100.5,96.5C 100.66,94.847 101.326,93.5137 102.5,92.5 Z"/></g>
<g><path style="opacity:1" fill="#4b473c" d="M 158.5,101.5 C 159.568,100.566 160.901,100.232 162.5,100.5C 163.612,102.599 164.279,104.933 164.5,107.5C 162.861,105.194 160.861,103.194 158.5,101.5 Z"/></g>
<g><path style="opacity:1" fill="#e4d696" d="M 83.5,90.5 C 85.1059,102.104 86.1059,113.771 86.5,125.5C 82.1311,125.467 77.7978,125.8 73.5,126.5C 72.114,114.201 71.114,101.867 70.5,89.5C 70.5,87.1667 70.5,84.8333 70.5,82.5C 74.1817,82.3347 77.8484,82.5014 81.5,83C 82.1233,85.6073 82.79,88.1073 83.5,90.5 Z"/></g>
<g><path style="opacity:1" fill="#a2996f" d="M 206.5,91.5 C 207.884,96.9438 208.55,102.611 208.5,108.5C 207.116,103.056 206.45,97.3895 206.5,91.5 Z"/></g>
<g><path style="opacity:1" fill="#e1d294" d="M 43.5,85.5 C 45.8333,85.5 48.1667,85.5 50.5,85.5C 46.3531,87.2144 41.3531,87.8811 35.5,87.5C 35.3354,90.5184 35.502,93.5184 36,96.5C 36.9978,93.9722 37.8311,93.9722 38.5,96.5C 37.8333,97.8333 37.1667,99.1667 36.5,100.5C 36.8333,101.167 37.1667,101.833 37.5,102.5C 40.0629,98.3581 41.8963,98.6914 43,103.5C 43.7504,102.874 44.5838,102.374 45.5,102C 46.435,99.6194 46.7683,97.1194 46.5,94.5C 50.2733,94.7367 53.9399,94.2367 57.5,93C 56.09,92.6322 55.09,91.7989 54.5,90.5C 56.3328,87.7096 57.3328,88.0429 57.5,91.5C 60.7893,92.3739 64.1226,93.0405 67.5,93.5C 61.0207,94.5979 54.3541,95.2646 47.5,95.5C 47.5,97.5 47.5,99.5 47.5,101.5C 53.5293,101.575 59.5293,101.241 65.5,100.5C 65.5,103.5 65.5,106.5 65.5,109.5C 65.5,110.5 65.5,111.5 65.5,112.5C 59.9494,112.527 54.6161,113.194 49.5,114.5C 50.254,119.463 50.5874,124.463 50.5,129.5C 48.2646,129.205 46.2646,129.539 44.5,130.5C 42.1667,130.5 39.8333,130.5 37.5,130.5C 36.4269,116.977 35.0935,103.477 33.5,90C 33.5589,88.5643 33.8922,87.231 34.5,86C 37.4816,85.502 40.4816,85.3354 43.5,85.5 Z"/></g>
<g><path style="opacity:1" fill="#e6d99a" d="M 97.5,81.5 C 96.8592,82.4822 96.1925,83.4822 95.5,84.5C 98.4176,86.0084 99.0843,88.1751 97.5,91C 99.5259,90.5375 101.526,89.7041 103.5,88.5C 104.416,88.5427 105.083,88.8761 105.5,89.5C 104.167,90.1667 103.167,91.1667 102.5,92.5C 101.326,93.5137 100.66,94.847 100.5,96.5C 99.7042,107.54 104.704,112.04 115.5,110C 117.861,109.803 119.528,108.636 120.5,106.5C 116.893,105.511 113.226,105.177 109.5,105.5C 109.5,103.833 109.5,102.167 109.5,100.5C 109.5,99.1667 109.5,97.8333 109.5,96.5C 113.04,96.2474 116.373,95.5808 119.5,94.5C 122.385,94.8064 125.052,94.4731 127.5,93.5C 129.167,93.5 130.833,93.5 132.5,93.5C 132.423,97.2148 132.756,100.881 133.5,104.5C 133.664,107.187 133.497,109.854 133,112.5C 130.604,115.067 128.104,117.4 125.5,119.5C 117.348,122.487 109.015,123.154 100.5,121.5C 94.6889,118.358 90.6889,113.691 88.5,107.5C 86.3515,99.6223 87.5182,92.289 92,85.5C 93.451,83.5359 95.2843,82.2026 97.5,81.5 Z"/></g>
<g><path style="opacity:1" fill="#131312" d="M 100.5,96.5 C 103.356,98.0934 106.356,99.4267 109.5,100.5C 109.5,102.167 109.5,103.833 109.5,105.5C 113.226,105.177 116.893,105.511 120.5,106.5C 119.528,108.636 117.861,109.803 115.5,110C 104.704,112.04 99.7042,107.54 100.5,96.5 Z"/></g>
<g><path style="opacity:1" fill="#282828" d="M 194.5,121.5 C 192.708,121.634 191.042,121.301 189.5,120.5C 189.723,117.886 188.556,116.219 186,115.5C 184.25,113.266 182.75,110.932 181.5,108.5C 182.222,108.082 182.722,107.416 183,106.5C 187.456,111.11 191.29,116.11 194.5,121.5 Z"/></g>
<g><path style="opacity:1" fill="#eae8de" d="M 128.5,76.5 C 129.891,78.8903 131.891,80.5569 134.5,81.5C 135.459,87.7947 136.125,94.128 136.5,100.5C 136.739,104.842 137.073,109.176 137.5,113.5C 135.886,110.608 134.553,107.608 133.5,104.5C 132.756,100.881 132.423,97.2148 132.5,93.5C 130.833,93.5 129.167,93.5 127.5,93.5C 126.833,92.5 126.167,91.5 125.5,90.5C 127.017,90.4894 128.184,89.8228 129,88.5C 129.45,86.481 130.283,84.6477 131.5,83C 127.902,80.5425 124.235,78.3759 120.5,76.5C 120.833,76.5 121.167,76.5 121.5,76.5C 122.708,77.2341 124.041,77.5674 125.5,77.5C 125.351,76.448 125.517,75.448 126,74.5C 126.708,75.3805 127.542,76.0472 128.5,76.5 Z"/></g>
<g><path style="opacity:1" fill="#e9db99" d="M 162.5,100.5 C 160.901,100.232 159.568,100.566 158.5,101.5C 155.833,101.5 153.167,101.5 150.5,101.5C 150.833,106.833 151.167,112.167 151.5,117.5C 147.202,118.2 142.869,118.533 138.5,118.5C 137.549,117.081 137.216,115.415 137.5,113.5C 137.073,109.176 136.739,104.842 136.5,100.5C 137.117,100.611 137.617,100.944 138,101.5C 140.7,99.4562 143.367,97.4562 146,95.5C 148.92,97.3806 151.92,97.7139 155,96.5C 154.387,100.095 155.554,100.429 158.5,97.5C 159.696,97.8457 159.696,98.3457 158.5,99C 160.058,99.21 161.391,99.71 162.5,100.5 Z"/></g>
<g><path style="opacity:1" fill="#6e6d6c" d="M 177.5,97.5 C 183.09,99.6284 188.423,102.295 193.5,105.5C 194.452,103.955 194.785,102.288 194.5,100.5C 195.482,103.962 195.815,107.629 195.5,111.5C 198.167,111.5 200.833,111.5 203.5,111.5C 205.984,113.545 206.984,116.212 206.5,119.5C 202.462,120.095 198.462,120.762 194.5,121.5C 191.29,116.11 187.456,111.11 183,106.5C 182.722,107.416 182.222,108.082 181.5,108.5C 181.179,106.952 180.179,106.285 178.5,106.5C 177.523,103.713 177.19,100.713 177.5,97.5 Z"/></g>
<g><path style="opacity:1" fill="#eeeeec" d="M 158.5,101.5 C 160.861,103.194 162.861,105.194 164.5,107.5C 164.232,110.119 164.565,112.619 165.5,115C 169.835,115.263 174.168,115.097 178.5,114.5C 178.5,111.833 178.5,109.167 178.5,106.5C 180.179,106.285 181.179,106.952 181.5,108.5C 182.75,110.932 184.25,113.266 186,115.5C 188.556,116.219 189.723,117.886 189.5,120.5C 187.562,122.163 185.228,122.829 182.5,122.5C 182.5,126.5 182.5,130.5 182.5,134.5C 187.493,134.084 192.493,133.751 197.5,133.5C 197.5,135.833 197.5,138.167 197.5,140.5C 197.234,146.876 195.901,153.043 193.5,159C 193.613,161.399 194.613,163.232 196.5,164.5C 196.5,164.833 196.5,165.167 196.5,165.5C 196.406,171.659 193.239,174.659 187,174.5C 185.699,175.098 184.865,176.098 184.5,177.5C 187.454,179.147 189.62,178.481 191,175.5C 191.417,180.864 193.25,185.53 196.5,189.5C 197.301,191.042 197.634,192.708 197.5,194.5C 197.5,196.833 197.5,199.167 197.5,201.5C 196.015,200.109 195.181,197.776 195,194.5C 193.951,193.483 192.784,193.316 191.5,194C 190.693,199.083 190.193,204.25 190,209.5C 189.617,210.056 189.117,210.389 188.5,210.5C 187.352,208.162 186.018,208.329 184.5,211C 186.061,215.085 187.394,219.252 188.5,223.5C 188.315,224.584 187.982,225.584 187.5,226.5C 185.623,227.659 185.123,229.326 186,231.5C 187.685,233.017 189.185,234.684 190.5,236.5C 189.311,237.429 187.978,237.762 186.5,237.5C 186.167,237.5 185.833,237.5 185.5,237.5C 184.389,236.34 183.389,235.007 182.5,233.5C 181.335,226.183 180.335,218.85 179.5,211.5C 179.5,210.167 179.5,208.833 179.5,207.5C 179.5,206.5 179.5,205.5 179.5,204.5C 181.982,197.712 182.149,190.712 180,183.5C 178.284,180.36 176.951,177.027 176,173.5C 174.224,172.464 172.391,172.464 170.5,173.5C 166.816,168.99 162.149,165.99 156.5,164.5C 155.597,161.609 155.264,158.609 155.5,155.5C 160.152,155.002 164.819,154.669 169.5,154.5C 169.5,159.167 169.5,163.833 169.5,168.5C 174.181,168.331 178.848,167.998 183.5,167.5C 182.927,160.808 182.261,154.141 181.5,147.5C 181.271,139.459 180.604,131.459 179.5,123.5C 175.119,123.372 170.785,123.705 166.5,124.5C 166.76,130.172 167.093,135.839 167.5,141.5C 164.941,141.198 162.607,141.532 160.5,142.5C 158.167,142.5 155.833,142.5 153.5,142.5C 153.5,137.167 153.5,131.833 153.5,126.5C 148.761,127.378 144.095,127.378 139.5,126.5C 139.425,123.794 139.092,121.127 138.5,118.5C 142.869,118.533 147.202,118.2 151.5,117.5C 151.167,112.167 150.833,106.833 150.5,101.5C 153.167,101.5 155.833,101.5 158.5,101.5 Z"/></g>
<g><path style="opacity:1" fill="#2b2b29" d="M 65.5,109.5 C 66.198,111.667 67.5313,113.5 69.5,115C 68.9535,115.925 68.2868,116.758 67.5,117.5C 66.3801,116.167 65.0468,115.667 63.5,116C 64.8331,117.84 64.6665,118.34 63,117.5C 62.7508,118.624 62.2508,119.624 61.5,120.5C 57.438,118.469 53.438,116.469 49.5,114.5C 54.6161,113.194 59.9494,112.527 65.5,112.5C 65.5,111.5 65.5,110.5 65.5,109.5 Z"/></g>
<g><path style="opacity:1" fill="#323231" d="M 133.5,104.5 C 134.553,107.608 135.886,110.608 137.5,113.5C 137.216,115.415 137.549,117.081 138.5,118.5C 139.092,121.127 139.425,123.794 139.5,126.5C 139.5,130.167 139.5,133.833 139.5,137.5C 139.662,139.527 139.495,141.527 139,143.5C 138.31,141.65 137.144,140.316 135.5,139.5C 136.028,138.153 136.195,136.819 136,135.5C 133.521,133.686 131.021,132.019 128.5,130.5C 128.938,130.565 129.272,130.399 129.5,130C 127.737,126.645 126.404,123.145 125.5,119.5C 128.104,117.4 130.604,115.067 133,112.5C 133.497,109.854 133.664,107.187 133.5,104.5 Z"/></g>
<g><path style="opacity:1" fill="#dccb92" d="M 211.5,137.5 C 211.657,138.873 211.49,140.207 211,141.5C 210.594,137.728 209.761,134.061 208.5,130.5C 208.331,132.117 207.997,133.784 207.5,135.5C 204.622,137.334 202.288,139.667 200.5,142.5C 200.912,147.107 200.912,152.107 200.5,157.5C 200.017,151.736 199.017,146.069 197.5,140.5C 197.5,138.167 197.5,135.833 197.5,133.5C 192.493,133.751 187.493,134.084 182.5,134.5C 182.5,130.5 182.5,126.5 182.5,122.5C 185.228,122.829 187.562,122.163 189.5,120.5C 191.042,121.301 192.708,121.634 194.5,121.5C 198.462,120.762 202.462,120.095 206.5,119.5C 212.5,119.167 218.5,118.833 224.5,118.5C 224.823,122.226 224.489,125.893 223.5,129.5C 219.889,130.262 216.222,130.762 212.5,131C 211.577,133.041 211.244,135.208 211.5,137.5 Z"/></g>
<g><path style="opacity:1" fill="#3e3e3c" d="M 88.5,107.5 C 90.6889,113.691 94.6889,118.358 100.5,121.5C 100.062,121.435 99.7284,121.601 99.5,122C 102.547,124.022 104.214,126.855 104.5,130.5C 104.957,131.298 105.624,131.631 106.5,131.5C 104.537,132.82 102.537,134.154 100.5,135.5C 97.9461,130.77 94.7795,126.437 91,122.5C 88.9308,118.362 87.4308,114.029 86.5,109.5C 86.4966,106.398 86.9966,106.065 88,108.5C 88.3988,108.272 88.5654,107.938 88.5,107.5 Z"/></g>
<g><path style="opacity:1" fill="#0c0c0b" d="M 125.5,119.5 C 126.404,123.145 127.737,126.645 129.5,130C 129.272,130.399 128.938,130.565 128.5,130.5C 121.018,128.845 113.685,129.179 106.5,131.5C 105.624,131.631 104.957,131.298 104.5,130.5C 104.214,126.855 102.547,124.022 99.5,122C 99.7284,121.601 100.062,121.435 100.5,121.5C 109.015,123.154 117.348,122.487 125.5,119.5 Z"/></g>
<g><path style="opacity:1" fill="#decd95" d="M 181.5,147.5 C 180.566,146.432 180.232,145.099 180.5,143.5C 178.876,143.64 177.71,142.973 177,141.5C 173.408,141.962 169.575,142.628 165.5,143.5C 163.865,142.954 162.199,142.62 160.5,142.5C 162.607,141.532 164.941,141.198 167.5,141.5C 167.093,135.839 166.76,130.172 166.5,124.5C 170.785,123.705 175.119,123.372 179.5,123.5C 180.604,131.459 181.271,139.459 181.5,147.5 Z"/></g>
<g><path style="opacity:1" fill="#d7c78e" d="M 128.5,130.5 C 131.021,132.019 133.521,133.686 136,135.5C 136.195,136.819 136.028,138.153 135.5,139.5C 134.263,140.965 133.263,142.632 132.5,144.5C 127.673,142.711 122.673,141.711 117.5,141.5C 114.514,141.289 111.847,141.956 109.5,143.5C 109.322,142.305 108.989,141.138 108.5,140C 109.756,138.155 110.756,136.155 111.5,134C 111.37,132.941 110.87,132.108 110,131.5C 106.859,133.32 103.692,134.986 100.5,136.5C 100.5,136.167 100.5,135.833 100.5,135.5C 102.537,134.154 104.537,132.82 106.5,131.5C 113.685,129.179 121.018,128.845 128.5,130.5 Z"/></g>
<g><path style="opacity:1" fill="#050404" d="M 93.5,145.5 C 93.5,146.167 93.5,146.833 93.5,147.5C 91.0576,164.531 98.2243,174.198 115,176.5C 119.167,176.334 123.001,175.334 126.5,173.5C 131.322,172.002 135.322,169.336 138.5,165.5C 139.869,167.691 140.869,170.025 141.5,172.5C 141.448,174.903 141.781,177.236 142.5,179.5C 142.5,187.5 142.5,195.5 142.5,203.5C 141.539,205.265 141.205,207.265 141.5,209.5C 140.616,214.791 139.949,220.124 139.5,225.5C 139.672,226.492 139.338,227.158 138.5,227.5C 137.726,221.854 137.059,216.187 136.5,210.5C 137.9,202.207 138.4,193.874 138,185.5C 137.581,184.328 136.915,183.328 136,182.5C 136.147,198.965 133.48,214.965 128,230.5C 127.667,230.833 127.333,231.167 127,231.5C 124.913,226.321 123.247,226.655 122,232.5C 121.902,230.381 121.069,228.714 119.5,227.5C 118,229.833 116.5,232.167 115,234.5C 113.905,227.334 112.239,227.001 110,233.5C 109.385,231.884 108.385,230.551 107,229.5C 106.667,230.167 106.333,230.833 106,231.5C 105,230.5 104,229.5 103,228.5C 102.194,231.446 100.861,234.112 99,236.5C 98.8603,233.957 98.1937,231.623 97,229.5C 96.2754,231.949 95.2754,234.283 94,236.5C 93.7489,234.567 93.2489,232.734 92.5,231C 92.1667,230.833 91.8333,230.667 91.5,230.5C 90.5896,232.655 89.4229,234.655 88,236.5C 87.8871,234.026 86.8871,232.026 85,230.5C 84,233.167 83,235.833 82,238.5C 81.6667,236.167 81.3333,233.833 81,231.5C 80.586,231.043 80.086,230.709 79.5,230.5C 78.8333,231.5 78.1667,232.5 77.5,233.5C 76.3503,230.253 75.517,226.92 75,223.5C 74.8155,209.759 74.3155,196.092 73.5,182.5C 73.1583,181.662 72.4916,181.328 71.5,181.5C 71.2649,176.133 69.5982,171.299 66.5,167C 67.4158,166.722 68.0825,166.222 68.5,165.5C 70.3435,163.721 71.0102,161.388 70.5,158.5C 70.5,156.833 70.5,155.167 70.5,153.5C 68.5853,153.216 66.9187,153.549 65.5,154.5C 61.4517,154.395 57.4517,154.728 53.5,155.5C 53.5,153.167 53.5,150.833 53.5,148.5C 59.181,148.365 64.8477,148.032 70.5,147.5C 71.5,147.5 72.5,147.5 73.5,147.5C 73.5,145.5 73.5,143.5 73.5,141.5C 73.2322,139.901 73.5655,138.568 74.5,137.5C 76.0531,151.47 77.3865,165.47 78.5,179.5C 82.7853,178.705 87.1186,178.372 91.5,178.5C 90.7409,163.816 89.7409,149.15 88.5,134.5C 89.172,133.733 90.0053,133.066 91,132.5C 92.6307,136.688 93.4641,141.021 93.5,145.5 Z"/></g>
<g><path style="opacity:1" fill="#151615" d="M 249.5,67.5 C 249.5,127.5 249.5,187.5 249.5,247.5C 242.167,247.5 234.833,247.5 227.5,247.5C 224.819,232.787 222.152,218.121 219.5,203.5C 220.147,202.726 220.48,201.726 220.5,200.5C 218.057,193.803 217.39,186.97 218.5,180C 217.386,173.201 216.552,166.368 216,159.5C 215.79,161.058 215.29,162.391 214.5,163.5C 213.495,154.693 212.495,146.026 211.5,137.5C 211.244,135.208 211.577,133.041 212.5,131C 216.222,130.762 219.889,130.262 223.5,129.5C 224.489,125.893 224.823,122.226 224.5,118.5C 218.5,118.833 212.5,119.167 206.5,119.5C 206.984,116.212 205.984,113.545 203.5,111.5C 205.531,111.028 207.198,110.028 208.5,108.5C 208.55,102.611 207.884,96.9438 206.5,91.5C 206.772,87.0983 206.439,82.7649 205.5,78.5C 210.046,77.015 214.713,76.3484 219.5,76.5C 219.5,74.1667 219.5,71.8333 219.5,69.5C 220.163,67.9581 220.83,66.2914 221.5,64.5C 221.153,66.1402 221.653,67.8068 223,69.5C 231.438,68.5441 240.271,67.8774 249.5,67.5 Z"/></g>
<g><path style="opacity:1" fill="#171717" d="M -0.5,136.5 C 0.600473,138.277 1.43381,140.277 2,142.5C 2.01376,148.683 3.01376,154.683 5,160.5C 6.16667,162.333 7.66667,163.833 9.5,165C 18.6794,167.975 28.0127,168.309 37.5,166C 39.1193,165.764 40.1193,164.931 40.5,163.5C 41.8127,169.959 42.4793,176.626 42.5,183.5C 44.1667,183.5 45.8333,183.5 47.5,183.5C 41.043,185.06 34.3763,186.226 27.5,187C 19.8294,191.559 11.4961,194.559 2.5,196C 5.53139,196.495 8.53139,196.329 11.5,195.5C 11.719,196.675 11.3857,197.675 10.5,198.5C 5.29185,199.818 5.29185,201.318 10.5,203C 6.93466,204.357 3.26799,205.19 -0.5,205.5C -0.5,182.5 -0.5,159.5 -0.5,136.5 Z"/></g>
<g><path style="opacity:1" fill="#d3b76c" d="M 72.5,141.5 C 72.7413,143.886 72.0746,145.886 70.5,147.5C 64.8477,148.032 59.181,148.365 53.5,148.5C 53.5,150.833 53.5,153.167 53.5,155.5C 57.4517,154.728 61.4517,154.395 65.5,154.5C 66.8333,154.5 68.1667,154.5 69.5,154.5C 69.2322,156.099 69.5655,157.432 70.5,158.5C 71.0102,161.388 70.3435,163.721 68.5,165.5C 63.8592,166.127 59.1925,166.46 54.5,166.5C 55.1942,171.805 55.5276,177.138 55.5,182.5C 52.9407,182.198 50.6074,182.532 48.5,183.5C 48.1667,183.5 47.8333,183.5 47.5,183.5C 45.8333,183.5 44.1667,183.5 42.5,183.5C 42.4793,176.626 41.8127,169.959 40.5,163.5C 39.9858,155.482 39.3192,147.482 38.5,139.5C 44.4791,138.669 50.4791,138.003 56.5,137.5C 61.8464,136.906 67.1798,136.239 72.5,135.5C 72.5,137.5 72.5,139.5 72.5,141.5 Z"/></g>
<g><path style="opacity:1" fill="#dcc683" d="M 109.5,143.5 C 104.369,149.619 104.369,155.952 109.5,162.5C 107.742,162.123 106.075,161.456 104.5,160.5C 103.355,159.224 103.355,157.891 104.5,156.5C 103.052,155.646 101.719,154.646 100.5,153.5C 99.914,153.709 99.414,154.043 99,154.5C 98.8374,152.613 99.6707,151.113 101.5,150C 99.4798,148.783 97.4798,148.617 95.5,149.5C 94.8182,148.757 94.1515,148.091 93.5,147.5C 93.5,146.833 93.5,146.167 93.5,145.5C 94.6578,141.665 96.9911,138.665 100.5,136.5C 103.692,134.986 106.859,133.32 110,131.5C 110.87,132.108 111.37,132.941 111.5,134C 110.756,136.155 109.756,138.155 108.5,140C 108.989,141.138 109.322,142.305 109.5,143.5 Z"/></g>
<g><path style="opacity:1" fill="#766542" d="M 72.5,141.5 C 72.8333,141.5 73.1667,141.5 73.5,141.5C 73.5,143.5 73.5,145.5 73.5,147.5C 72.5,147.5 71.5,147.5 70.5,147.5C 72.0746,145.886 72.7413,143.886 72.5,141.5 Z"/></g>
<g><path style="opacity:1" fill="#dbc685" d="M 139.5,126.5 C 144.095,127.378 148.761,127.378 153.5,126.5C 153.5,131.833 153.5,137.167 153.5,142.5C 155.833,142.5 158.167,142.5 160.5,142.5C 162.199,142.62 163.865,142.954 165.5,143.5C 169.575,142.628 173.408,141.962 177,141.5C 177.71,142.973 178.876,143.64 180.5,143.5C 180.232,145.099 180.566,146.432 181.5,147.5C 182.261,154.141 182.927,160.808 183.5,167.5C 178.848,167.998 174.181,168.331 169.5,168.5C 169.5,163.833 169.5,159.167 169.5,154.5C 164.819,154.669 160.152,155.002 155.5,155.5C 155.264,158.609 155.597,161.609 156.5,164.5C 156.5,166.5 156.5,168.5 156.5,170.5C 152.176,170.927 147.842,171.261 143.5,171.5C 143.795,169.265 143.461,167.265 142.5,165.5C 141.85,155.988 140.85,146.654 139.5,137.5C 139.5,133.833 139.5,130.167 139.5,126.5 Z"/></g>
<g><path style="opacity:1" fill="#131210" d="M 132.5,144.5 C 133.5,144.833 134.167,145.5 134.5,146.5C 128.014,147.814 121.347,148.814 114.5,149.5C 114.5,152.833 114.5,156.167 114.5,159.5C 118.507,158.387 122.507,158.387 126.5,159.5C 126.137,160.183 125.804,160.85 125.5,161.5C 122.309,162.896 118.976,163.896 115.5,164.5C 113.307,164.281 111.307,163.615 109.5,162.5C 104.369,155.952 104.369,149.619 109.5,143.5C 111.847,141.956 114.514,141.289 117.5,141.5C 122.673,141.711 127.673,142.711 132.5,144.5 Z"/></g>
<g><path style="opacity:1" fill="#786a48" d="M 65.5,154.5 C 66.9187,153.549 68.5853,153.216 70.5,153.5C 70.5,155.167 70.5,156.833 70.5,158.5C 69.5655,157.432 69.2322,156.099 69.5,154.5C 68.1667,154.5 66.8333,154.5 65.5,154.5 Z"/></g>
<g><path style="opacity:1" fill="#7c7a75" d="M 197.5,140.5 C 199.017,146.069 200.017,151.736 200.5,157.5C 200.5,158.5 200.5,159.5 200.5,160.5C 199.778,160.082 199.278,159.416 199,158.5C 198.427,160.641 197.594,162.641 196.5,164.5C 194.613,163.232 193.613,161.399 193.5,159C 195.901,153.043 197.234,146.876 197.5,140.5 Z"/></g>
<g><path style="opacity:1" fill="#d7bf7e" d="M 134.5,146.5 C 135.5,146.5 136.5,146.5 137.5,146.5C 138.014,152.822 138.347,159.155 138.5,165.5C 135.322,169.336 131.322,172.002 126.5,173.5C 127.644,171.814 129.644,170.481 132.5,169.5C 132.5,167.833 132.5,166.167 132.5,164.5C 134.201,164.034 135.701,164.034 137,164.5C 138.388,159.578 137.222,158.578 133.5,161.5C 131.185,160.766 129.352,159.432 128,157.5C 127.878,159.437 127.045,160.77 125.5,161.5C 125.804,160.85 126.137,160.183 126.5,159.5C 122.507,158.387 118.507,158.387 114.5,159.5C 114.5,156.167 114.5,152.833 114.5,149.5C 121.347,148.814 128.014,147.814 134.5,146.5 Z"/></g>
<g><path style="opacity:1" fill="#d6bc77" d="M 211.5,137.5 C 212.495,146.026 213.495,154.693 214.5,163.5C 214.5,164.167 214.167,164.5 213.5,164.5C 209.131,164.467 204.798,164.8 200.5,165.5C 200.5,163.833 200.5,162.167 200.5,160.5C 200.5,159.5 200.5,158.5 200.5,157.5C 200.912,152.107 200.912,147.107 200.5,142.5C 202.288,139.667 204.622,137.334 207.5,135.5C 207.997,133.784 208.331,132.117 208.5,130.5C 209.761,134.061 210.594,137.728 211,141.5C 211.49,140.207 211.657,138.873 211.5,137.5 Z"/></g>
<g><path style="opacity:1" fill="#46433e" d="M 139.5,137.5 C 140.85,146.654 141.85,155.988 142.5,165.5C 142.702,167.95 142.369,170.283 141.5,172.5C 140.869,170.025 139.869,167.691 138.5,165.5C 138.347,159.155 138.014,152.822 137.5,146.5C 136.5,146.5 135.5,146.5 134.5,146.5C 134.167,145.5 133.5,144.833 132.5,144.5C 133.263,142.632 134.263,140.965 135.5,139.5C 137.144,140.316 138.31,141.65 139,143.5C 139.495,141.527 139.662,139.527 139.5,137.5 Z"/></g>
<g><path style="opacity:1" fill="#848482" d="M 156.5,164.5 C 162.149,165.99 166.816,168.99 170.5,173.5C 169.5,173.5 168.5,173.5 167.5,173.5C 163.505,172.883 160.172,174.049 157.5,177C 155.1,177.186 152.766,177.686 150.5,178.5C 150.863,179.183 151.196,179.85 151.5,180.5C 148.518,180.037 145.518,179.704 142.5,179.5C 141.781,177.236 141.448,174.903 141.5,172.5C 142.369,170.283 142.702,167.95 142.5,165.5C 143.461,167.265 143.795,169.265 143.5,171.5C 147.842,171.261 152.176,170.927 156.5,170.5C 156.5,168.5 156.5,166.5 156.5,164.5 Z"/></g>
<g><path style="opacity:1" fill="#191918" d="M 68.5,165.5 C 68.0825,166.222 67.4158,166.722 66.5,167C 69.5982,171.299 71.2649,176.133 71.5,181.5C 63.9442,182.88 56.2776,183.546 48.5,183.5C 50.6074,182.532 52.9407,182.198 55.5,182.5C 55.5276,177.138 55.1942,171.805 54.5,166.5C 59.1925,166.46 63.8592,166.127 68.5,165.5 Z"/></g>
<g><path style="opacity:1" fill="#d6b86e" d="M 93.5,147.5 C 94.1515,148.091 94.8182,148.757 95.5,149.5C 97.4798,148.617 99.4798,148.783 101.5,150C 99.6707,151.113 98.8374,152.613 99,154.5C 99.414,154.043 99.914,153.709 100.5,153.5C 101.719,154.646 103.052,155.646 104.5,156.5C 103.355,157.891 103.355,159.224 104.5,160.5C 106.075,161.456 107.742,162.123 109.5,162.5C 111.307,163.615 113.307,164.281 115.5,164.5C 118.976,163.896 122.309,162.896 125.5,161.5C 127.045,160.77 127.878,159.437 128,157.5C 129.352,159.432 131.185,160.766 133.5,161.5C 137.222,158.578 138.388,159.578 137,164.5C 135.701,164.034 134.201,164.034 132.5,164.5C 132.5,166.167 132.5,167.833 132.5,169.5C 129.644,170.481 127.644,171.814 126.5,173.5C 123.001,175.334 119.167,176.334 115,176.5C 98.2243,174.198 91.0576,164.531 93.5,147.5 Z"/></g>
<g><path style="opacity:1" fill="#f0f0f0" d="M 167.5,173.5 C 168.398,174.158 169.398,174.824 170.5,175.5C 168.713,177.858 167.713,180.525 167.5,183.5C 166.5,183.5 165.5,183.5 164.5,183.5C 161.833,182.833 159.167,182.167 156.5,181.5C 154.883,180.962 153.216,180.629 151.5,180.5C 151.196,179.85 150.863,179.183 150.5,178.5C 152.766,177.686 155.1,177.186 157.5,177C 160.172,174.049 163.505,172.883 167.5,173.5 Z"/></g>
<g><path style="opacity:1" fill="#d4b86e" d="M 88.5,134.5 C 89.7409,149.15 90.7409,163.816 91.5,178.5C 87.1186,178.372 82.7853,178.705 78.5,179.5C 77.3865,165.47 76.0531,151.47 74.5,137.5C 74.7911,136.351 75.6244,135.684 77,135.5C 80.7921,134.69 84.6255,134.356 88.5,134.5 Z"/></g>
<g><path style="opacity:1" fill="#9b9b9b" d="M 179.5,204.5 C 179.5,203.5 179.5,202.5 179.5,201.5C 179.857,195.418 179.524,190.751 178.5,187.5C 177.533,186.194 176.199,185.527 174.5,185.5C 171.017,184.99 167.684,184.323 164.5,183.5C 165.5,183.5 166.5,183.5 167.5,183.5C 167.713,180.525 168.713,177.858 170.5,175.5C 169.398,174.824 168.398,174.158 167.5,173.5C 168.5,173.5 169.5,173.5 170.5,173.5C 172.391,172.464 174.224,172.464 176,173.5C 176.951,177.027 178.284,180.36 180,183.5C 182.149,190.712 181.982,197.712 179.5,204.5 Z"/></g>
<g><path style="opacity:1" fill="#5a5a5a" d="M 198.5,170.5 C 200.022,171.191 201.022,172.358 201.5,174C 200.804,175.893 199.97,177.726 199,179.5C 198.826,184.684 198.326,189.684 197.5,194.5C 197.634,192.708 197.301,191.042 196.5,189.5C 198.086,184.879 197.753,180.379 195.5,176C 196.124,173.915 197.124,172.082 198.5,170.5 Z"/></g>
<g><path style="opacity:1" fill="#9a9a9a" d="M 196.5,165.5 C 197.537,166.93 198.204,168.597 198.5,170.5C 197.124,172.082 196.124,173.915 195.5,176C 197.753,180.379 198.086,184.879 196.5,189.5C 193.25,185.53 191.417,180.864 191,175.5C 189.62,178.481 187.454,179.147 184.5,177.5C 184.865,176.098 185.699,175.098 187,174.5C 193.239,174.659 196.406,171.659 196.5,165.5 Z"/></g>
<g><path style="opacity:1" fill="#070707" d="M 200.5,160.5 C 200.5,162.167 200.5,163.833 200.5,165.5C 204.798,164.8 209.131,164.467 213.5,164.5C 214.425,177.679 216.425,190.679 219.5,203.5C 222.152,218.121 224.819,232.787 227.5,247.5C 207.833,247.5 188.167,247.5 168.5,247.5C 169.231,245.401 169.231,243.401 168.5,241.5C 167.534,243.396 167.201,245.396 167.5,247.5C 158.167,247.5 148.833,247.5 139.5,247.5C 139.5,243.833 139.5,240.167 139.5,236.5C 139.369,235.624 139.702,234.957 140.5,234.5C 142.727,235.053 145.061,235.053 147.5,234.5C 147.953,235.458 148.619,236.292 149.5,237C 155.29,239.886 161.123,240.052 167,237.5C 168.5,237.667 170,237.833 171.5,238C 170.359,240.224 171.026,241.724 173.5,242.5C 175.292,242.366 176.958,242.699 178.5,243.5C 181.096,244.265 183.763,244.599 186.5,244.5C 190.568,244.438 193.235,242.438 194.5,238.5C 194.833,238.5 195.167,238.5 195.5,238.5C 197.635,238.853 198.968,238.02 199.5,236C 198.5,233.667 197.5,231.333 196.5,229C 196.919,226.914 198.086,225.414 200,224.5C 200.868,218.577 200.368,212.911 198.5,207.5C 198.795,205.265 198.461,203.265 197.5,201.5C 197.5,199.167 197.5,196.833 197.5,194.5C 198.326,189.684 198.826,184.684 199,179.5C 199.97,177.726 200.804,175.893 201.5,174C 201.022,172.358 200.022,171.191 198.5,170.5C 198.204,168.597 197.537,166.93 196.5,165.5C 196.5,165.167 196.5,164.833 196.5,164.5C 197.594,162.641 198.427,160.641 199,158.5C 199.278,159.416 199.778,160.082 200.5,160.5 Z"/></g>
<g><path style="opacity:1" fill="#050505" d="M 71.5,181.5 C 71.5,185.167 71.5,188.833 71.5,192.5C 71.5118,198.871 71.0118,205.204 70,211.5C 69.8823,208.629 69.2156,205.962 68,203.5C 67.5223,214.612 66.1889,225.612 64,236.5C 62.5391,235.117 61.7058,235.451 61.5,237.5C 60.8333,235.167 60.1667,232.833 59.5,230.5C 59.8044,221.416 59.4711,212.416 58.5,203.5C 58.44,202.957 58.1067,202.624 57.5,202.5C 56.5018,211.475 56.1685,220.475 56.5,229.5C 56.3031,233.622 55.4698,237.622 54,241.5C 53.273,238.845 52.1064,236.512 50.5,234.5C 48.9106,237.421 47.4106,240.421 46,243.5C 45.9968,240.242 44.8302,237.575 42.5,235.5C 41.3306,238.198 40.1639,240.865 39,243.5C 38.6667,241.167 38.3333,238.833 38,236.5C 36.2835,235.448 35.2835,236.114 35,238.5C 33.9199,224.113 32.2533,209.78 30,195.5C 29.7104,193.956 29.0437,192.623 28,191.5C 27.1789,210.411 24.3455,229.077 19.5,247.5C 12.8333,247.5 6.16667,247.5 -0.5,247.5C -0.5,233.5 -0.5,219.5 -0.5,205.5C 3.26799,205.19 6.93466,204.357 10.5,203C 5.29185,201.318 5.29185,199.818 10.5,198.5C 11.3857,197.675 11.719,196.675 11.5,195.5C 8.53139,196.329 5.53139,196.495 2.5,196C 11.4961,194.559 19.8294,191.559 27.5,187C 34.3763,186.226 41.043,185.06 47.5,183.5C 47.8333,183.5 48.1667,183.5 48.5,183.5C 56.2776,183.546 63.9442,182.88 71.5,181.5 Z"/></g>
<g><path style="opacity:1" fill="#585858" d="M 71.5,181.5 C 72.4916,181.328 73.1583,181.662 73.5,182.5C 72.8333,185.833 72.1667,189.167 71.5,192.5C 71.5,188.833 71.5,185.167 71.5,181.5 Z"/></g>
<g><path style="opacity:1" fill="#3a3a3a" d="M 219.5,203.5 C 216.425,190.679 214.425,177.679 213.5,164.5C 214.167,164.5 214.5,164.167 214.5,163.5C 215.29,162.391 215.79,161.058 216,159.5C 216.552,166.368 217.386,173.201 218.5,180C 217.39,186.97 218.057,193.803 220.5,200.5C 220.48,201.726 220.147,202.726 219.5,203.5 Z"/></g>
<g><path style="opacity:1" fill="#434443" d="M 179.5,201.5 C 178.778,201.918 178.278,202.584 178,203.5C 176.058,198.126 176.225,192.793 178.5,187.5C 179.524,190.751 179.857,195.418 179.5,201.5 Z"/></g>
<g><path style="opacity:1" fill="#4c4c4c" d="M 142.5,179.5 C 145.518,179.704 148.518,180.037 151.5,180.5C 153.216,180.629 154.883,180.962 156.5,181.5C 156.33,182.822 156.663,183.989 157.5,185C 156.322,185.967 154.989,186.467 153.5,186.5C 152.403,188.229 151.237,189.896 150,191.5C 149.667,191.167 149.333,190.833 149,190.5C 148.333,192.167 148.333,193.833 149,195.5C 149.414,195.043 149.914,194.709 150.5,194.5C 154.157,196.149 156.491,198.483 157.5,201.5C 156.134,203.322 154.3,204.322 152,204.5C 148.857,203.893 145.69,203.559 142.5,203.5C 142.5,195.5 142.5,187.5 142.5,179.5 Z"/></g>
<g><path style="opacity:1" fill="#7b7c7b" d="M 174.5,185.5 C 176.199,185.527 177.533,186.194 178.5,187.5C 176.225,192.793 176.058,198.126 178,203.5C 178.278,202.584 178.778,201.918 179.5,201.5C 179.5,202.5 179.5,203.5 179.5,204.5C 179.5,205.5 179.5,206.5 179.5,207.5C 178.175,208.953 177.342,208.619 177,206.5C 176.667,208.167 176.333,209.833 176,211.5C 171.585,210.539 166.919,210.872 162,212.5C 159.291,212.128 157.457,210.628 156.5,208C 153.996,207.302 151.663,206.469 149.5,205.5C 152.448,205.777 155.281,205.444 158,204.5C 159.057,206.219 159.89,208.053 160.5,210C 164.63,210.672 168.63,210.172 172.5,208.5C 173.442,208.608 174.275,208.941 175,209.5C 175.687,207.08 175.187,204.913 173.5,203C 167.748,200.604 162.415,197.604 157.5,194C 160.959,194.734 161.293,193.734 158.5,191C 163.422,190.87 168.422,190.203 173.5,189C 174.337,187.989 174.67,186.822 174.5,185.5 Z"/></g>
<g><path style="opacity:1" fill="#636363" d="M 156.5,181.5 C 159.167,182.167 161.833,182.833 164.5,183.5C 167.684,184.323 171.017,184.99 174.5,185.5C 174.67,186.822 174.337,187.989 173.5,189C 168.422,190.203 163.422,190.87 158.5,191C 161.293,193.734 160.959,194.734 157.5,194C 162.415,197.604 167.748,200.604 173.5,203C 175.187,204.913 175.687,207.08 175,209.5C 174.275,208.941 173.442,208.608 172.5,208.5C 168.63,210.172 164.63,210.672 160.5,210C 159.89,208.053 159.057,206.219 158,204.5C 155.281,205.444 152.448,205.777 149.5,205.5C 147.021,204.377 144.688,204.377 142.5,205.5C 142.5,206.833 142.5,208.167 142.5,209.5C 142.167,209.5 141.833,209.5 141.5,209.5C 141.205,207.265 141.539,205.265 142.5,203.5C 145.69,203.559 148.857,203.893 152,204.5C 154.3,204.322 156.134,203.322 157.5,201.5C 156.491,198.483 154.157,196.149 150.5,194.5C 149.914,194.709 149.414,195.043 149,195.5C 148.333,193.833 148.333,192.167 149,190.5C 149.333,190.833 149.667,191.167 150,191.5C 151.237,189.896 152.403,188.229 153.5,186.5C 154.989,186.467 156.322,185.967 157.5,185C 156.663,183.989 156.33,182.822 156.5,181.5 Z"/></g>
<g><path style="opacity:1" fill="#7b7c7b" d="M 197.5,201.5 C 198.461,203.265 198.795,205.265 198.5,207.5C 198.119,208.931 197.119,209.764 195.5,210C 195.957,210.414 196.291,210.914 196.5,211.5C 195.086,212.624 193.586,213.624 192,214.5C 191.196,218.737 191.696,222.737 193.5,226.5C 191.654,226.222 190.32,226.889 189.5,228.5C 190.805,231.638 192.971,233.971 196,235.5C 196.47,236.577 196.303,237.577 195.5,238.5C 195.167,238.5 194.833,238.5 194.5,238.5C 191.615,238.806 188.948,238.473 186.5,237.5C 187.978,237.762 189.311,237.429 190.5,236.5C 189.185,234.684 187.685,233.017 186,231.5C 185.123,229.326 185.623,227.659 187.5,226.5C 189.252,226.582 190.252,225.749 190.5,224C 188.187,219.623 187.52,215.123 188.5,210.5C 189.117,210.389 189.617,210.056 190,209.5C 190.193,204.25 190.693,199.083 191.5,194C 192.784,193.316 193.951,193.483 195,194.5C 195.181,197.776 196.015,200.109 197.5,201.5 Z"/></g>
<g><path style="opacity:1" fill="#e5e6e5" d="M 142.5,205.5 C 145.402,206.784 148.402,207.784 151.5,208.5C 151.532,210.619 150.532,211.952 148.5,212.5C 146.5,211.5 144.5,210.5 142.5,209.5C 142.5,208.167 142.5,206.833 142.5,205.5 Z"/></g>
<g><path style="opacity:1" fill="#babbba" d="M 188.5,210.5 C 187.52,215.123 188.187,219.623 190.5,224C 190.252,225.749 189.252,226.582 187.5,226.5C 187.982,225.584 188.315,224.584 188.5,223.5C 187.394,219.252 186.061,215.085 184.5,211C 186.018,208.329 187.352,208.162 188.5,210.5 Z"/></g>
<g><path style="opacity:1" fill="#313131" d="M 141.5,209.5 C 141.833,209.5 142.167,209.5 142.5,209.5C 144.5,210.5 146.5,211.5 148.5,212.5C 148.937,214.074 149.937,215.241 151.5,216C 155.033,216.874 158.366,218.208 161.5,220C 163.203,222.332 165.203,224.165 167.5,225.5C 168.028,226.721 168.695,227.887 169.5,229C 168.333,229.167 167.167,229.333 166,229.5C 162.483,227.539 158.65,226.206 154.5,225.5C 153.833,225.833 153.167,226.167 152.5,226.5C 148.383,226.183 144.549,225.183 141,223.5C 140.722,224.416 140.222,225.082 139.5,225.5C 139.949,220.124 140.616,214.791 141.5,209.5 Z"/></g>
<g><path style="opacity:1" fill="#8e8e8e" d="M 142.5,205.5 C 144.688,204.377 147.021,204.377 149.5,205.5C 151.663,206.469 153.996,207.302 156.5,208C 157.457,210.628 159.291,212.128 162,212.5C 166.919,210.872 171.585,210.539 176,211.5C 176.333,209.833 176.667,208.167 177,206.5C 177.342,208.619 178.175,208.953 179.5,207.5C 179.5,208.833 179.5,210.167 179.5,211.5C 177.896,216.041 175.73,220.374 173,224.5C 172.421,225.928 172.588,227.262 173.5,228.5C 171.5,227.5 169.5,226.5 167.5,225.5C 165.203,224.165 163.203,222.332 161.5,220C 158.366,218.208 155.033,216.874 151.5,216C 149.937,215.241 148.937,214.074 148.5,212.5C 150.532,211.952 151.532,210.619 151.5,208.5C 148.402,207.784 145.402,206.784 142.5,205.5 Z"/></g>
<g><path style="opacity:1" fill="#d3d3d3" d="M 179.5,211.5 C 180.335,218.85 181.335,226.183 182.5,233.5C 183.389,235.007 184.389,236.34 185.5,237.5C 184.07,237.421 182.736,237.754 181.5,238.5C 180.702,236.922 180.202,235.256 180,233.5C 179.667,233.833 179.333,234.167 179,234.5C 178.317,231.321 176.484,229.321 173.5,228.5C 172.588,227.262 172.421,225.928 173,224.5C 175.73,220.374 177.896,216.041 179.5,211.5 Z"/></g>
<g><path style="opacity:1" fill="#525252" d="M 198.5,207.5 C 200.368,212.911 200.868,218.577 200,224.5C 198.086,225.414 196.919,226.914 196.5,229C 197.5,231.333 198.5,233.667 199.5,236C 198.968,238.02 197.635,238.853 195.5,238.5C 196.303,237.577 196.47,236.577 196,235.5C 192.971,233.971 190.805,231.638 189.5,228.5C 190.32,226.889 191.654,226.222 193.5,226.5C 191.696,222.737 191.196,218.737 192,214.5C 193.586,213.624 195.086,212.624 196.5,211.5C 196.291,210.914 195.957,210.414 195.5,210C 197.119,209.764 198.119,208.931 198.5,207.5 Z"/></g>
<g><path style="opacity:1" fill="#e6e6e6" d="M 73.5,182.5 C 74.3155,196.092 74.8155,209.759 75,223.5C 75.517,226.92 76.3503,230.253 77.5,233.5C 78.1667,232.5 78.8333,231.5 79.5,230.5C 80.086,230.709 80.586,231.043 81,231.5C 81.3333,233.833 81.6667,236.167 82,238.5C 83,235.833 84,233.167 85,230.5C 86.8871,232.026 87.8871,234.026 88,236.5C 89.4229,234.655 90.5896,232.655 91.5,230.5C 91.8333,230.667 92.1667,230.833 92.5,231C 93.2489,232.734 93.7489,234.567 94,236.5C 95.2754,234.283 96.2754,231.949 97,229.5C 98.1937,231.623 98.8603,233.957 99,236.5C 100.861,234.112 102.194,231.446 103,228.5C 104,229.5 105,230.5 106,231.5C 106.333,230.833 106.667,230.167 107,229.5C 108.385,230.551 109.385,231.884 110,233.5C 112.239,227.001 113.905,227.334 115,234.5C 116.5,232.167 118,229.833 119.5,227.5C 121.069,228.714 121.902,230.381 122,232.5C 123.247,226.655 124.913,226.321 127,231.5C 127.333,231.167 127.667,230.833 128,230.5C 133.48,214.965 136.147,198.965 136,182.5C 136.915,183.328 137.581,184.328 138,185.5C 138.4,193.874 137.9,202.207 136.5,210.5C 137.059,216.187 137.726,221.854 138.5,227.5C 138.19,230.713 138.523,233.713 139.5,236.5C 139.5,240.167 139.5,243.833 139.5,247.5C 138.833,247.5 138.167,247.5 137.5,247.5C 138.113,244.031 136.779,242.031 133.5,241.5C 132.732,237.861 132.066,238.194 131.5,242.5C 128.53,242.746 127.197,244.412 127.5,247.5C 126.833,247.5 126.167,247.5 125.5,247.5C 125.627,245.085 125.793,242.751 126,240.5C 123.833,245.88 122.499,245.547 122,239.5C 118.642,246.119 116.975,245.786 117,238.5C 115.5,240.833 114,243.167 112.5,245.5C 111.692,243.577 111.192,241.577 111,239.5C 109.5,241.833 108,244.167 106.5,246.5C 104.952,243.993 103.952,244.326 103.5,247.5C 102.833,247.5 102.167,247.5 101.5,247.5C 100.552,245.54 100.386,243.54 101,241.5C 99.5693,243.364 98.4026,245.364 97.5,247.5C 90.8333,247.5 84.1667,247.5 77.5,247.5C 77.3949,242.34 76.7283,242.34 75.5,247.5C 74.1667,247.5 72.8333,247.5 71.5,247.5C 71.4507,241.169 70.4507,241.169 68.5,247.5C 65.1667,247.5 61.8333,247.5 58.5,247.5C 58.4702,236.932 57.8035,236.932 56.5,247.5C 54.5,247.5 52.5,247.5 50.5,247.5C 50.281,242.371 49.6144,242.371 48.5,247.5C 46.8333,247.5 45.1667,247.5 43.5,247.5C 43.2627,243.711 42.5961,243.711 41.5,247.5C 36.1667,247.5 30.8333,247.5 25.5,247.5C 25.6682,235.796 24.6682,235.796 22.5,247.5C 21.5,247.5 20.5,247.5 19.5,247.5C 24.3455,229.077 27.1789,210.411 28,191.5C 29.0437,192.623 29.7104,193.956 30,195.5C 32.2533,209.78 33.9199,224.113 35,238.5C 35.2835,236.114 36.2835,235.448 38,236.5C 38.3333,238.833 38.6667,241.167 39,243.5C 40.1639,240.865 41.3306,238.198 42.5,235.5C 44.8302,237.575 45.9968,240.242 46,243.5C 47.4106,240.421 48.9106,237.421 50.5,234.5C 52.1064,236.512 53.273,238.845 54,241.5C 55.4698,237.622 56.3031,233.622 56.5,229.5C 57.1667,220.833 57.8333,212.167 58.5,203.5C 59.4711,212.416 59.8044,221.416 59.5,230.5C 59.1866,233.247 59.52,235.914 60.5,238.5C 61.1067,238.376 61.44,238.043 61.5,237.5C 61.7058,235.451 62.5391,235.117 64,236.5C 66.1889,225.612 67.5223,214.612 68,203.5C 69.2156,205.962 69.8823,208.629 70,211.5C 71.0118,205.204 71.5118,198.871 71.5,192.5C 72.1667,189.167 72.8333,185.833 73.5,182.5 Z"/></g>
<g><path style="opacity:1" fill="#1e1e1e" d="M 70.5,225.5 C 71.6651,226.496 72.3318,227.829 72.5,229.5C 71.4743,233.884 69.6409,237.884 67,241.5C 68.0288,236.22 69.1955,230.886 70.5,225.5 Z"/></g>
<g><path style="opacity:1" fill="#696969" d="M 71.5,218.5 C 72.3058,219.997 72.9724,221.664 73.5,223.5C 73.1667,223.833 72.8333,224.167 72.5,224.5C 71.5344,222.604 71.2011,220.604 71.5,218.5 Z"/></g>
<g><path style="opacity:1" fill="#2a2a2a" d="M 134.5,217.5 C 136.337,220.519 136.837,223.852 136,227.5C 135.333,226.833 134.667,226.167 134,225.5C 133.489,227.878 132.822,230.212 132,232.5C 131.707,227.333 132.54,222.333 134.5,217.5 Z"/></g>
<g><path style="opacity:1" fill="#5a5a5a" d="M 58.5,203.5 C 57.8333,212.167 57.1667,220.833 56.5,229.5C 56.1685,220.475 56.5018,211.475 57.5,202.5C 58.1067,202.624 58.44,202.957 58.5,203.5 Z"/></g>
<g><path style="opacity:1" fill="#1c1c1c" d="M 29.5,209.5 C 31.1114,216.937 32.1114,224.604 32.5,232.5C 32.9044,236.286 32.0711,236.952 30,234.5C 29.6667,235.833 29.3333,237.167 29,238.5C 26.7483,237.093 25.5816,235.093 25.5,232.5C 26.8363,224.82 28.1696,217.154 29.5,209.5 Z"/></g>
<g><path style="opacity:1" fill="#777777" d="M 59.5,230.5 C 60.1667,232.833 60.8333,235.167 61.5,237.5C 61.44,238.043 61.1067,238.376 60.5,238.5C 59.52,235.914 59.1866,233.247 59.5,230.5 Z"/></g>
<g><path style="opacity:1" fill="#4f504f" d="M 74.5,235.5 C 76.8519,236.543 77.0185,237.876 75,239.5C 74.51,238.207 74.3433,236.873 74.5,235.5 Z"/></g>
<g><path style="opacity:1" fill="#2b2b2b" d="M 147.5,234.5 C 150.455,235.159 153.455,235.492 156.5,235.5C 161.833,235.833 167.167,236.167 172.5,236.5C 176.29,236.008 176.956,236.841 174.5,239C 175.167,239.333 175.833,239.667 176.5,240C 175.429,240.852 174.429,241.685 173.5,242.5C 171.026,241.724 170.359,240.224 171.5,238C 170,237.833 168.5,237.667 167,237.5C 161.123,240.052 155.29,239.886 149.5,237C 148.619,236.292 147.953,235.458 147.5,234.5 Z"/></g>
<g><path style="opacity:1" fill="#131413" d="M 137.5,247.5 C 134.167,247.5 130.833,247.5 127.5,247.5C 127.197,244.412 128.53,242.746 131.5,242.5C 132.066,238.194 132.732,237.861 133.5,241.5C 136.779,242.031 138.113,244.031 137.5,247.5 Z"/></g>
<g><path style="opacity:1" fill="#1c1c1c" d="M 125.5,247.5 C 118.167,247.5 110.833,247.5 103.5,247.5C 103.952,244.326 104.952,243.993 106.5,246.5C 108,244.167 109.5,241.833 111,239.5C 111.192,241.577 111.692,243.577 112.5,245.5C 114,243.167 115.5,240.833 117,238.5C 116.975,245.786 118.642,246.119 122,239.5C 122.499,245.547 123.833,245.88 126,240.5C 125.793,242.751 125.627,245.085 125.5,247.5 Z"/></g>
<g><path style="opacity:1" fill="#616161" d="M 167.5,225.5 C 169.5,226.5 171.5,227.5 173.5,228.5C 176.484,229.321 178.317,231.321 179,234.5C 179.333,234.167 179.667,233.833 180,233.5C 180.202,235.256 180.702,236.922 181.5,238.5C 182.736,237.754 184.07,237.421 185.5,237.5C 185.833,237.5 186.167,237.5 186.5,237.5C 188.948,238.473 191.615,238.806 194.5,238.5C 193.235,242.438 190.568,244.438 186.5,244.5C 184.645,243.31 182.812,241.977 181,240.5C 179.955,241.373 179.122,242.373 178.5,243.5C 176.958,242.699 175.292,242.366 173.5,242.5C 174.429,241.685 175.429,240.852 176.5,240C 175.833,239.667 175.167,239.333 174.5,239C 176.956,236.841 176.29,236.008 172.5,236.5C 174.042,235.837 175.709,235.17 177.5,234.5C 177.291,233.914 176.957,233.414 176.5,233C 173.475,232.639 170.475,232.139 167.5,231.5C 166.558,231.608 165.725,231.941 165,232.5C 161.253,231.633 157.586,230.633 154,229.5C 151.859,230.112 149.859,230.112 148,229.5C 146.796,230.859 145.296,231.859 143.5,232.5C 147.459,233.327 151.459,233.827 155.5,234C 156.056,234.383 156.389,234.883 156.5,235.5C 153.455,235.492 150.455,235.159 147.5,234.5C 145.061,235.053 142.727,235.053 140.5,234.5C 139.702,234.957 139.369,235.624 139.5,236.5C 138.523,233.713 138.19,230.713 138.5,227.5C 139.338,227.158 139.672,226.492 139.5,225.5C 140.222,225.082 140.722,224.416 141,223.5C 144.549,225.183 148.383,226.183 152.5,226.5C 153.167,226.167 153.833,225.833 154.5,225.5C 158.65,226.206 162.483,227.539 166,229.5C 167.167,229.333 168.333,229.167 169.5,229C 168.695,227.887 168.028,226.721 167.5,225.5 Z"/></g>
<g><path style="opacity:1" fill="#888888" d="M 172.5,236.5 C 167.167,236.167 161.833,235.833 156.5,235.5C 156.389,234.883 156.056,234.383 155.5,234C 151.459,233.827 147.459,233.327 143.5,232.5C 145.296,231.859 146.796,230.859 148,229.5C 149.859,230.112 151.859,230.112 154,229.5C 157.586,230.633 161.253,231.633 165,232.5C 165.725,231.941 166.558,231.608 167.5,231.5C 170.475,232.139 173.475,232.639 176.5,233C 176.957,233.414 177.291,233.914 177.5,234.5C 175.709,235.17 174.042,235.837 172.5,236.5 Z"/></g>
<g><path style="opacity:1" fill="#494949" d="M 25.5,247.5 C 24.5,247.5 23.5,247.5 22.5,247.5C 24.6682,235.796 25.6682,235.796 25.5,247.5 Z"/></g>
<g><path style="opacity:1" fill="#1c1c1c" d="M 101.5,247.5 C 100.167,247.5 98.8333,247.5 97.5,247.5C 98.4026,245.364 99.5693,243.364 101,241.5C 100.386,243.54 100.552,245.54 101.5,247.5 Z"/></g>
<g><path style="opacity:1" fill="#6c6c6c" d="M 168.5,247.5 C 168.167,247.5 167.833,247.5 167.5,247.5C 167.201,245.396 167.534,243.396 168.5,241.5C 169.231,243.401 169.231,245.401 168.5,247.5 Z"/></g>
<g><path style="opacity:1" fill="#c0c0c0" d="M 186.5,244.5 C 183.763,244.599 181.096,244.265 178.5,243.5C 179.122,242.373 179.955,241.373 181,240.5C 182.812,241.977 184.645,243.31 186.5,244.5 Z"/></g>
<g><path style="opacity:1" fill="#1d1d1d" d="M 71.5,247.5 C 70.5,247.5 69.5,247.5 68.5,247.5C 70.4507,241.169 71.4507,241.169 71.5,247.5 Z"/></g>
<g><path style="opacity:1" fill="#181818" d="M 50.5,247.5 C 49.8333,247.5 49.1667,247.5 48.5,247.5C 49.6144,242.371 50.281,242.371 50.5,247.5 Z"/></g>
<g><path style="opacity:1" fill="#232323" d="M 43.5,247.5 C 42.8333,247.5 42.1667,247.5 41.5,247.5C 42.5961,243.711 43.2627,243.711 43.5,247.5 Z"/></g>
<g><path style="opacity:1" fill="#181818" d="M 58.5,247.5 C 57.8333,247.5 57.1667,247.5 56.5,247.5C 57.8035,236.932 58.4702,236.932 58.5,247.5 Z"/></g>
<g><path style="opacity:1" fill="#191919" d="M 77.5,247.5 C 76.8333,247.5 76.1667,247.5 75.5,247.5C 76.7283,242.34 77.3949,242.34 77.5,247.5 Z"/></g>
</svg>
