<svg xmlns="http://www.w3.org/2000/svg" viewBox="0 0 528 528"><g transform="translate(-99.2 -146.2)"><linearGradient id="a" x1="-729.4" x2="-712.9" y1="196.6" y2="196.6" gradientTransform="rotate(-45 -14775 -20201.4) scale(25.8535)" gradientUnits="userSpaceOnUse"><stop offset="0" stop-color="#cf8724"/><stop offset="1" stop-color="#fdce58"/></linearGradient><path fill="url(#a)" d="M366 631.5A219 219 0 0 1 147.5 413 219 219 0 0 1 366 194.5 219 219 0 0 1 584.5 413 219 219 0 0 1 366 631.5z"/></g><path d="M264 528C118.8 528 0 409.2 0 264S118.8 0 264 0s264 118.8 264 264-118.8 264-264 264zm0-469.3C151.1 58.7 58.7 151.1 58.7 264S151.1 469.3 264 469.3 469.3 376.9 469.3 264 376.9 58.7 264 58.7z"/><path d="M257.9 335.5h114.4v57.2h-67.5v48.4H246v-46.9h-70.4c0-19-3-38 1.5-55.7 1.5-8.8 11.7-17.6 19-26.4 22-26.4 44-52.8 67.6-79.2 8.8-10.3 17.6-19 27.9-30.8h-110V145h64.5V96.5h57.2v47h70.4c0 19 2.9 38-1.5 55.6-1.5 8.8-11.7 17.6-19.1 26.4-22 26.4-44 52.8-67.5 79.2a552.2 552.2 0 0 1-27.8 30.8z"/></svg>